solid OpenSCAD_Model
  facet normal 1 0 0
    outer loop
      vertex 40 0 12
      vertex 40 25 0
      vertex 40 25 12
    endloop
  endfacet
  facet normal 1 0 0
    outer loop
      vertex 40 25 0
      vertex 40 0 12
      vertex 40 0 0
    endloop
  endfacet
  facet normal 0 0 1
    outer loop
      vertex 39.631797790527344 25 12
      vertex 40 0 12
      vertex 40 25 12
    endloop
  endfacet
  facet normal 0 0 1
    outer loop
      vertex 40 0 12
      vertex 39.631797790527344 25 12
      vertex 39.631797790527344 0 12
    endloop
  endfacet
  facet normal 0 0 -1
    outer loop
      vertex 0 0 0
      vertex 40 25 0
      vertex 40 0 0
    endloop
  endfacet
  facet normal 0 0 -1
    outer loop
      vertex 40 25 0
      vertex 0 0 0
      vertex 0 25 0
    endloop
  endfacet
  facet normal -1 0 0
    outer loop
      vertex 0 25 0
      vertex 0 24 1.0009994506835938
      vertex 0 25 1.5002623796463013
    endloop
  endfacet
  facet normal -1 0 0
    outer loop
      vertex 0 25 0
      vertex 0 1 1.0009994506835938
      vertex 0 24 1.0009994506835938
    endloop
  endfacet
  facet normal -1 0 0
    outer loop
      vertex 0 0 0
      vertex 0 1 1.0009994506835938
      vertex 0 25 0
    endloop
  endfacet
  facet normal -1 0 0
    outer loop
      vertex 0 0 1.5002623796463013
      vertex 0 1 1.0009994506835938
      vertex 0 0 0
    endloop
  endfacet
  facet normal -1 0 0
    outer loop
      vertex 0 1 1.0009994506835938
      vertex 0 0 1.5002623796463013
      vertex 0 1 1.5002623796463013
    endloop
  endfacet
  facet normal -1 0 0
    outer loop
      vertex 0 25 1.5002623796463013
      vertex 0 24 1.0009994506835938
      vertex 0 24 1.5002623796463013
    endloop
  endfacet
  facet normal 0 1 0
    outer loop
      vertex 40 25 12
      vertex 39.65546798706055 25 11.909822463989258
      vertex 39.631797790527344 25 12
    endloop
  endfacet
  facet normal 0 1 0
    outer loop
      vertex 40 25 0
      vertex 39.65546798706055 25 11.909822463989258
      vertex 40 25 12
    endloop
  endfacet
  facet normal 0 1 0
    outer loop
      vertex 39.65546798706055 25 11.909822463989258
      vertex 40 25 0
      vertex 0 25 1.5002623796463013
    endloop
  endfacet
  facet normal 0 1 0
    outer loop
      vertex 0 25 1.5002623796463013
      vertex 40 25 0
      vertex 0 25 0
    endloop
  endfacet
  facet normal 0 -1 0
    outer loop
      vertex 39.65546798706055 0 11.909822463989258
      vertex 40 0 12
      vertex 39.631797790527344 0 12
    endloop
  endfacet
  facet normal 0 -1 0
    outer loop
      vertex 40 0 0
      vertex 39.65546798706055 0 11.909822463989258
      vertex 0 0 1.5002623796463013
    endloop
  endfacet
  facet normal 0 -1 0
    outer loop
      vertex 40 0 0
      vertex 0 0 1.5002623796463013
      vertex 0 0 0
    endloop
  endfacet
  facet normal 0 -1 0
    outer loop
      vertex 39.65546798706055 0 11.909822463989258
      vertex 40 0 0
      vertex 40 0 12
    endloop
  endfacet
  facet normal -1 0 0
    outer loop
      vertex 38.999000549316406 1 1.0009994506835938
      vertex 38.999000549316406 24 11.737499237060547
      vertex 38.999000549316406 24 1.0009994506835938
    endloop
  endfacet
  facet normal -1 0 0
    outer loop
      vertex 38.999000549316406 24 11.737499237060547
      vertex 38.999000549316406 1 1.0009994506835938
      vertex 38.999000549316406 1 11.737499237060547
    endloop
  endfacet
  facet normal 0 0 1
    outer loop
      vertex 0 24 1.0009994506835938
      vertex 38.999000549316406 1 1.0009994506835938
      vertex 38.999000549316406 24 1.0009994506835938
    endloop
  endfacet
  facet normal 0 0 1
    outer loop
      vertex 38.999000549316406 1 1.0009994506835938
      vertex 0 24 1.0009994506835938
      vertex 0 1 1.0009994506835938
    endloop
  endfacet
  facet normal 0 -1 0
    outer loop
      vertex 38.999000549316406 24 1.0009994506835938
      vertex 0 24 1.5002623796463013
      vertex 0 24 1.0009994506835938
    endloop
  endfacet
  facet normal 0 -1 0
    outer loop
      vertex 0 24 1.5002623796463013
      vertex 38.999000549316406 24 1.0009994506835938
      vertex 38.999000549316406 24 11.737499237060547
    endloop
  endfacet
  facet normal 0 1 0
    outer loop
      vertex 38.999000549316406 1 1.0009994506835938
      vertex 0 1 1.5002623796463013
      vertex 38.999000549316406 1 11.737499237060547
    endloop
  endfacet
  facet normal 0 1 0
    outer loop
      vertex 0 1 1.5002623796463013
      vertex 38.999000549316406 1 1.0009994506835938
      vertex 0 1 1.0009994506835938
    endloop
  endfacet
  facet normal -0.967234670507442 0 -0.25388401321934384
    outer loop
      vertex 39.65546798706055 0 11.909822463989258
      vertex 39.631797790527344 25 12
      vertex 39.65546798706055 25 11.909822463989258
    endloop
  endfacet
  facet normal -0.967234670507442 0 -0.25388401321934384
    outer loop
      vertex 39.631797790527344 25 12
      vertex 39.65546798706055 0 11.909822463989258
      vertex 39.631797790527344 0 12
    endloop
  endfacet
  facet normal -0.2538988514149939 0 0.967230775590886
    outer loop
      vertex 39.65546798706055 25 11.909822463989258
      vertex 38.999000549316406 24 11.737499237060547
      vertex 39.65546798706055 0 11.909822463989258
    endloop
  endfacet
  facet normal -0.2538981224276729 -5.115320952364154e-7 0.9672309669502114
    outer loop
      vertex 0 25 1.5002623796463013
      vertex 38.999000549316406 24 11.737499237060547
      vertex 39.65546798706055 25 11.909822463989258
    endloop
  endfacet
  facet normal -0.2538981101567106 0 0.9672309701714741
    outer loop
      vertex 38.999000549316406 24 11.737499237060547
      vertex 0 25 1.5002623796463013
      vertex 0 24 1.5002623796463013
    endloop
  endfacet
  facet normal -0.2538988514149939 0 0.967230775590886
    outer loop
      vertex 38.999000549316406 1 11.737499237060547
      vertex 39.65546798706055 0 11.909822463989258
      vertex 38.999000549316406 24 11.737499237060547
    endloop
  endfacet
  facet normal -0.2538981101567106 0 0.9672309701714741
    outer loop
      vertex 0 0 1.5002623796463013
      vertex 38.999000549316406 1 11.737499237060547
      vertex 0 1 1.5002623796463013
    endloop
  endfacet
  facet normal -0.2538981224276729 5.115320952364154e-7 0.9672309669502114
    outer loop
      vertex 38.999000549316406 1 11.737499237060547
      vertex 0 0 1.5002623796463013
      vertex 39.65546798706055 0 11.909822463989258
    endloop
  endfacet
endsolid OpenSCAD_Model
