solid OpenSCAD_Model
  facet normal 1 0 0
    outer loop
      vertex 36 0 10
      vertex 36 25 0
      vertex 36 25 10
    endloop
  endfacet
  facet normal 1 0 0
    outer loop
      vertex 36 25 0
      vertex 36 0 10
      vertex 36 0 0
    endloop
  endfacet
  facet normal 0 0 1
    outer loop
      vertex 35.999000549316406 25 10
      vertex 36 0 10
      vertex 36 25 10
    endloop
  endfacet
  facet normal 0 0 1
    outer loop
      vertex 36 0 10
      vertex 35.999000549316406 25 10
      vertex 35.999000549316406 0 10
    endloop
  endfacet
  facet normal 0 0 -1
    outer loop
      vertex 0 0 0
      vertex 36 25 0
      vertex 36 0 0
    endloop
  endfacet
  facet normal 0 0 -1
    outer loop
      vertex 36 25 0
      vertex 0 0 0
      vertex 0 25 0
    endloop
  endfacet
  facet normal -1 0 0
    outer loop
      vertex 0 25 0
      vertex 0 24 1.0009994506835938
      vertex 0 25 1.5002360343933105
    endloop
  endfacet
  facet normal -1 0 0
    outer loop
      vertex 0 25 0
      vertex 0 1 1.0009994506835938
      vertex 0 24 1.0009994506835938
    endloop
  endfacet
  facet normal -1 0 0
    outer loop
      vertex 0 0 0
      vertex 0 1 1.0009994506835938
      vertex 0 25 0
    endloop
  endfacet
  facet normal -1 0 0
    outer loop
      vertex 0 0 1.5002360343933105
      vertex 0 1 1.0009994506835938
      vertex 0 0 0
    endloop
  endfacet
  facet normal -1 0 0
    outer loop
      vertex 0 1 1.0009994506835938
      vertex 0 0 1.5002360343933105
      vertex 0 1 1.5002360343933105
    endloop
  endfacet
  facet normal -1 0 0
    outer loop
      vertex 0 25 1.5002360343933105
      vertex 0 24 1.0009994506835938
      vertex 0 24 1.5002360343933105
    endloop
  endfacet
  facet normal 0 1 0
    outer loop
      vertex 36 25 0
      vertex 35.999000549316406 25 10
      vertex 36 25 10
    endloop
  endfacet
  facet normal 0 1 0
    outer loop
      vertex 35.999000549316406 25 10
      vertex 36 25 0
      vertex 0 25 1.5002360343933105
    endloop
  endfacet
  facet normal 0 1 0
    outer loop
      vertex 0 25 1.5002360343933105
      vertex 36 25 0
      vertex 0 25 0
    endloop
  endfacet
  facet normal 0 -1 0
    outer loop
      vertex 36 0 0
      vertex 35.999000549316406 0 10
      vertex 0 0 1.5002360343933105
    endloop
  endfacet
  facet normal 0 -1 0
    outer loop
      vertex 36 0 0
      vertex 0 0 1.5002360343933105
      vertex 0 0 0
    endloop
  endfacet
  facet normal 0 -1 0
    outer loop
      vertex 35.999000549316406 0 10
      vertex 36 0 0
      vertex 36 0 10
    endloop
  endfacet
  facet normal -1 0 0
    outer loop
      vertex 34.999000549316406 1 1.0009994506835938
      vertex 34.999000549316406 24 9.763888359069824
      vertex 34.999000549316406 24 1.0009994506835938
    endloop
  endfacet
  facet normal -1 0 0
    outer loop
      vertex 34.999000549316406 24 9.763888359069824
      vertex 34.999000549316406 1 1.0009994506835938
      vertex 34.999000549316406 1 9.763888359069824
    endloop
  endfacet
  facet normal 0 0 1
    outer loop
      vertex 0 24 1.0009994506835938
      vertex 34.999000549316406 1 1.0009994506835938
      vertex 34.999000549316406 24 1.0009994506835938
    endloop
  endfacet
  facet normal 0 0 1
    outer loop
      vertex 34.999000549316406 1 1.0009994506835938
      vertex 0 24 1.0009994506835938
      vertex 0 1 1.0009994506835938
    endloop
  endfacet
  facet normal 0 -1 0
    outer loop
      vertex 34.999000549316406 24 1.0009994506835938
      vertex 0 24 1.5002360343933105
      vertex 0 24 1.0009994506835938
    endloop
  endfacet
  facet normal 0 -1 0
    outer loop
      vertex 0 24 1.5002360343933105
      vertex 34.999000549316406 24 1.0009994506835938
      vertex 34.999000549316406 24 9.763888359069824
    endloop
  endfacet
  facet normal 0 1 0
    outer loop
      vertex 34.999000549316406 1 1.0009994506835938
      vertex 0 1 1.5002360343933105
      vertex 34.999000549316406 1 9.763888359069824
    endloop
  endfacet
  facet normal 0 1 0
    outer loop
      vertex 0 1 1.5002360343933105
      vertex 34.999000549316406 1 1.0009994506835938
      vertex 0 1 1.0009994506835938
    endloop
  endfacet
  facet normal -0.2297931721685148 0 0.9732394864701757
    outer loop
      vertex 35.999000549316406 25 10
      vertex 34.999000549316406 24 9.763888359069824
      vertex 35.999000549316406 0 10
    endloop
  endfacet
  facet normal -0.2297926823991871 -5.170732712776521e-7 0.9732396021101479
    outer loop
      vertex 0 25 1.5002360343933105
      vertex 34.999000549316406 24 9.763888359069824
      vertex 35.999000549316406 25 10
    endloop
  endfacet
  facet normal -0.22979266840540716 0 0.9732396054143719
    outer loop
      vertex 34.999000549316406 24 9.763888359069824
      vertex 0 25 1.5002360343933105
      vertex 0 24 1.5002360343933105
    endloop
  endfacet
  facet normal -0.22979317216851478 0 0.9732394864701757
    outer loop
      vertex 34.999000549316406 1 9.763888359069824
      vertex 35.999000549316406 0 10
      vertex 34.999000549316406 24 9.763888359069824
    endloop
  endfacet
  facet normal -0.22979266840540716 0 0.9732396054143719
    outer loop
      vertex 0 0 1.5002360343933105
      vertex 34.999000549316406 1 9.763888359069824
      vertex 0 1 1.5002360343933105
    endloop
  endfacet
  facet normal -0.2297926823991871 5.170732712776521e-7 0.9732396021101479
    outer loop
      vertex 34.999000549316406 1 9.763888359069824
      vertex 0 0 1.5002360343933105
      vertex 35.999000549316406 0 10
    endloop
  endfacet
endsolid OpenSCAD_Model
