solid OpenSCAD_Model
  facet normal 1 0 0
    outer loop
      vertex 30 0 7
      vertex 30 25 0
      vertex 30 25 7
    endloop
  endfacet
  facet normal 1 0 0
    outer loop
      vertex 30 25 0
      vertex 30 0 7
      vertex 30 0 0
    endloop
  endfacet
  facet normal 0 0 1
    outer loop
      vertex 29.99900245666504 25 7
      vertex 30 0 7
      vertex 30 25 7
    endloop
  endfacet
  facet normal 0 0 1
    outer loop
      vertex 30 0 7
      vertex 29.99900245666504 25 7
      vertex 29.99900245666504 0 7
    endloop
  endfacet
  facet normal 0 0 -1
    outer loop
      vertex 0 0 0
      vertex 30 25 0
      vertex 30 0 0
    endloop
  endfacet
  facet normal 0 0 -1
    outer loop
      vertex 30 25 0
      vertex 0 0 0
      vertex 0 25 0
    endloop
  endfacet
  facet normal -1 0 0
    outer loop
      vertex 0 25 0
      vertex 0 24 1.0009994506835938
      vertex 0 25 1.5001832246780396
    endloop
  endfacet
  facet normal -1 0 0
    outer loop
      vertex 0 25 0
      vertex 0 1 1.0009994506835938
      vertex 0 24 1.0009994506835938
    endloop
  endfacet
  facet normal -1 0 0
    outer loop
      vertex 0 0 0
      vertex 0 1 1.0009994506835938
      vertex 0 25 0
    endloop
  endfacet
  facet normal -1 0 0
    outer loop
      vertex 0 0 1.5001832246780396
      vertex 0 1 1.0009994506835938
      vertex 0 0 0
    endloop
  endfacet
  facet normal -1 0 0
    outer loop
      vertex 0 1 1.0009994506835938
      vertex 0 0 1.5001832246780396
      vertex 0 1 1.5001832246780396
    endloop
  endfacet
  facet normal -1 0 0
    outer loop
      vertex 0 25 1.5001832246780396
      vertex 0 24 1.0009994506835938
      vertex 0 24 1.5001832246780396
    endloop
  endfacet
  facet normal 0 1 0
    outer loop
      vertex 30 25 0
      vertex 29.99900245666504 25 7
      vertex 30 25 7
    endloop
  endfacet
  facet normal 0 1 0
    outer loop
      vertex 29.99900245666504 25 7
      vertex 30 25 0
      vertex 0 25 1.5001832246780396
    endloop
  endfacet
  facet normal 0 1 0
    outer loop
      vertex 0 25 1.5001832246780396
      vertex 30 25 0
      vertex 0 25 0
    endloop
  endfacet
  facet normal 0 -1 0
    outer loop
      vertex 30 0 0
      vertex 29.99900245666504 0 7
      vertex 0 0 1.5001832246780396
    endloop
  endfacet
  facet normal 0 -1 0
    outer loop
      vertex 30 0 0
      vertex 0 0 1.5001832246780396
      vertex 0 0 0
    endloop
  endfacet
  facet normal 0 -1 0
    outer loop
      vertex 29.99900245666504 0 7
      vertex 30 0 0
      vertex 30 0 7
    endloop
  endfacet
  facet normal -1 0 0
    outer loop
      vertex 28.999000549316406 1 1.0009994506835938
      vertex 28.999000549316406 24 6.816666126251221
      vertex 28.999000549316406 24 1.0009994506835938
    endloop
  endfacet
  facet normal -1 0 0
    outer loop
      vertex 28.999000549316406 24 6.816666126251221
      vertex 28.999000549316406 1 1.0009994506835938
      vertex 28.999000549316406 1 6.816666126251221
    endloop
  endfacet
  facet normal 0 0 1
    outer loop
      vertex 0 24 1.0009994506835938
      vertex 28.999000549316406 1 1.0009994506835938
      vertex 28.999000549316406 24 1.0009994506835938
    endloop
  endfacet
  facet normal 0 0 1
    outer loop
      vertex 28.999000549316406 1 1.0009994506835938
      vertex 0 24 1.0009994506835938
      vertex 0 1 1.0009994506835938
    endloop
  endfacet
  facet normal 0 -1 0
    outer loop
      vertex 28.999000549316406 24 1.0009994506835938
      vertex 0 24 1.5001832246780396
      vertex 0 24 1.0009994506835938
    endloop
  endfacet
  facet normal 0 -1 0
    outer loop
      vertex 0 24 1.5001832246780396
      vertex 28.999000549316406 24 1.0009994506835938
      vertex 28.999000549316406 24 6.816666126251221
    endloop
  endfacet
  facet normal 0 1 0
    outer loop
      vertex 28.999000549316406 1 1.0009994506835938
      vertex 0 1 1.5001832246780396
      vertex 28.999000549316406 1 6.816666126251221
    endloop
  endfacet
  facet normal 0 1 0
    outer loop
      vertex 0 1 1.5001832246780396
      vertex 28.999000549316406 1 1.0009994506835938
      vertex 0 1 1.0009994506835938
    endloop
  endfacet
  facet normal -0.18032805035950059 0 0.983606524100741
    outer loop
      vertex 29.99900245666504 25 7
      vertex 28.999000549316406 24 6.816666126251221
      vertex 29.99900245666504 0 7
    endloop
  endfacet
  facet normal -0.18032785801206985 -1.988128269748029e-7 0.9836065593644336
    outer loop
      vertex 0 25 1.5001832246780396
      vertex 28.999000549316406 24 6.816666126251221
      vertex 29.99900245666504 25 7
    endloop
  endfacet
  facet normal -0.18032785137916194 0 0.9836065605804869
    outer loop
      vertex 28.999000549316406 24 6.816666126251221
      vertex 0 25 1.5001832246780396
      vertex 0 24 1.5001832246780396
    endloop
  endfacet
  facet normal -0.18032805035950056 0 0.9836065241007409
    outer loop
      vertex 28.999000549316406 1 6.816666126251221
      vertex 29.99900245666504 0 7
      vertex 28.999000549316406 24 6.816666126251221
    endloop
  endfacet
  facet normal -0.18032785137916194 0 0.9836065605804869
    outer loop
      vertex 0 0 1.5001832246780396
      vertex 28.999000549316406 1 6.816666126251221
      vertex 0 1 1.5001832246780396
    endloop
  endfacet
  facet normal -0.18032785801206985 1.988128269748029e-7 0.9836065593644336
    outer loop
      vertex 28.999000549316406 1 6.816666126251221
      vertex 0 0 1.5001832246780396
      vertex 29.99900245666504 0 7
    endloop
  endfacet
endsolid OpenSCAD_Model
