solid OpenSCAD_Model
  facet normal 1 0 0
    outer loop
      vertex -25.55 36 -3.9
      vertex -25.55 32.3604 -3.9
      vertex -25.55 36 -4
    endloop
  endfacet
  facet normal 1 -0 0
    outer loop
      vertex -25.55 36 -4
      vertex -25.55 40 -6.3
      vertex -25.55 40 -4
    endloop
  endfacet
  facet normal 1 0 0
    outer loop
      vertex -25.55 32.3604 -6.3
      vertex -25.55 36 -4
      vertex -25.55 32.3604 -3.9
    endloop
  endfacet
  facet normal 1 0 0
    outer loop
      vertex -25.55 36 -4
      vertex -25.55 32.3604 -6.3
      vertex -25.55 40 -6.3
    endloop
  endfacet
  facet normal 1 -0 0
    outer loop
      vertex -25.55 10 -3.9
      vertex -25.55 29.4396 -6.3
      vertex -25.55 29.4396 -3.9
    endloop
  endfacet
  facet normal 1 0 0
    outer loop
      vertex -25.55 29.4396 -6.3
      vertex -25.55 10 -3.9
      vertex -25.55 10 -6.3
    endloop
  endfacet
  facet normal -1 0 0
    outer loop
      vertex -2.25 40 -6.3
      vertex -2.25 36 -4
      vertex -2.25 40 -4
    endloop
  endfacet
  facet normal -1 0 0
    outer loop
      vertex -2.25 32.3604 -6.3
      vertex -2.25 36 -4
      vertex -2.25 40 -6.3
    endloop
  endfacet
  facet normal -1 0 0
    outer loop
      vertex -2.25 32.3604 -3.9
      vertex -2.25 36 -4
      vertex -2.25 32.3604 -6.3
    endloop
  endfacet
  facet normal -1 0 0
    outer loop
      vertex -2.25 36 -4
      vertex -2.25 32.3604 -3.9
      vertex -2.25 36 -3.9
    endloop
  endfacet
  facet normal -1 0 0
    outer loop
      vertex -2.25 10 -6.3
      vertex -2.25 29.4396 -3.9
      vertex -2.25 29.4396 -6.3
    endloop
  endfacet
  facet normal -1 -0 0
    outer loop
      vertex -2.25 29.4396 -3.9
      vertex -2.25 10 -6.3
      vertex -2.25 10 -3.9
    endloop
  endfacet
  facet normal 0 -1 0
    outer loop
      vertex -2.65 36 -4
      vertex -2.25 36 -3.9
      vertex -2.65 36 -3.9
    endloop
  endfacet
  facet normal 0 -1 -0
    outer loop
      vertex -2.25 36 -3.9
      vertex -2.65 36 -4
      vertex -2.25 36 -4
    endloop
  endfacet
  facet normal 0 -1 0
    outer loop
      vertex -25.55 36 -4
      vertex -25.15 36 -3.9
      vertex -25.55 36 -3.9
    endloop
  endfacet
  facet normal 0 -1 -0
    outer loop
      vertex -25.15 36 -3.9
      vertex -25.55 36 -4
      vertex -25.15 36 -4
    endloop
  endfacet
  facet normal 0 1 -0
    outer loop
      vertex -2.25 10 -6.3
      vertex -7.71 10 -3.9
      vertex -2.25 10 -3.9
    endloop
  endfacet
  facet normal 0 1 0
    outer loop
      vertex -7.71 10 -3.9
      vertex -2.25 10 -6.3
      vertex -7.71 10 -6.3
    endloop
  endfacet
  facet normal 0 1 -0
    outer loop
      vertex -19.87 10 -6.3
      vertex -25.55 10 -3.9
      vertex -19.87 10 -3.9
    endloop
  endfacet
  facet normal 0 1 0
    outer loop
      vertex -25.55 10 -3.9
      vertex -19.87 10 -6.3
      vertex -25.55 10 -6.3
    endloop
  endfacet
  facet normal 1 0 0
    outer loop
      vertex -25.15 46 -3.9
      vertex -25.15 40 -4
      vertex -25.15 46 -4.4
    endloop
  endfacet
  facet normal 1 -0 0
    outer loop
      vertex -25.15 36 -3.9
      vertex -25.15 40 -4
      vertex -25.15 46 -3.9
    endloop
  endfacet
  facet normal 1 0 0
    outer loop
      vertex -25.15 40 -4
      vertex -25.15 36 -3.9
      vertex -25.15 36 -4
    endloop
  endfacet
  facet normal 1 0 0
    outer loop
      vertex -25.15 46 -4.4
      vertex -25.15 40 -4
      vertex -25.15 40 -4.4
    endloop
  endfacet
  facet normal -0 0 1
    outer loop
      vertex -25.15 46 -4.4
      vertex -2.65 40 -4.4
      vertex -2.65 46 -4.4
    endloop
  endfacet
  facet normal 0 0 1
    outer loop
      vertex -2.65 40 -4.4
      vertex -25.15 46 -4.4
      vertex -25.15 40 -4.4
    endloop
  endfacet
  facet normal -1 0 0
    outer loop
      vertex -2.65 40 -4
      vertex -2.65 46 -4.4
      vertex -2.65 40 -4.4
    endloop
  endfacet
  facet normal -1 0 0
    outer loop
      vertex -2.65 46 -4.4
      vertex -2.65 40 -4
      vertex -2.65 46 -3.9
    endloop
  endfacet
  facet normal -1 0 0
    outer loop
      vertex -2.65 36 -3.9
      vertex -2.65 40 -4
      vertex -2.65 36 -4
    endloop
  endfacet
  facet normal -1 0 0
    outer loop
      vertex -2.65 40 -4
      vertex -2.65 36 -3.9
      vertex -2.65 46 -3.9
    endloop
  endfacet
  facet normal 0 0 1
    outer loop
      vertex -2.25 40 -6.3
      vertex -2.5 32.4 -6.3
      vertex -2.25 32.3604 -6.3
    endloop
  endfacet
  facet normal 0 0 1
    outer loop
      vertex -2.25 40 -6.3
      vertex -2.96352 32.3266 -6.3
      vertex -2.5 32.4 -6.3
    endloop
  endfacet
  facet normal 0 0 1
    outer loop
      vertex -2.25 40 -6.3
      vertex -3.38168 32.1135 -6.3
      vertex -2.96352 32.3266 -6.3
    endloop
  endfacet
  facet normal 0 0 1
    outer loop
      vertex -2.25 40 -6.3
      vertex -3.71352 31.7817 -6.3
      vertex -3.38168 32.1135 -6.3
    endloop
  endfacet
  facet normal 0 0 1
    outer loop
      vertex -24.0865 31.7817 -6.3
      vertex -3.71352 31.7817 -6.3
      vertex -2.25 40 -6.3
    endloop
  endfacet
  facet normal 0 0 1
    outer loop
      vertex -23.8 30.9 -6.3
      vertex -4 30.9 -6.3
      vertex -3.92658 31.3635 -6.3
    endloop
  endfacet
  facet normal 0 0 1
    outer loop
      vertex -3.71352 31.7817 -6.3
      vertex -24.0865 31.7817 -6.3
      vertex -3.92658 31.3635 -6.3
    endloop
  endfacet
  facet normal 0 0 1
    outer loop
      vertex -4 30.9 -6.3
      vertex -23.8 30.9 -6.3
      vertex -23.8734 30.4365 -6.3
    endloop
  endfacet
  facet normal 0 0 1
    outer loop
      vertex -7.71 15.58 -6.3
      vertex -23.8734 30.4365 -6.3
      vertex -19.87 15.58 -6.3
    endloop
  endfacet
  facet normal 0 0 1
    outer loop
      vertex -4 30.9 -6.3
      vertex -23.8734 30.4365 -6.3
      vertex -7.71 15.58 -6.3
    endloop
  endfacet
  facet normal 0 0 1
    outer loop
      vertex -3.92658 31.3635 -6.3
      vertex -23.8734 31.3635 -6.3
      vertex -23.8 30.9 -6.3
    endloop
  endfacet
  facet normal 0 0 1
    outer loop
      vertex -3.92658 31.3635 -6.3
      vertex -24.0865 31.7817 -6.3
      vertex -23.8734 31.3635 -6.3
    endloop
  endfacet
  facet normal -0 0 1
    outer loop
      vertex -25.55 40 -6.3
      vertex -24.0865 31.7817 -6.3
      vertex -2.25 40 -6.3
    endloop
  endfacet
  facet normal 0 0 1
    outer loop
      vertex -24.0865 31.7817 -6.3
      vertex -25.55 40 -6.3
      vertex -24.4183 32.1135 -6.3
    endloop
  endfacet
  facet normal 0 0 1
    outer loop
      vertex -24.4183 32.1135 -6.3
      vertex -25.55 40 -6.3
      vertex -24.8365 32.3266 -6.3
    endloop
  endfacet
  facet normal 0 0 1
    outer loop
      vertex -24.8365 32.3266 -6.3
      vertex -25.55 40 -6.3
      vertex -25.3 32.4 -6.3
    endloop
  endfacet
  facet normal 0 0 1
    outer loop
      vertex -25.3 32.4 -6.3
      vertex -25.55 40 -6.3
      vertex -25.55 32.3604 -6.3
    endloop
  endfacet
  facet normal 0 0 1
    outer loop
      vertex -7.71 15.58 -6.3
      vertex -2.25 29.4396 -6.3
      vertex -2.5 29.4 -6.3
    endloop
  endfacet
  facet normal 0 0 1
    outer loop
      vertex -7.71 15.58 -6.3
      vertex -2.5 29.4 -6.3
      vertex -2.96352 29.4734 -6.3
    endloop
  endfacet
  facet normal 0 0 1
    outer loop
      vertex -7.71 15.58 -6.3
      vertex -2.96352 29.4734 -6.3
      vertex -3.38168 29.6865 -6.3
    endloop
  endfacet
  facet normal 0 0 1
    outer loop
      vertex -7.71 15.58 -6.3
      vertex -3.38168 29.6865 -6.3
      vertex -3.71352 30.0183 -6.3
    endloop
  endfacet
  facet normal 0 0 1
    outer loop
      vertex -7.71 15.58 -6.3
      vertex -3.71352 30.0183 -6.3
      vertex -3.92658 30.4365 -6.3
    endloop
  endfacet
  facet normal 0 0 1
    outer loop
      vertex -7.71 15.58 -6.3
      vertex -3.92658 30.4365 -6.3
      vertex -4 30.9 -6.3
    endloop
  endfacet
  facet normal 0 0 1
    outer loop
      vertex -2.25 29.4396 -6.3
      vertex -7.71 15.58 -6.3
      vertex -2.25 10 -6.3
    endloop
  endfacet
  facet normal 0 0 1
    outer loop
      vertex -2.25 10 -6.3
      vertex -7.71 15.58 -6.3
      vertex -7.71 10 -6.3
    endloop
  endfacet
  facet normal -0 0 1
    outer loop
      vertex -24.0865 30.0183 -6.3
      vertex -19.87 15.58 -6.3
      vertex -23.8734 30.4365 -6.3
    endloop
  endfacet
  facet normal -0 0 1
    outer loop
      vertex -24.4183 29.6865 -6.3
      vertex -19.87 15.58 -6.3
      vertex -24.0865 30.0183 -6.3
    endloop
  endfacet
  facet normal -0 0 1
    outer loop
      vertex -24.8365 29.4734 -6.3
      vertex -19.87 15.58 -6.3
      vertex -24.4183 29.6865 -6.3
    endloop
  endfacet
  facet normal -0 0 1
    outer loop
      vertex -25.3 29.4 -6.3
      vertex -19.87 15.58 -6.3
      vertex -24.8365 29.4734 -6.3
    endloop
  endfacet
  facet normal 0 0 1
    outer loop
      vertex -25.55 29.4396 -6.3
      vertex -19.87 15.58 -6.3
      vertex -25.3 29.4 -6.3
    endloop
  endfacet
  facet normal 0 0 1
    outer loop
      vertex -19.87 15.58 -6.3
      vertex -25.55 29.4396 -6.3
      vertex -25.55 10 -6.3
    endloop
  endfacet
  facet normal 0 0 1
    outer loop
      vertex -19.87 15.58 -6.3
      vertex -25.55 10 -6.3
      vertex -19.87 10 -6.3
    endloop
  endfacet
  facet normal 0 0 -1
    outer loop
      vertex -25.55 36 -4
      vertex -25.15 40 -4
      vertex -25.15 36 -4
    endloop
  endfacet
  facet normal -0 0 -1
    outer loop
      vertex -25.15 40 -4
      vertex -25.55 36 -4
      vertex -25.55 40 -4
    endloop
  endfacet
  facet normal 0 0 -1
    outer loop
      vertex -2.65 36 -4
      vertex -2.25 40 -4
      vertex -2.25 36 -4
    endloop
  endfacet
  facet normal -0 0 -1
    outer loop
      vertex -2.25 40 -4
      vertex -2.65 36 -4
      vertex -2.65 40 -4
    endloop
  endfacet
  facet normal 0 -1 0
    outer loop
      vertex -25.55 40 -4
      vertex -25.15 40 -4.4
      vertex -25.15 40 -4
    endloop
  endfacet
  facet normal 0 -1 -0
    outer loop
      vertex -25.15 40 -4.4
      vertex -25.55 40 -6.3
      vertex -2.65 40 -4.4
    endloop
  endfacet
  facet normal 0 -1 0
    outer loop
      vertex -25.55 40 -6.3
      vertex -25.15 40 -4.4
      vertex -25.55 40 -4
    endloop
  endfacet
  facet normal 0 -1 0
    outer loop
      vertex -2.65 40 -4.4
      vertex -2.25 40 -4
      vertex -2.65 40 -4
    endloop
  endfacet
  facet normal 0 -1 0
    outer loop
      vertex -2.65 40 -4.4
      vertex -2.25 40 -6.3
      vertex -2.25 40 -4
    endloop
  endfacet
  facet normal 0 -1 0
    outer loop
      vertex -2.25 40 -6.3
      vertex -2.65 40 -4.4
      vertex -25.55 40 -6.3
    endloop
  endfacet
  facet normal -1 0 0
    outer loop
      vertex -27.8 0 -11.68
      vertex -27.8 46 -3.9
      vertex -27.8 46 -11.68
    endloop
  endfacet
  facet normal -1 -0 0
    outer loop
      vertex -27.8 46 -3.9
      vertex -27.8 0 -11.68
      vertex -27.8 0 -3.9
    endloop
  endfacet
  facet normal 0 0 -1
    outer loop
      vertex -27.8 0 -11.68
      vertex 0 46 -11.68
      vertex 0 0 -11.68
    endloop
  endfacet
  facet normal -0 0 -1
    outer loop
      vertex 0 46 -11.68
      vertex -27.8 0 -11.68
      vertex -27.8 46 -11.68
    endloop
  endfacet
  facet normal 1 -0 0
    outer loop
      vertex 0 0 -3.9
      vertex 0 46 -11.68
      vertex 0 46 -3.9
    endloop
  endfacet
  facet normal 1 0 0
    outer loop
      vertex 0 46 -11.68
      vertex 0 0 -3.9
      vertex 0 0 -11.68
    endloop
  endfacet
  facet normal 0 1 0
    outer loop
      vertex 0 46 -3.9
      vertex -2.65 46 -4.4
      vertex -2.65 46 -3.9
    endloop
  endfacet
  facet normal 0 1 0
    outer loop
      vertex -2.65 46 -4.4
      vertex 0 46 -11.68
      vertex -25.15 46 -4.4
    endloop
  endfacet
  facet normal 0 1 -0
    outer loop
      vertex 0 46 -11.68
      vertex -2.65 46 -4.4
      vertex 0 46 -3.9
    endloop
  endfacet
  facet normal 0 1 -0
    outer loop
      vertex -25.15 46 -4.4
      vertex -27.8 46 -3.9
      vertex -25.15 46 -3.9
    endloop
  endfacet
  facet normal 0 1 0
    outer loop
      vertex -27.8 46 -11.68
      vertex -25.15 46 -4.4
      vertex 0 46 -11.68
    endloop
  endfacet
  facet normal 0 1 0
    outer loop
      vertex -25.15 46 -4.4
      vertex -27.8 46 -11.68
      vertex -27.8 46 -3.9
    endloop
  endfacet
  facet normal 0 -1 0
    outer loop
      vertex -27.8 0 -3.9
      vertex -19.87 0 -6.9
      vertex -19.87 0 -3.9
    endloop
  endfacet
  facet normal 0 -1 0
    outer loop
      vertex -19.87 0 -6.9
      vertex -15.29 0 -7.08
      vertex -15.2615 0 -6.9
    endloop
  endfacet
  facet normal 0 -1 0
    outer loop
      vertex -19.87 0 -6.9
      vertex -15.2166 0 -7.54352
      vertex -15.29 0 -7.08
    endloop
  endfacet
  facet normal 0 -1 0
    outer loop
      vertex -19.87 0 -6.9
      vertex -15.0035 0 -7.96168
      vertex -15.2166 0 -7.54352
    endloop
  endfacet
  facet normal 0 -1 0
    outer loop
      vertex -19.87 0 -6.9
      vertex -14.6717 0 -8.29352
      vertex -15.0035 0 -7.96168
    endloop
  endfacet
  facet normal 0 -1 0
    outer loop
      vertex -27.8 0 -11.68
      vertex -14.6717 0 -8.29352
      vertex -19.87 0 -6.9
    endloop
  endfacet
  facet normal 0 -1 -0
    outer loop
      vertex -14.2535 0 -8.50658
      vertex -27.8 0 -11.68
      vertex -13.79 0 -8.58
    endloop
  endfacet
  facet normal 0 -1 -0
    outer loop
      vertex -14.6717 0 -8.29352
      vertex -27.8 0 -11.68
      vertex -14.2535 0 -8.50658
    endloop
  endfacet
  facet normal 0 -1 0
    outer loop
      vertex -27.8 0 -11.68
      vertex -19.87 0 -6.9
      vertex -27.8 0 -3.9
    endloop
  endfacet
  facet normal 0 -1 0
    outer loop
      vertex -12.3185 0 -6.9
      vertex -12.29 0 -7.08
      vertex -7.71 0 -6.9
    endloop
  endfacet
  facet normal 0 -1 0
    outer loop
      vertex -7.71 0 -6.9
      vertex 0 0 -3.9
      vertex -7.71 0 -3.9
    endloop
  endfacet
  facet normal 0 -1 0
    outer loop
      vertex -12.3634 0 -7.54352
      vertex -7.71 0 -6.9
      vertex -12.29 0 -7.08
    endloop
  endfacet
  facet normal 0 -1 0
    outer loop
      vertex -12.5765 0 -7.96168
      vertex -7.71 0 -6.9
      vertex -12.3634 0 -7.54352
    endloop
  endfacet
  facet normal 0 -1 0
    outer loop
      vertex -12.9083 0 -8.29352
      vertex -7.71 0 -6.9
      vertex -12.5765 0 -7.96168
    endloop
  endfacet
  facet normal 0 -1 0
    outer loop
      vertex 0 0 -11.68
      vertex -12.9083 0 -8.29352
      vertex -13.3265 0 -8.50658
    endloop
  endfacet
  facet normal 0 -1 0
    outer loop
      vertex 0 0 -11.68
      vertex -13.79 0 -8.58
      vertex -27.8 0 -11.68
    endloop
  endfacet
  facet normal 0 -1 0
    outer loop
      vertex -7.71 0 -6.9
      vertex 0 0 -11.68
      vertex 0 0 -3.9
    endloop
  endfacet
  facet normal 0 -1 0
    outer loop
      vertex -12.9083 0 -8.29352
      vertex 0 0 -11.68
      vertex -7.71 0 -6.9
    endloop
  endfacet
  facet normal 0 -1 0
    outer loop
      vertex -13.79 0 -8.58
      vertex 0 0 -11.68
      vertex -13.3265 0 -8.50658
    endloop
  endfacet
  facet normal 0.891027 -0.453951 0
    outer loop
      vertex -3.92658 31.3635 -6.3
      vertex -3.71352 31.7817 -10.68
      vertex -3.71352 31.7817 -6.3
    endloop
  endfacet
  facet normal 0.891027 -0.453951 0
    outer loop
      vertex -3.71352 31.7817 -10.68
      vertex -3.92658 31.3635 -6.3
      vertex -3.92658 31.3635 -10.68
    endloop
  endfacet
  facet normal 0.987685 -0.156453 0
    outer loop
      vertex -4 30.9 -6.3
      vertex -3.92658 31.3635 -10.68
      vertex -3.92658 31.3635 -6.3
    endloop
  endfacet
  facet normal 0.987685 -0.156453 0
    outer loop
      vertex -3.92658 31.3635 -10.68
      vertex -4 30.9 -6.3
      vertex -4 30.9 -10.68
    endloop
  endfacet
  facet normal 0.707064 -0.707149 0
    outer loop
      vertex -3.71352 31.7817 -6.3
      vertex -3.38168 32.1135 -10.68
      vertex -3.38168 32.1135 -6.3
    endloop
  endfacet
  facet normal 0.707064 -0.707149 0
    outer loop
      vertex -3.38168 32.1135 -10.68
      vertex -3.71352 31.7817 -6.3
      vertex -3.71352 31.7817 -10.68
    endloop
  endfacet
  facet normal -0.987689 0.156432 0
    outer loop
      vertex -1.07341 30.4365 -10.68
      vertex -1 30.9 -3.9
      vertex -1 30.9 -10.68
    endloop
  endfacet
  facet normal -0.987689 0.156432 0
    outer loop
      vertex -1 30.9 -3.9
      vertex -1.07341 30.4365 -10.68
      vertex -1.07341 30.4365 -3.9
    endloop
  endfacet
  facet normal 0.454053 0.890975 -0
    outer loop
      vertex -2.96352 29.4734 -10.68
      vertex -3.38168 29.6865 -6.3
      vertex -2.96352 29.4734 -6.3
    endloop
  endfacet
  facet normal 0.454053 0.890975 0
    outer loop
      vertex -3.38168 29.6865 -6.3
      vertex -2.96352 29.4734 -10.68
      vertex -3.38168 29.6865 -10.68
    endloop
  endfacet
  facet normal 0.891027 0.453951 0
    outer loop
      vertex -3.71352 30.0183 -6.3
      vertex -3.92658 30.4365 -10.68
      vertex -3.92658 30.4365 -6.3
    endloop
  endfacet
  facet normal 0.891027 0.453951 0
    outer loop
      vertex -3.92658 30.4365 -10.68
      vertex -3.71352 30.0183 -6.3
      vertex -3.71352 30.0183 -10.68
    endloop
  endfacet
  facet normal 0.454053 -0.890975 0
    outer loop
      vertex -3.38168 32.1135 -10.68
      vertex -2.96352 32.3266 -6.3
      vertex -3.38168 32.1135 -6.3
    endloop
  endfacet
  facet normal 0.454053 -0.890975 0
    outer loop
      vertex -2.96352 32.3266 -6.3
      vertex -3.38168 32.1135 -10.68
      vertex -2.96352 32.3266 -10.68
    endloop
  endfacet
  facet normal -0.707054 -0.70716 0
    outer loop
      vertex -1.28647 31.7817 -10.68
      vertex -1.61832 32.1135 -3.9
      vertex -1.61832 32.1135 -10.68
    endloop
  endfacet
  facet normal -0.707054 -0.70716 0
    outer loop
      vertex -1.61832 32.1135 -3.9
      vertex -1.28647 31.7817 -10.68
      vertex -1.28647 31.7817 -3.9
    endloop
  endfacet
  facet normal -0.156449 -0.987686 -0
    outer loop
      vertex -2.5 32.4 -6.3
      vertex -2.5 32.4 -10.68
      vertex -2.25 32.3604 -6.3
    endloop
  endfacet
  facet normal -0.156345 -0.987703 0
    outer loop
      vertex -2.25 32.3604 -6.3
      vertex -2.03647 32.3266 -3.9
      vertex -2.25 32.3604 -3.9
    endloop
  endfacet
  facet normal -0.156401 -0.987694 -2.81578e-06
    outer loop
      vertex -2.03647 32.3266 -10.68
      vertex -2.25 32.3604 -6.3
      vertex -2.5 32.4 -10.68
    endloop
  endfacet
  facet normal -0.156345 -0.987703 0
    outer loop
      vertex -2.25 32.3604 -6.3
      vertex -2.03647 32.3266 -10.68
      vertex -2.03647 32.3266 -3.9
    endloop
  endfacet
  facet normal -0.454061 -0.89097 0
    outer loop
      vertex -2.03647 32.3266 -10.68
      vertex -1.61832 32.1135 -3.9
      vertex -2.03647 32.3266 -3.9
    endloop
  endfacet
  facet normal -0.454061 -0.89097 -0
    outer loop
      vertex -1.61832 32.1135 -3.9
      vertex -2.03647 32.3266 -10.68
      vertex -1.61832 32.1135 -10.68
    endloop
  endfacet
  facet normal -0.156345 0.987703 0
    outer loop
      vertex -2.03647 29.4734 -3.9
      vertex -2.25 29.4396 -6.3
      vertex -2.25 29.4396 -3.9
    endloop
  endfacet
  facet normal -0.156345 0.987703 0
    outer loop
      vertex -2.03647 29.4734 -10.68
      vertex -2.25 29.4396 -6.3
      vertex -2.03647 29.4734 -3.9
    endloop
  endfacet
  facet normal -0.156401 0.987694 -2.81578e-06
    outer loop
      vertex -2.5 29.4 -10.68
      vertex -2.25 29.4396 -6.3
      vertex -2.03647 29.4734 -10.68
    endloop
  endfacet
  facet normal -0.156449 0.987686 0
    outer loop
      vertex -2.25 29.4396 -6.3
      vertex -2.5 29.4 -10.68
      vertex -2.5 29.4 -6.3
    endloop
  endfacet
  facet normal -0.454061 0.89097 0
    outer loop
      vertex -1.61832 29.6865 -10.68
      vertex -2.03647 29.4734 -3.9
      vertex -1.61832 29.6865 -3.9
    endloop
  endfacet
  facet normal -0.454061 0.89097 0
    outer loop
      vertex -2.03647 29.4734 -3.9
      vertex -1.61832 29.6865 -10.68
      vertex -2.03647 29.4734 -10.68
    endloop
  endfacet
  facet normal 0.987685 0.156453 0
    outer loop
      vertex -3.92658 30.4365 -6.3
      vertex -4 30.9 -10.68
      vertex -4 30.9 -6.3
    endloop
  endfacet
  facet normal 0.987685 0.156453 0
    outer loop
      vertex -4 30.9 -10.68
      vertex -3.92658 30.4365 -6.3
      vertex -3.92658 30.4365 -10.68
    endloop
  endfacet
  facet normal -0.891027 0.453951 0
    outer loop
      vertex -1.28647 30.0183 -10.68
      vertex -1.07341 30.4365 -3.9
      vertex -1.07341 30.4365 -10.68
    endloop
  endfacet
  facet normal -0.891027 0.453951 0
    outer loop
      vertex -1.07341 30.4365 -3.9
      vertex -1.28647 30.0183 -10.68
      vertex -1.28647 30.0183 -3.9
    endloop
  endfacet
  facet normal -0.891027 -0.453951 0
    outer loop
      vertex -1.07341 31.3635 -10.68
      vertex -1.28647 31.7817 -3.9
      vertex -1.28647 31.7817 -10.68
    endloop
  endfacet
  facet normal -0.891027 -0.453951 0
    outer loop
      vertex -1.28647 31.7817 -3.9
      vertex -1.07341 31.3635 -10.68
      vertex -1.07341 31.3635 -3.9
    endloop
  endfacet
  facet normal 0 0 1
    outer loop
      vertex -1.07341 31.3635 -10.68
      vertex -1.07341 30.4365 -10.68
      vertex -1 30.9 -10.68
    endloop
  endfacet
  facet normal 0 0 1
    outer loop
      vertex -1.28647 31.7817 -10.68
      vertex -1.07341 30.4365 -10.68
      vertex -1.07341 31.3635 -10.68
    endloop
  endfacet
  facet normal 0 0 1
    outer loop
      vertex -1.28647 31.7817 -10.68
      vertex -1.28647 30.0183 -10.68
      vertex -1.07341 30.4365 -10.68
    endloop
  endfacet
  facet normal 0 0 1
    outer loop
      vertex -1.61832 32.1135 -10.68
      vertex -1.28647 30.0183 -10.68
      vertex -1.28647 31.7817 -10.68
    endloop
  endfacet
  facet normal 0 0 1
    outer loop
      vertex -1.61832 32.1135 -10.68
      vertex -1.61832 29.6865 -10.68
      vertex -1.28647 30.0183 -10.68
    endloop
  endfacet
  facet normal 0 0 1
    outer loop
      vertex -2.03647 32.3266 -10.68
      vertex -1.61832 29.6865 -10.68
      vertex -1.61832 32.1135 -10.68
    endloop
  endfacet
  facet normal 0 0 1
    outer loop
      vertex -2.03647 32.3266 -10.68
      vertex -2.03647 29.4734 -10.68
      vertex -1.61832 29.6865 -10.68
    endloop
  endfacet
  facet normal 0 0 1
    outer loop
      vertex -2.5 32.4 -10.68
      vertex -2.03647 29.4734 -10.68
      vertex -2.03647 32.3266 -10.68
    endloop
  endfacet
  facet normal 0 0 1
    outer loop
      vertex -2.5 32.4 -10.68
      vertex -2.5 29.4 -10.68
      vertex -2.03647 29.4734 -10.68
    endloop
  endfacet
  facet normal -0 0 1
    outer loop
      vertex -2.96352 32.3266 -10.68
      vertex -2.5 29.4 -10.68
      vertex -2.5 32.4 -10.68
    endloop
  endfacet
  facet normal 0 0 1
    outer loop
      vertex -2.96352 32.3266 -10.68
      vertex -2.96352 29.4734 -10.68
      vertex -2.5 29.4 -10.68
    endloop
  endfacet
  facet normal -0 0 1
    outer loop
      vertex -3.38168 32.1135 -10.68
      vertex -2.96352 29.4734 -10.68
      vertex -2.96352 32.3266 -10.68
    endloop
  endfacet
  facet normal 0 0 1
    outer loop
      vertex -3.38168 32.1135 -10.68
      vertex -3.38168 29.6865 -10.68
      vertex -2.96352 29.4734 -10.68
    endloop
  endfacet
  facet normal -0 0 1
    outer loop
      vertex -3.71352 31.7817 -10.68
      vertex -3.38168 29.6865 -10.68
      vertex -3.38168 32.1135 -10.68
    endloop
  endfacet
  facet normal 0 0 1
    outer loop
      vertex -3.71352 31.7817 -10.68
      vertex -3.71352 30.0183 -10.68
      vertex -3.38168 29.6865 -10.68
    endloop
  endfacet
  facet normal -0 0 1
    outer loop
      vertex -3.92658 31.3635 -10.68
      vertex -3.71352 30.0183 -10.68
      vertex -3.71352 31.7817 -10.68
    endloop
  endfacet
  facet normal 0 0 1
    outer loop
      vertex -3.92658 31.3635 -10.68
      vertex -3.92658 30.4365 -10.68
      vertex -3.71352 30.0183 -10.68
    endloop
  endfacet
  facet normal 0 -0 1
    outer loop
      vertex -3.92658 30.4365 -10.68
      vertex -3.92658 31.3635 -10.68
      vertex -4 30.9 -10.68
    endloop
  endfacet
  facet normal 0.156405 0.987693 -0
    outer loop
      vertex -2.5 29.4 -10.68
      vertex -2.96352 29.4734 -6.3
      vertex -2.5 29.4 -6.3
    endloop
  endfacet
  facet normal 0.156405 0.987693 0
    outer loop
      vertex -2.96352 29.4734 -6.3
      vertex -2.5 29.4 -10.68
      vertex -2.96352 29.4734 -10.68
    endloop
  endfacet
  facet normal -0.987689 -0.156432 0
    outer loop
      vertex -1 30.9 -10.68
      vertex -1.07341 31.3635 -3.9
      vertex -1.07341 31.3635 -10.68
    endloop
  endfacet
  facet normal -0.987689 -0.156432 0
    outer loop
      vertex -1.07341 31.3635 -3.9
      vertex -1 30.9 -10.68
      vertex -1 30.9 -3.9
    endloop
  endfacet
  facet normal -0.707054 0.70716 0
    outer loop
      vertex -1.61832 29.6865 -10.68
      vertex -1.28647 30.0183 -3.9
      vertex -1.28647 30.0183 -10.68
    endloop
  endfacet
  facet normal -0.707054 0.70716 0
    outer loop
      vertex -1.28647 30.0183 -3.9
      vertex -1.61832 29.6865 -10.68
      vertex -1.61832 29.6865 -3.9
    endloop
  endfacet
  facet normal 0.156405 -0.987693 0
    outer loop
      vertex -2.96352 32.3266 -10.68
      vertex -2.5 32.4 -6.3
      vertex -2.96352 32.3266 -6.3
    endloop
  endfacet
  facet normal 0.156405 -0.987693 0
    outer loop
      vertex -2.5 32.4 -6.3
      vertex -2.96352 32.3266 -10.68
      vertex -2.5 32.4 -10.68
    endloop
  endfacet
  facet normal 0.707064 0.707149 0
    outer loop
      vertex -3.38168 29.6865 -6.3
      vertex -3.71352 30.0183 -10.68
      vertex -3.71352 30.0183 -6.3
    endloop
  endfacet
  facet normal 0.707064 0.707149 0
    outer loop
      vertex -3.71352 30.0183 -10.68
      vertex -3.38168 29.6865 -6.3
      vertex -3.38168 29.6865 -10.68
    endloop
  endfacet
  facet normal 0.890992 -0.454018 0
    outer loop
      vertex -26.7266 31.3635 -3.9
      vertex -26.5135 31.7817 -10.68
      vertex -26.5135 31.7817 -3.9
    endloop
  endfacet
  facet normal 0.890992 -0.454018 0
    outer loop
      vertex -26.5135 31.7817 -10.68
      vertex -26.7266 31.3635 -3.9
      vertex -26.7266 31.3635 -10.68
    endloop
  endfacet
  facet normal 0.987692 -0.156411 0
    outer loop
      vertex -26.8 30.9 -3.9
      vertex -26.7266 31.3635 -10.68
      vertex -26.7266 31.3635 -3.9
    endloop
  endfacet
  facet normal 0.987692 -0.156411 0
    outer loop
      vertex -26.7266 31.3635 -10.68
      vertex -26.8 30.9 -3.9
      vertex -26.8 30.9 -10.68
    endloop
  endfacet
  facet normal 0.707107 -0.707107 0
    outer loop
      vertex -26.5135 31.7817 -3.9
      vertex -26.1817 32.1135 -10.68
      vertex -26.1817 32.1135 -3.9
    endloop
  endfacet
  facet normal 0.707107 -0.707107 0
    outer loop
      vertex -26.1817 32.1135 -10.68
      vertex -26.5135 31.7817 -3.9
      vertex -26.5135 31.7817 -10.68
    endloop
  endfacet
  facet normal 0.454018 0.890992 -0
    outer loop
      vertex -25.7635 29.4734 -10.68
      vertex -26.1817 29.6865 -3.9
      vertex -25.7635 29.4734 -3.9
    endloop
  endfacet
  facet normal 0.454018 0.890992 0
    outer loop
      vertex -26.1817 29.6865 -3.9
      vertex -25.7635 29.4734 -10.68
      vertex -26.1817 29.6865 -10.68
    endloop
  endfacet
  facet normal -0.454018 -0.890992 0
    outer loop
      vertex -24.8365 32.3266 -10.68
      vertex -24.4183 32.1135 -6.3
      vertex -24.8365 32.3266 -6.3
    endloop
  endfacet
  facet normal -0.454018 -0.890992 -0
    outer loop
      vertex -24.4183 32.1135 -6.3
      vertex -24.8365 32.3266 -10.68
      vertex -24.4183 32.1135 -10.68
    endloop
  endfacet
  facet normal -0.707107 -0.707107 0
    outer loop
      vertex -24.0865 31.7817 -10.68
      vertex -24.4183 32.1135 -6.3
      vertex -24.4183 32.1135 -10.68
    endloop
  endfacet
  facet normal -0.707107 -0.707107 0
    outer loop
      vertex -24.4183 32.1135 -6.3
      vertex -24.0865 31.7817 -10.68
      vertex -24.0865 31.7817 -6.3
    endloop
  endfacet
  facet normal 0.987692 0.156411 0
    outer loop
      vertex -26.7266 30.4365 -3.9
      vertex -26.8 30.9 -10.68
      vertex -26.8 30.9 -3.9
    endloop
  endfacet
  facet normal 0.987692 0.156411 0
    outer loop
      vertex -26.8 30.9 -10.68
      vertex -26.7266 30.4365 -3.9
      vertex -26.7266 30.4365 -10.68
    endloop
  endfacet
  facet normal -0.156411 0.987692 0
    outer loop
      vertex -24.8365 29.4734 -10.68
      vertex -25.3 29.4 -6.3
      vertex -24.8365 29.4734 -6.3
    endloop
  endfacet
  facet normal -0.156411 0.987692 0
    outer loop
      vertex -25.3 29.4 -6.3
      vertex -24.8365 29.4734 -10.68
      vertex -25.3 29.4 -10.68
    endloop
  endfacet
  facet normal 0.156366 -0.987699 0
    outer loop
      vertex -25.7635 32.3266 -3.9
      vertex -25.55 32.3604 -6.3
      vertex -25.55 32.3604 -3.9
    endloop
  endfacet
  facet normal 0.156366 -0.987699 0
    outer loop
      vertex -25.7635 32.3266 -10.68
      vertex -25.55 32.3604 -6.3
      vertex -25.7635 32.3266 -3.9
    endloop
  endfacet
  facet normal 0.156411 -0.987692 -2.23798e-06
    outer loop
      vertex -25.3 32.4 -10.68
      vertex -25.55 32.3604 -6.3
      vertex -25.7635 32.3266 -10.68
    endloop
  endfacet
  facet normal 0.156449 -0.987686 0
    outer loop
      vertex -25.55 32.3604 -6.3
      vertex -25.3 32.4 -10.68
      vertex -25.3 32.4 -6.3
    endloop
  endfacet
  facet normal -0.156411 -0.987692 0
    outer loop
      vertex -25.3 32.4 -10.68
      vertex -24.8365 32.3266 -6.3
      vertex -25.3 32.4 -6.3
    endloop
  endfacet
  facet normal -0.156411 -0.987692 -0
    outer loop
      vertex -24.8365 32.3266 -6.3
      vertex -25.3 32.4 -10.68
      vertex -24.8365 32.3266 -10.68
    endloop
  endfacet
  facet normal -0.707107 0.707107 0
    outer loop
      vertex -24.4183 29.6865 -10.68
      vertex -24.0865 30.0183 -6.3
      vertex -24.0865 30.0183 -10.68
    endloop
  endfacet
  facet normal -0.707107 0.707107 0
    outer loop
      vertex -24.0865 30.0183 -6.3
      vertex -24.4183 29.6865 -10.68
      vertex -24.4183 29.6865 -6.3
    endloop
  endfacet
  facet normal -0.987692 0.156411 0
    outer loop
      vertex -23.8734 30.4365 -10.68
      vertex -23.8 30.9 -6.3
      vertex -23.8 30.9 -10.68
    endloop
  endfacet
  facet normal -0.987692 0.156411 0
    outer loop
      vertex -23.8 30.9 -6.3
      vertex -23.8734 30.4365 -10.68
      vertex -23.8734 30.4365 -6.3
    endloop
  endfacet
  facet normal 0.454018 -0.890992 0
    outer loop
      vertex -26.1817 32.1135 -10.68
      vertex -25.7635 32.3266 -3.9
      vertex -26.1817 32.1135 -3.9
    endloop
  endfacet
  facet normal 0.454018 -0.890992 0
    outer loop
      vertex -25.7635 32.3266 -3.9
      vertex -26.1817 32.1135 -10.68
      vertex -25.7635 32.3266 -10.68
    endloop
  endfacet
  facet normal 0.156449 0.987686 0
    outer loop
      vertex -25.3 29.4 -6.3
      vertex -25.3 29.4 -10.68
      vertex -25.55 29.4396 -6.3
    endloop
  endfacet
  facet normal 0.156366 0.987699 -0
    outer loop
      vertex -25.55 29.4396 -6.3
      vertex -25.7635 29.4734 -3.9
      vertex -25.55 29.4396 -3.9
    endloop
  endfacet
  facet normal 0.156411 0.987692 -2.23798e-06
    outer loop
      vertex -25.7635 29.4734 -10.68
      vertex -25.55 29.4396 -6.3
      vertex -25.3 29.4 -10.68
    endloop
  endfacet
  facet normal 0.156366 0.987699 0
    outer loop
      vertex -25.55 29.4396 -6.3
      vertex -25.7635 29.4734 -10.68
      vertex -25.7635 29.4734 -3.9
    endloop
  endfacet
  facet normal 0.707107 0.707107 0
    outer loop
      vertex -26.1817 29.6865 -3.9
      vertex -26.5135 30.0183 -10.68
      vertex -26.5135 30.0183 -3.9
    endloop
  endfacet
  facet normal 0.707107 0.707107 0
    outer loop
      vertex -26.5135 30.0183 -10.68
      vertex -26.1817 29.6865 -3.9
      vertex -26.1817 29.6865 -10.68
    endloop
  endfacet
  facet normal -0.890992 0.454018 0
    outer loop
      vertex -24.0865 30.0183 -10.68
      vertex -23.8734 30.4365 -6.3
      vertex -23.8734 30.4365 -10.68
    endloop
  endfacet
  facet normal -0.890992 0.454018 0
    outer loop
      vertex -23.8734 30.4365 -6.3
      vertex -24.0865 30.0183 -10.68
      vertex -24.0865 30.0183 -6.3
    endloop
  endfacet
  facet normal -0.987692 -0.156411 0
    outer loop
      vertex -23.8 30.9 -10.68
      vertex -23.8734 31.3635 -6.3
      vertex -23.8734 31.3635 -10.68
    endloop
  endfacet
  facet normal -0.987692 -0.156411 0
    outer loop
      vertex -23.8734 31.3635 -6.3
      vertex -23.8 30.9 -10.68
      vertex -23.8 30.9 -6.3
    endloop
  endfacet
  facet normal 0.890992 0.454018 0
    outer loop
      vertex -26.5135 30.0183 -3.9
      vertex -26.7266 30.4365 -10.68
      vertex -26.7266 30.4365 -3.9
    endloop
  endfacet
  facet normal 0.890992 0.454018 0
    outer loop
      vertex -26.7266 30.4365 -10.68
      vertex -26.5135 30.0183 -3.9
      vertex -26.5135 30.0183 -10.68
    endloop
  endfacet
  facet normal 0 0 1
    outer loop
      vertex -23.8734 31.3635 -10.68
      vertex -23.8734 30.4365 -10.68
      vertex -23.8 30.9 -10.68
    endloop
  endfacet
  facet normal 0 0 1
    outer loop
      vertex -24.0865 31.7817 -10.68
      vertex -23.8734 30.4365 -10.68
      vertex -23.8734 31.3635 -10.68
    endloop
  endfacet
  facet normal 0 0 1
    outer loop
      vertex -24.0865 31.7817 -10.68
      vertex -24.0865 30.0183 -10.68
      vertex -23.8734 30.4365 -10.68
    endloop
  endfacet
  facet normal 0 0 1
    outer loop
      vertex -24.4183 32.1135 -10.68
      vertex -24.0865 30.0183 -10.68
      vertex -24.0865 31.7817 -10.68
    endloop
  endfacet
  facet normal 0 0 1
    outer loop
      vertex -24.4183 32.1135 -10.68
      vertex -24.4183 29.6865 -10.68
      vertex -24.0865 30.0183 -10.68
    endloop
  endfacet
  facet normal 0 0 1
    outer loop
      vertex -24.8365 32.3266 -10.68
      vertex -24.4183 29.6865 -10.68
      vertex -24.4183 32.1135 -10.68
    endloop
  endfacet
  facet normal 0 0 1
    outer loop
      vertex -24.8365 32.3266 -10.68
      vertex -24.8365 29.4734 -10.68
      vertex -24.4183 29.6865 -10.68
    endloop
  endfacet
  facet normal 0 0 1
    outer loop
      vertex -25.3 32.4 -10.68
      vertex -24.8365 29.4734 -10.68
      vertex -24.8365 32.3266 -10.68
    endloop
  endfacet
  facet normal 0 0 1
    outer loop
      vertex -25.3 32.4 -10.68
      vertex -25.3 29.4 -10.68
      vertex -24.8365 29.4734 -10.68
    endloop
  endfacet
  facet normal -0 0 1
    outer loop
      vertex -25.7635 32.3266 -10.68
      vertex -25.3 29.4 -10.68
      vertex -25.3 32.4 -10.68
    endloop
  endfacet
  facet normal 0 0 1
    outer loop
      vertex -25.7635 32.3266 -10.68
      vertex -25.7635 29.4734 -10.68
      vertex -25.3 29.4 -10.68
    endloop
  endfacet
  facet normal -0 0 1
    outer loop
      vertex -26.1817 32.1135 -10.68
      vertex -25.7635 29.4734 -10.68
      vertex -25.7635 32.3266 -10.68
    endloop
  endfacet
  facet normal 0 0 1
    outer loop
      vertex -26.1817 32.1135 -10.68
      vertex -26.1817 29.6865 -10.68
      vertex -25.7635 29.4734 -10.68
    endloop
  endfacet
  facet normal -0 0 1
    outer loop
      vertex -26.5135 31.7817 -10.68
      vertex -26.1817 29.6865 -10.68
      vertex -26.1817 32.1135 -10.68
    endloop
  endfacet
  facet normal 0 0 1
    outer loop
      vertex -26.5135 31.7817 -10.68
      vertex -26.5135 30.0183 -10.68
      vertex -26.1817 29.6865 -10.68
    endloop
  endfacet
  facet normal -0 0 1
    outer loop
      vertex -26.7266 31.3635 -10.68
      vertex -26.5135 30.0183 -10.68
      vertex -26.5135 31.7817 -10.68
    endloop
  endfacet
  facet normal 0 0 1
    outer loop
      vertex -26.7266 31.3635 -10.68
      vertex -26.7266 30.4365 -10.68
      vertex -26.5135 30.0183 -10.68
    endloop
  endfacet
  facet normal 0 -0 1
    outer loop
      vertex -26.7266 30.4365 -10.68
      vertex -26.7266 31.3635 -10.68
      vertex -26.8 30.9 -10.68
    endloop
  endfacet
  facet normal -0.454018 0.890992 0
    outer loop
      vertex -24.4183 29.6865 -10.68
      vertex -24.8365 29.4734 -6.3
      vertex -24.4183 29.6865 -6.3
    endloop
  endfacet
  facet normal -0.454018 0.890992 0
    outer loop
      vertex -24.8365 29.4734 -6.3
      vertex -24.4183 29.6865 -10.68
      vertex -24.8365 29.4734 -10.68
    endloop
  endfacet
  facet normal -0.890992 -0.454018 0
    outer loop
      vertex -23.8734 31.3635 -10.68
      vertex -24.0865 31.7817 -6.3
      vertex -24.0865 31.7817 -10.68
    endloop
  endfacet
  facet normal -0.890992 -0.454018 0
    outer loop
      vertex -24.0865 31.7817 -6.3
      vertex -23.8734 31.3635 -10.68
      vertex -23.8734 31.3635 -6.3
    endloop
  endfacet
  facet normal 0.891009 -0.453985 0
    outer loop
      vertex -5.17658 4.46352 -3.9
      vertex -4.96352 4.88168 -10.68
      vertex -4.96352 4.88168 -3.9
    endloop
  endfacet
  facet normal 0.891009 -0.453985 0
    outer loop
      vertex -4.96352 4.88168 -10.68
      vertex -5.17658 4.46352 -3.9
      vertex -5.17658 4.46352 -10.68
    endloop
  endfacet
  facet normal 0.987686 -0.156446 0
    outer loop
      vertex -5.25 4 -3.9
      vertex -5.17658 4.46352 -10.68
      vertex -5.17658 4.46352 -3.9
    endloop
  endfacet
  facet normal 0.987686 -0.156446 0
    outer loop
      vertex -5.17658 4.46352 -10.68
      vertex -5.25 4 -3.9
      vertex -5.25 4 -10.68
    endloop
  endfacet
  facet normal 0.707107 -0.707107 0
    outer loop
      vertex -4.96352 4.88168 -3.9
      vertex -4.63168 5.21352 -10.68
      vertex -4.63168 5.21352 -3.9
    endloop
  endfacet
  facet normal 0.707107 -0.707107 0
    outer loop
      vertex -4.63168 5.21352 -10.68
      vertex -4.96352 4.88168 -3.9
      vertex -4.96352 4.88168 -10.68
    endloop
  endfacet
  facet normal -0.156443 -0.987687 0
    outer loop
      vertex -3.75 5.5 -10.68
      vertex -3.28647 5.42658 -3.9
      vertex -3.75 5.5 -3.9
    endloop
  endfacet
  facet normal -0.156443 -0.987687 -0
    outer loop
      vertex -3.28647 5.42658 -3.9
      vertex -3.75 5.5 -10.68
      vertex -3.28647 5.42658 -10.68
    endloop
  endfacet
  facet normal -0.707096 -0.707117 0
    outer loop
      vertex -2.53647 4.88168 -10.68
      vertex -2.86832 5.21352 -3.9
      vertex -2.86832 5.21352 -10.68
    endloop
  endfacet
  facet normal -0.707096 -0.707117 0
    outer loop
      vertex -2.86832 5.21352 -3.9
      vertex -2.53647 4.88168 -10.68
      vertex -2.53647 4.88168 -3.9
    endloop
  endfacet
  facet normal 0.453985 -0.891009 0
    outer loop
      vertex -4.63168 5.21352 -10.68
      vertex -4.21352 5.42658 -3.9
      vertex -4.63168 5.21352 -3.9
    endloop
  endfacet
  facet normal 0.453985 -0.891009 0
    outer loop
      vertex -4.21352 5.42658 -3.9
      vertex -4.63168 5.21352 -10.68
      vertex -4.21352 5.42658 -10.68
    endloop
  endfacet
  facet normal 0.891005 0.453994 0
    outer loop
      vertex -4.96352 3.11832 -3.9
      vertex -5.17658 3.53647 -10.68
      vertex -5.17658 3.53647 -3.9
    endloop
  endfacet
  facet normal 0.891005 0.453994 0
    outer loop
      vertex -5.17658 3.53647 -10.68
      vertex -4.96352 3.11832 -3.9
      vertex -4.96352 3.11832 -10.68
    endloop
  endfacet
  facet normal 0.156446 -0.987686 0
    outer loop
      vertex -4.21352 5.42658 -10.68
      vertex -3.75 5.5 -3.9
      vertex -4.21352 5.42658 -3.9
    endloop
  endfacet
  facet normal 0.156446 -0.987686 0
    outer loop
      vertex -3.75 5.5 -3.9
      vertex -4.21352 5.42658 -10.68
      vertex -3.75 5.5 -10.68
    endloop
  endfacet
  facet normal 0 0 1
    outer loop
      vertex -2.32341 4.46352 -10.68
      vertex -2.32341 3.53647 -10.68
      vertex -2.25 4 -10.68
    endloop
  endfacet
  facet normal 0 0 1
    outer loop
      vertex -2.53647 4.88168 -10.68
      vertex -2.32341 3.53647 -10.68
      vertex -2.32341 4.46352 -10.68
    endloop
  endfacet
  facet normal 0 0 1
    outer loop
      vertex -2.53647 4.88168 -10.68
      vertex -2.53647 3.11832 -10.68
      vertex -2.32341 3.53647 -10.68
    endloop
  endfacet
  facet normal 0 0 1
    outer loop
      vertex -2.86832 5.21352 -10.68
      vertex -2.53647 3.11832 -10.68
      vertex -2.53647 4.88168 -10.68
    endloop
  endfacet
  facet normal 0 0 1
    outer loop
      vertex -2.86832 5.21352 -10.68
      vertex -2.86832 2.78647 -10.68
      vertex -2.53647 3.11832 -10.68
    endloop
  endfacet
  facet normal 0 0 1
    outer loop
      vertex -3.28647 5.42658 -10.68
      vertex -2.86832 2.78647 -10.68
      vertex -2.86832 5.21352 -10.68
    endloop
  endfacet
  facet normal 0 0 1
    outer loop
      vertex -3.28647 5.42658 -10.68
      vertex -3.28647 2.57341 -10.68
      vertex -2.86832 2.78647 -10.68
    endloop
  endfacet
  facet normal 0 0 1
    outer loop
      vertex -3.75 5.5 -10.68
      vertex -3.28647 2.57341 -10.68
      vertex -3.28647 5.42658 -10.68
    endloop
  endfacet
  facet normal 0 0 1
    outer loop
      vertex -3.75 5.5 -10.68
      vertex -3.75 2.5 -10.68
      vertex -3.28647 2.57341 -10.68
    endloop
  endfacet
  facet normal -0 0 1
    outer loop
      vertex -4.21352 5.42658 -10.68
      vertex -3.75 2.5 -10.68
      vertex -3.75 5.5 -10.68
    endloop
  endfacet
  facet normal 0 0 1
    outer loop
      vertex -4.21352 5.42658 -10.68
      vertex -4.21352 2.57341 -10.68
      vertex -3.75 2.5 -10.68
    endloop
  endfacet
  facet normal -0 0 1
    outer loop
      vertex -4.63168 5.21352 -10.68
      vertex -4.21352 2.57341 -10.68
      vertex -4.21352 5.42658 -10.68
    endloop
  endfacet
  facet normal 0 0 1
    outer loop
      vertex -4.63168 5.21352 -10.68
      vertex -4.63168 2.78647 -10.68
      vertex -4.21352 2.57341 -10.68
    endloop
  endfacet
  facet normal -0 0 1
    outer loop
      vertex -4.96352 4.88168 -10.68
      vertex -4.63168 2.78647 -10.68
      vertex -4.63168 5.21352 -10.68
    endloop
  endfacet
  facet normal 0 0 1
    outer loop
      vertex -4.96352 4.88168 -10.68
      vertex -4.96352 3.11832 -10.68
      vertex -4.63168 2.78647 -10.68
    endloop
  endfacet
  facet normal -0 0 1
    outer loop
      vertex -5.17658 4.46352 -10.68
      vertex -4.96352 3.11832 -10.68
      vertex -4.96352 4.88168 -10.68
    endloop
  endfacet
  facet normal 0 0 1
    outer loop
      vertex -5.17658 4.46352 -10.68
      vertex -5.17658 3.53647 -10.68
      vertex -4.96352 3.11832 -10.68
    endloop
  endfacet
  facet normal 0 -0 1
    outer loop
      vertex -5.17658 3.53647 -10.68
      vertex -5.17658 4.46352 -10.68
      vertex -5.25 4 -10.68
    endloop
  endfacet
  facet normal -0.453994 0.891005 0
    outer loop
      vertex -2.86832 2.78647 -10.68
      vertex -3.28647 2.57341 -3.9
      vertex -2.86832 2.78647 -3.9
    endloop
  endfacet
  facet normal -0.453994 0.891005 0
    outer loop
      vertex -3.28647 2.57341 -3.9
      vertex -2.86832 2.78647 -10.68
      vertex -3.28647 2.57341 -10.68
    endloop
  endfacet
  facet normal 0.453985 0.891009 -0
    outer loop
      vertex -4.21352 2.57341 -10.68
      vertex -4.63168 2.78647 -3.9
      vertex -4.21352 2.57341 -3.9
    endloop
  endfacet
  facet normal 0.453985 0.891009 0
    outer loop
      vertex -4.63168 2.78647 -3.9
      vertex -4.21352 2.57341 -10.68
      vertex -4.63168 2.78647 -10.68
    endloop
  endfacet
  facet normal 0.987687 0.156443 0
    outer loop
      vertex -5.17658 3.53647 -3.9
      vertex -5.25 4 -10.68
      vertex -5.25 4 -3.9
    endloop
  endfacet
  facet normal 0.987687 0.156443 0
    outer loop
      vertex -5.25 4 -10.68
      vertex -5.17658 3.53647 -3.9
      vertex -5.17658 3.53647 -10.68
    endloop
  endfacet
  facet normal 0.707117 0.707096 0
    outer loop
      vertex -4.63168 2.78647 -3.9
      vertex -4.96352 3.11832 -10.68
      vertex -4.96352 3.11832 -3.9
    endloop
  endfacet
  facet normal 0.707117 0.707096 0
    outer loop
      vertex -4.96352 3.11832 -10.68
      vertex -4.63168 2.78647 -3.9
      vertex -4.63168 2.78647 -10.68
    endloop
  endfacet
  facet normal -0.891005 0.453994 0
    outer loop
      vertex -2.53647 3.11832 -10.68
      vertex -2.32341 3.53647 -3.9
      vertex -2.32341 3.53647 -10.68
    endloop
  endfacet
  facet normal -0.891005 0.453994 0
    outer loop
      vertex -2.32341 3.53647 -3.9
      vertex -2.53647 3.11832 -10.68
      vertex -2.53647 3.11832 -3.9
    endloop
  endfacet
  facet normal -0.453994 -0.891005 0
    outer loop
      vertex -3.28647 5.42658 -10.68
      vertex -2.86832 5.21352 -3.9
      vertex -3.28647 5.42658 -3.9
    endloop
  endfacet
  facet normal -0.453994 -0.891005 -0
    outer loop
      vertex -2.86832 5.21352 -3.9
      vertex -3.28647 5.42658 -10.68
      vertex -2.86832 5.21352 -10.68
    endloop
  endfacet
  facet normal -0.891009 -0.453985 0
    outer loop
      vertex -2.32341 4.46352 -10.68
      vertex -2.53647 4.88168 -3.9
      vertex -2.53647 4.88168 -10.68
    endloop
  endfacet
  facet normal -0.891009 -0.453985 0
    outer loop
      vertex -2.53647 4.88168 -3.9
      vertex -2.32341 4.46352 -10.68
      vertex -2.32341 4.46352 -3.9
    endloop
  endfacet
  facet normal -0.156422 0.98769 0
    outer loop
      vertex -3.28647 2.57341 -10.68
      vertex -3.75 2.5 -3.9
      vertex -3.28647 2.57341 -3.9
    endloop
  endfacet
  facet normal -0.156422 0.98769 0
    outer loop
      vertex -3.75 2.5 -3.9
      vertex -3.28647 2.57341 -10.68
      vertex -3.75 2.5 -10.68
    endloop
  endfacet
  facet normal -0.98769 0.156422 0
    outer loop
      vertex -2.32341 3.53647 -10.68
      vertex -2.25 4 -3.9
      vertex -2.25 4 -10.68
    endloop
  endfacet
  facet normal -0.98769 0.156422 0
    outer loop
      vertex -2.25 4 -3.9
      vertex -2.32341 3.53647 -10.68
      vertex -2.32341 3.53647 -3.9
    endloop
  endfacet
  facet normal -0.98769 -0.156425 0
    outer loop
      vertex -2.25 4 -10.68
      vertex -2.32341 4.46352 -3.9
      vertex -2.32341 4.46352 -10.68
    endloop
  endfacet
  facet normal -0.98769 -0.156425 0
    outer loop
      vertex -2.32341 4.46352 -3.9
      vertex -2.25 4 -10.68
      vertex -2.25 4 -3.9
    endloop
  endfacet
  facet normal -0.707107 0.707107 0
    outer loop
      vertex -2.86832 2.78647 -10.68
      vertex -2.53647 3.11832 -3.9
      vertex -2.53647 3.11832 -10.68
    endloop
  endfacet
  facet normal -0.707107 0.707107 0
    outer loop
      vertex -2.53647 3.11832 -3.9
      vertex -2.86832 2.78647 -10.68
      vertex -2.86832 2.78647 -3.9
    endloop
  endfacet
  facet normal 0.156425 0.98769 -0
    outer loop
      vertex -3.75 2.5 -10.68
      vertex -4.21352 2.57341 -3.9
      vertex -3.75 2.5 -3.9
    endloop
  endfacet
  facet normal 0.156425 0.98769 0
    outer loop
      vertex -4.21352 2.57341 -3.9
      vertex -3.75 2.5 -10.68
      vertex -4.21352 2.57341 -10.68
    endloop
  endfacet
  facet normal -0.453951 0.891027 0
    outer loop
      vertex -23.1683 2.78647 -10.68
      vertex -23.5865 2.57341 -3.9
      vertex -23.1683 2.78647 -3.9
    endloop
  endfacet
  facet normal -0.453951 0.891027 0
    outer loop
      vertex -23.5865 2.57341 -3.9
      vertex -23.1683 2.78647 -10.68
      vertex -23.5865 2.57341 -10.68
    endloop
  endfacet
  facet normal 0.890975 -0.454053 0
    outer loop
      vertex -25.4766 4.46352 -3.9
      vertex -25.2635 4.88168 -10.68
      vertex -25.2635 4.88168 -3.9
    endloop
  endfacet
  facet normal 0.890975 -0.454053 0
    outer loop
      vertex -25.2635 4.88168 -10.68
      vertex -25.4766 4.46352 -3.9
      vertex -25.4766 4.46352 -10.68
    endloop
  endfacet
  facet normal 0.987693 -0.156405 0
    outer loop
      vertex -25.55 4 -3.9
      vertex -25.4766 4.46352 -10.68
      vertex -25.4766 4.46352 -3.9
    endloop
  endfacet
  facet normal 0.987693 -0.156405 0
    outer loop
      vertex -25.4766 4.46352 -10.68
      vertex -25.55 4 -3.9
      vertex -25.55 4 -10.68
    endloop
  endfacet
  facet normal 0.707149 -0.707064 0
    outer loop
      vertex -25.2635 4.88168 -3.9
      vertex -24.9317 5.21352 -10.68
      vertex -24.9317 5.21352 -3.9
    endloop
  endfacet
  facet normal 0.707149 -0.707064 0
    outer loop
      vertex -24.9317 5.21352 -10.68
      vertex -25.2635 4.88168 -3.9
      vertex -25.2635 4.88168 -10.68
    endloop
  endfacet
  facet normal 0.70716 0.707054 0
    outer loop
      vertex -24.9317 2.78647 -3.9
      vertex -25.2635 3.11832 -10.68
      vertex -25.2635 3.11832 -3.9
    endloop
  endfacet
  facet normal 0.70716 0.707054 0
    outer loop
      vertex -25.2635 3.11832 -10.68
      vertex -24.9317 2.78647 -3.9
      vertex -24.9317 2.78647 -10.68
    endloop
  endfacet
  facet normal 0.453951 0.891027 -0
    outer loop
      vertex -24.5135 2.57341 -10.68
      vertex -24.9317 2.78647 -3.9
      vertex -24.5135 2.57341 -3.9
    endloop
  endfacet
  facet normal 0.453951 0.891027 0
    outer loop
      vertex -24.9317 2.78647 -3.9
      vertex -24.5135 2.57341 -10.68
      vertex -24.9317 2.78647 -10.68
    endloop
  endfacet
  facet normal -0.453951 -0.891027 0
    outer loop
      vertex -23.5865 5.42658 -10.68
      vertex -23.1683 5.21352 -3.9
      vertex -23.5865 5.42658 -3.9
    endloop
  endfacet
  facet normal -0.453951 -0.891027 -0
    outer loop
      vertex -23.1683 5.21352 -3.9
      vertex -23.5865 5.42658 -10.68
      vertex -23.1683 5.21352 -10.68
    endloop
  endfacet
  facet normal 0.156432 0.987689 -0
    outer loop
      vertex -24.05 2.5 -10.68
      vertex -24.5135 2.57341 -3.9
      vertex -24.05 2.5 -3.9
    endloop
  endfacet
  facet normal 0.156432 0.987689 0
    outer loop
      vertex -24.5135 2.57341 -3.9
      vertex -24.05 2.5 -10.68
      vertex -24.5135 2.57341 -10.68
    endloop
  endfacet
  facet normal -0.156432 0.987689 0
    outer loop
      vertex -23.5865 2.57341 -10.68
      vertex -24.05 2.5 -3.9
      vertex -23.5865 2.57341 -3.9
    endloop
  endfacet
  facet normal -0.156432 0.987689 0
    outer loop
      vertex -24.05 2.5 -3.9
      vertex -23.5865 2.57341 -10.68
      vertex -24.05 2.5 -10.68
    endloop
  endfacet
  facet normal -0.707149 -0.707064 0
    outer loop
      vertex -22.8365 4.88168 -10.68
      vertex -23.1683 5.21352 -3.9
      vertex -23.1683 5.21352 -10.68
    endloop
  endfacet
  facet normal -0.707149 -0.707064 0
    outer loop
      vertex -23.1683 5.21352 -3.9
      vertex -22.8365 4.88168 -10.68
      vertex -22.8365 4.88168 -3.9
    endloop
  endfacet
  facet normal -0.987694 0.156401 0
    outer loop
      vertex -22.6234 3.53647 -10.68
      vertex -22.55 4 -3.9
      vertex -22.55 4 -10.68
    endloop
  endfacet
  facet normal -0.987694 0.156401 0
    outer loop
      vertex -22.55 4 -3.9
      vertex -22.6234 3.53647 -10.68
      vertex -22.6234 3.53647 -3.9
    endloop
  endfacet
  facet normal 0.987694 0.156401 0
    outer loop
      vertex -25.4766 3.53647 -3.9
      vertex -25.55 4 -10.68
      vertex -25.55 4 -3.9
    endloop
  endfacet
  facet normal 0.987694 0.156401 0
    outer loop
      vertex -25.55 4 -10.68
      vertex -25.4766 3.53647 -3.9
      vertex -25.4766 3.53647 -10.68
    endloop
  endfacet
  facet normal 0.453951 -0.891027 0
    outer loop
      vertex -24.9317 5.21352 -10.68
      vertex -24.5135 5.42658 -3.9
      vertex -24.9317 5.21352 -3.9
    endloop
  endfacet
  facet normal 0.453951 -0.891027 0
    outer loop
      vertex -24.5135 5.42658 -3.9
      vertex -24.9317 5.21352 -10.68
      vertex -24.5135 5.42658 -10.68
    endloop
  endfacet
  facet normal -0.89097 0.454061 0
    outer loop
      vertex -22.8365 3.11832 -10.68
      vertex -22.6234 3.53647 -3.9
      vertex -22.6234 3.53647 -10.68
    endloop
  endfacet
  facet normal -0.89097 0.454061 0
    outer loop
      vertex -22.6234 3.53647 -3.9
      vertex -22.8365 3.11832 -10.68
      vertex -22.8365 3.11832 -3.9
    endloop
  endfacet
  facet normal 0.89097 0.454061 0
    outer loop
      vertex -25.2635 3.11832 -3.9
      vertex -25.4766 3.53647 -10.68
      vertex -25.4766 3.53647 -3.9
    endloop
  endfacet
  facet normal 0.89097 0.454061 0
    outer loop
      vertex -25.4766 3.53647 -10.68
      vertex -25.2635 3.11832 -3.9
      vertex -25.2635 3.11832 -10.68
    endloop
  endfacet
  facet normal 0.156453 -0.987685 0
    outer loop
      vertex -24.5135 5.42658 -10.68
      vertex -24.05 5.5 -3.9
      vertex -24.5135 5.42658 -3.9
    endloop
  endfacet
  facet normal 0.156453 -0.987685 0
    outer loop
      vertex -24.05 5.5 -3.9
      vertex -24.5135 5.42658 -10.68
      vertex -24.05 5.5 -10.68
    endloop
  endfacet
  facet normal 0 0 1
    outer loop
      vertex -22.6234 4.46352 -10.68
      vertex -22.6234 3.53647 -10.68
      vertex -22.55 4 -10.68
    endloop
  endfacet
  facet normal 0 0 1
    outer loop
      vertex -22.8365 4.88168 -10.68
      vertex -22.6234 3.53647 -10.68
      vertex -22.6234 4.46352 -10.68
    endloop
  endfacet
  facet normal 0 0 1
    outer loop
      vertex -22.8365 4.88168 -10.68
      vertex -22.8365 3.11832 -10.68
      vertex -22.6234 3.53647 -10.68
    endloop
  endfacet
  facet normal 0 0 1
    outer loop
      vertex -23.1683 5.21352 -10.68
      vertex -22.8365 3.11832 -10.68
      vertex -22.8365 4.88168 -10.68
    endloop
  endfacet
  facet normal 0 0 1
    outer loop
      vertex -23.1683 5.21352 -10.68
      vertex -23.1683 2.78647 -10.68
      vertex -22.8365 3.11832 -10.68
    endloop
  endfacet
  facet normal 0 0 1
    outer loop
      vertex -23.5865 5.42658 -10.68
      vertex -23.1683 2.78647 -10.68
      vertex -23.1683 5.21352 -10.68
    endloop
  endfacet
  facet normal 0 0 1
    outer loop
      vertex -23.5865 5.42658 -10.68
      vertex -23.5865 2.57341 -10.68
      vertex -23.1683 2.78647 -10.68
    endloop
  endfacet
  facet normal 0 0 1
    outer loop
      vertex -24.05 5.5 -10.68
      vertex -23.5865 2.57341 -10.68
      vertex -23.5865 5.42658 -10.68
    endloop
  endfacet
  facet normal 0 0 1
    outer loop
      vertex -24.05 5.5 -10.68
      vertex -24.05 2.5 -10.68
      vertex -23.5865 2.57341 -10.68
    endloop
  endfacet
  facet normal -0 0 1
    outer loop
      vertex -24.5135 5.42658 -10.68
      vertex -24.05 2.5 -10.68
      vertex -24.05 5.5 -10.68
    endloop
  endfacet
  facet normal 0 0 1
    outer loop
      vertex -24.5135 5.42658 -10.68
      vertex -24.5135 2.57341 -10.68
      vertex -24.05 2.5 -10.68
    endloop
  endfacet
  facet normal -0 0 1
    outer loop
      vertex -24.9317 5.21352 -10.68
      vertex -24.5135 2.57341 -10.68
      vertex -24.5135 5.42658 -10.68
    endloop
  endfacet
  facet normal 0 0 1
    outer loop
      vertex -24.9317 5.21352 -10.68
      vertex -24.9317 2.78647 -10.68
      vertex -24.5135 2.57341 -10.68
    endloop
  endfacet
  facet normal -0 0 1
    outer loop
      vertex -25.2635 4.88168 -10.68
      vertex -24.9317 2.78647 -10.68
      vertex -24.9317 5.21352 -10.68
    endloop
  endfacet
  facet normal 0 0 1
    outer loop
      vertex -25.2635 4.88168 -10.68
      vertex -25.2635 3.11832 -10.68
      vertex -24.9317 2.78647 -10.68
    endloop
  endfacet
  facet normal -0 0 1
    outer loop
      vertex -25.4766 4.46352 -10.68
      vertex -25.2635 3.11832 -10.68
      vertex -25.2635 4.88168 -10.68
    endloop
  endfacet
  facet normal 0 0 1
    outer loop
      vertex -25.4766 4.46352 -10.68
      vertex -25.4766 3.53647 -10.68
      vertex -25.2635 3.11832 -10.68
    endloop
  endfacet
  facet normal 0 -0 1
    outer loop
      vertex -25.4766 3.53647 -10.68
      vertex -25.4766 4.46352 -10.68
      vertex -25.55 4 -10.68
    endloop
  endfacet
  facet normal -0.156453 -0.987685 0
    outer loop
      vertex -24.05 5.5 -10.68
      vertex -23.5865 5.42658 -3.9
      vertex -24.05 5.5 -3.9
    endloop
  endfacet
  facet normal -0.156453 -0.987685 -0
    outer loop
      vertex -23.5865 5.42658 -3.9
      vertex -24.05 5.5 -10.68
      vertex -23.5865 5.42658 -10.68
    endloop
  endfacet
  facet normal -0.890975 -0.454053 0
    outer loop
      vertex -22.6234 4.46352 -10.68
      vertex -22.8365 4.88168 -3.9
      vertex -22.8365 4.88168 -10.68
    endloop
  endfacet
  facet normal -0.890975 -0.454053 0
    outer loop
      vertex -22.8365 4.88168 -3.9
      vertex -22.6234 4.46352 -10.68
      vertex -22.6234 4.46352 -3.9
    endloop
  endfacet
  facet normal -0.987693 -0.156405 0
    outer loop
      vertex -22.55 4 -10.68
      vertex -22.6234 4.46352 -3.9
      vertex -22.6234 4.46352 -10.68
    endloop
  endfacet
  facet normal -0.987693 -0.156405 0
    outer loop
      vertex -22.6234 4.46352 -3.9
      vertex -22.55 4 -10.68
      vertex -22.55 4 -3.9
    endloop
  endfacet
  facet normal -0.70716 0.707054 0
    outer loop
      vertex -23.1683 2.78647 -10.68
      vertex -22.8365 3.11832 -3.9
      vertex -22.8365 3.11832 -10.68
    endloop
  endfacet
  facet normal -0.70716 0.707054 0
    outer loop
      vertex -22.8365 3.11832 -3.9
      vertex -23.1683 2.78647 -10.68
      vertex -23.1683 2.78647 -3.9
    endloop
  endfacet
  facet normal 1 0 0
    outer loop
      vertex -19.87 10 -3.9
      vertex -19.87 5 -4.61
      vertex -19.87 10 -6.3
    endloop
  endfacet
  facet normal 1 -0 0
    outer loop
      vertex -19.87 0 -3.9
      vertex -19.87 5 -4.61
      vertex -19.87 10 -3.9
    endloop
  endfacet
  facet normal 1 0 0
    outer loop
      vertex -19.87 5 -4.61
      vertex -19.87 0 -3.9
      vertex -19.87 2 -4.61
    endloop
  endfacet
  facet normal 1 0 0
    outer loop
      vertex -19.87 0 -6.9
      vertex -19.87 2 -4.61
      vertex -19.87 0 -3.9
    endloop
  endfacet
  facet normal 1 0 0
    outer loop
      vertex -19.87 2 -4.61
      vertex -19.87 0 -6.9
      vertex -19.87 2 -6.9
    endloop
  endfacet
  facet normal 1 -0 0
    outer loop
      vertex -19.87 10 -6.3
      vertex -19.87 15.58 -10.62
      vertex -19.87 15.58 -6.3
    endloop
  endfacet
  facet normal 1 0 0
    outer loop
      vertex -19.87 5 -10.61
      vertex -19.87 10 -6.3
      vertex -19.87 5 -4.61
    endloop
  endfacet
  facet normal 1 0 0
    outer loop
      vertex -19.87 10 -6.3
      vertex -19.87 5 -10.61
      vertex -19.87 15.58 -10.62
    endloop
  endfacet
  facet normal 1 0 0
    outer loop
      vertex -19.87 2 -10.62
      vertex -19.87 5 -10.61
      vertex -19.87 2 -10.61
    endloop
  endfacet
  facet normal 1 0 0
    outer loop
      vertex -19.87 5 -10.61
      vertex -19.87 2 -10.62
      vertex -19.87 15.58 -10.62
    endloop
  endfacet
  facet normal -0 0 1
    outer loop
      vertex -19.87 15.58 -10.62
      vertex -7.71 2 -10.62
      vertex -7.71 15.58 -10.62
    endloop
  endfacet
  facet normal 0 0 1
    outer loop
      vertex -7.71 2 -10.62
      vertex -19.87 15.58 -10.62
      vertex -19.87 2 -10.62
    endloop
  endfacet
  facet normal -1 0 0
    outer loop
      vertex -7.71 2 -6.9
      vertex -7.71 0 -6.9
      vertex -7.71 2 -4.61
    endloop
  endfacet
  facet normal -1 0 0
    outer loop
      vertex -7.71 15.58 -10.62
      vertex -7.71 10 -6.3
      vertex -7.71 15.58 -6.3
    endloop
  endfacet
  facet normal -1 0 0
    outer loop
      vertex -7.71 5 -4.61
      vertex -7.71 10 -6.3
      vertex -7.71 5 -10.61
    endloop
  endfacet
  facet normal -1 0 0
    outer loop
      vertex -7.71 15.58 -10.62
      vertex -7.71 5 -10.61
      vertex -7.71 10 -6.3
    endloop
  endfacet
  facet normal -1 0 0
    outer loop
      vertex -7.71 2 -10.62
      vertex -7.71 5 -10.61
      vertex -7.71 15.58 -10.62
    endloop
  endfacet
  facet normal -1 -0 0
    outer loop
      vertex -7.71 5 -10.61
      vertex -7.71 2 -10.62
      vertex -7.71 2 -10.61
    endloop
  endfacet
  facet normal -1 0 0
    outer loop
      vertex -7.71 10 -6.3
      vertex -7.71 5 -4.61
      vertex -7.71 10 -3.9
    endloop
  endfacet
  facet normal -1 0 0
    outer loop
      vertex -7.71 0 -3.9
      vertex -7.71 5 -4.61
      vertex -7.71 2 -4.61
    endloop
  endfacet
  facet normal -1 0 0
    outer loop
      vertex -7.71 5 -4.61
      vertex -7.71 0 -3.9
      vertex -7.71 10 -3.9
    endloop
  endfacet
  facet normal -1 0 0
    outer loop
      vertex -7.71 0 -3.9
      vertex -7.71 2 -4.61
      vertex -7.71 0 -6.9
    endloop
  endfacet
  facet normal 0 -1 0
    outer loop
      vertex -19.87 15.58 -10.62
      vertex -7.71 15.58 -6.3
      vertex -19.87 15.58 -6.3
    endloop
  endfacet
  facet normal 0 -1 -0
    outer loop
      vertex -7.71 15.58 -6.3
      vertex -19.87 15.58 -10.62
      vertex -7.71 15.58 -10.62
    endloop
  endfacet
  facet normal 0 1 0
    outer loop
      vertex -9.71 2 -6.9
      vertex -12.29 2 -7.08
      vertex -12.3185 2 -6.9
    endloop
  endfacet
  facet normal 0 1 0
    outer loop
      vertex -9.71 2 -6.9
      vertex -12.3634 2 -7.54352
      vertex -12.29 2 -7.08
    endloop
  endfacet
  facet normal 0 1 0
    outer loop
      vertex -9.71 2 -6.9
      vertex -12.5765 2 -7.96168
      vertex -12.3634 2 -7.54352
    endloop
  endfacet
  facet normal 0 1 -0
    outer loop
      vertex -9.71 2 -10.61
      vertex -12.5765 2 -7.96168
      vertex -9.71 2 -6.9
    endloop
  endfacet
  facet normal 0 1 0
    outer loop
      vertex -12.5765 2 -7.96168
      vertex -9.71 2 -10.61
      vertex -12.9083 2 -8.29352
    endloop
  endfacet
  facet normal 0 1 0
    outer loop
      vertex -13.3265 2 -8.50658
      vertex -9.71 2 -10.61
      vertex -13.79 2 -8.58
    endloop
  endfacet
  facet normal 0 1 0
    outer loop
      vertex -12.9083 2 -8.29352
      vertex -9.71 2 -10.61
      vertex -13.3265 2 -8.50658
    endloop
  endfacet
  facet normal 0 1 -0
    outer loop
      vertex -15.29 2 -7.08
      vertex -17.87 2 -6.9
      vertex -15.2615 2 -6.9
    endloop
  endfacet
  facet normal 0 1 0
    outer loop
      vertex -15.2166 2 -7.54352
      vertex -17.87 2 -6.9
      vertex -15.29 2 -7.08
    endloop
  endfacet
  facet normal 0 1 0
    outer loop
      vertex -15.0035 2 -7.96168
      vertex -17.87 2 -6.9
      vertex -15.2166 2 -7.54352
    endloop
  endfacet
  facet normal 0 1 0
    outer loop
      vertex -17.87 2 -10.61
      vertex -15.0035 2 -7.96168
      vertex -14.6717 2 -8.29352
    endloop
  endfacet
  facet normal 0 1 0
    outer loop
      vertex -17.87 2 -10.61
      vertex -14.6717 2 -8.29352
      vertex -14.2535 2 -8.50658
    endloop
  endfacet
  facet normal 0 1 0
    outer loop
      vertex -17.87 2 -10.61
      vertex -13.79 2 -8.58
      vertex -9.71 2 -10.61
    endloop
  endfacet
  facet normal 0 1 0
    outer loop
      vertex -13.79 2 -8.58
      vertex -17.87 2 -10.61
      vertex -14.2535 2 -8.50658
    endloop
  endfacet
  facet normal 0 1 0
    outer loop
      vertex -15.0035 2 -7.96168
      vertex -17.87 2 -10.61
      vertex -17.87 2 -6.9
    endloop
  endfacet
  facet normal 0 1 -0
    outer loop
      vertex -7.71 2 -10.62
      vertex -9.71 2 -10.61
      vertex -7.71 2 -10.61
    endloop
  endfacet
  facet normal 0 1 0
    outer loop
      vertex -9.71 2 -10.61
      vertex -7.71 2 -10.62
      vertex -17.87 2 -10.61
    endloop
  endfacet
  facet normal 0 1 0
    outer loop
      vertex -19.87 2 -10.62
      vertex -17.87 2 -10.61
      vertex -7.71 2 -10.62
    endloop
  endfacet
  facet normal 0 1 0
    outer loop
      vertex -17.87 2 -10.61
      vertex -19.87 2 -10.62
      vertex -19.87 2 -10.61
    endloop
  endfacet
  facet normal 0 -1 0
    outer loop
      vertex -9.71 2 -6.9
      vertex -7.71 2 -4.61
      vertex -9.71 2 -4.61
    endloop
  endfacet
  facet normal 0 -1 -0
    outer loop
      vertex -7.71 2 -4.61
      vertex -9.71 2 -6.9
      vertex -7.71 2 -6.9
    endloop
  endfacet
  facet normal 0 -1 0
    outer loop
      vertex -19.87 2 -6.9
      vertex -17.87 2 -4.61
      vertex -19.87 2 -4.61
    endloop
  endfacet
  facet normal 0 -1 -0
    outer loop
      vertex -17.87 2 -4.61
      vertex -19.87 2 -6.9
      vertex -17.87 2 -6.9
    endloop
  endfacet
  facet normal 0 0 1
    outer loop
      vertex 0 0 -3.9
      vertex -2.32341 4.46352 -3.9
      vertex -2.25 4 -3.9
    endloop
  endfacet
  facet normal 0 0 1
    outer loop
      vertex -2.25 10 -3.9
      vertex -2.53647 4.88168 -3.9
      vertex -2.32341 4.46352 -3.9
    endloop
  endfacet
  facet normal 0 0 1
    outer loop
      vertex -2.25 10 -3.9
      vertex -2.86832 5.21352 -3.9
      vertex -2.53647 4.88168 -3.9
    endloop
  endfacet
  facet normal 0 0 1
    outer loop
      vertex -2.25 10 -3.9
      vertex -3.28647 5.42658 -3.9
      vertex -2.86832 5.21352 -3.9
    endloop
  endfacet
  facet normal 0 0 1
    outer loop
      vertex -2.25 10 -3.9
      vertex -3.75 5.5 -3.9
      vertex -3.28647 5.42658 -3.9
    endloop
  endfacet
  facet normal 0 0 1
    outer loop
      vertex -2.25 10 -3.9
      vertex -4.21352 5.42658 -3.9
      vertex -3.75 5.5 -3.9
    endloop
  endfacet
  facet normal -0 0 1
    outer loop
      vertex -7.71 10 -3.9
      vertex -4.21352 5.42658 -3.9
      vertex -2.25 10 -3.9
    endloop
  endfacet
  facet normal 0 0 1
    outer loop
      vertex -4.21352 5.42658 -3.9
      vertex -7.71 10 -3.9
      vertex -4.63168 5.21352 -3.9
    endloop
  endfacet
  facet normal 0 0 1
    outer loop
      vertex -5.17658 4.46352 -3.9
      vertex -7.71 10 -3.9
      vertex -5.25 4 -3.9
    endloop
  endfacet
  facet normal 0 0 1
    outer loop
      vertex -4.96352 4.88168 -3.9
      vertex -7.71 10 -3.9
      vertex -5.17658 4.46352 -3.9
    endloop
  endfacet
  facet normal 0 0 1
    outer loop
      vertex -4.63168 5.21352 -3.9
      vertex -7.71 10 -3.9
      vertex -4.96352 4.88168 -3.9
    endloop
  endfacet
  facet normal 0 0 1
    outer loop
      vertex 0 46 -3.9
      vertex -1 30.9 -3.9
      vertex 0 0 -3.9
    endloop
  endfacet
  facet normal 0 0 1
    outer loop
      vertex 0 46 -3.9
      vertex -1.07341 31.3635 -3.9
      vertex -1 30.9 -3.9
    endloop
  endfacet
  facet normal -0 0 1
    outer loop
      vertex -2.25 36 -3.9
      vertex -1.07341 31.3635 -3.9
      vertex 0 46 -3.9
    endloop
  endfacet
  facet normal 0 0 1
    outer loop
      vertex -1.07341 31.3635 -3.9
      vertex -2.25 36 -3.9
      vertex -1.28647 31.7817 -3.9
    endloop
  endfacet
  facet normal 0 0 1
    outer loop
      vertex -1.28647 31.7817 -3.9
      vertex -2.25 36 -3.9
      vertex -1.61832 32.1135 -3.9
    endloop
  endfacet
  facet normal 0 0 1
    outer loop
      vertex -1.61832 32.1135 -3.9
      vertex -2.25 36 -3.9
      vertex -2.03647 32.3266 -3.9
    endloop
  endfacet
  facet normal -0 0 1
    outer loop
      vertex -2.65 46 -3.9
      vertex -2.25 36 -3.9
      vertex 0 46 -3.9
    endloop
  endfacet
  facet normal 0 0 1
    outer loop
      vertex -2.25 36 -3.9
      vertex -2.65 46 -3.9
      vertex -2.65 36 -3.9
    endloop
  endfacet
  facet normal -0 0 1
    outer loop
      vertex -1.07341 30.4365 -3.9
      vertex 0 0 -3.9
      vertex -1 30.9 -3.9
    endloop
  endfacet
  facet normal 0 0 1
    outer loop
      vertex -2.25 10 -3.9
      vertex -1.07341 30.4365 -3.9
      vertex -1.28647 30.0183 -3.9
    endloop
  endfacet
  facet normal 0 0 1
    outer loop
      vertex -2.25 10 -3.9
      vertex -1.28647 30.0183 -3.9
      vertex -1.61832 29.6865 -3.9
    endloop
  endfacet
  facet normal 0 0 1
    outer loop
      vertex -2.25 10 -3.9
      vertex -1.61832 29.6865 -3.9
      vertex -2.03647 29.4734 -3.9
    endloop
  endfacet
  facet normal 0 0 1
    outer loop
      vertex -2.25 10 -3.9
      vertex -2.03647 29.4734 -3.9
      vertex -2.25 29.4396 -3.9
    endloop
  endfacet
  facet normal 0 0 1
    outer loop
      vertex -1.07341 30.4365 -3.9
      vertex -2.25 10 -3.9
      vertex 0 0 -3.9
    endloop
  endfacet
  facet normal -0 0 1
    outer loop
      vertex -2.32341 4.46352 -3.9
      vertex 0 0 -3.9
      vertex -2.25 10 -3.9
    endloop
  endfacet
  facet normal -0 0 1
    outer loop
      vertex -2.32341 3.53647 -3.9
      vertex 0 0 -3.9
      vertex -2.25 4 -3.9
    endloop
  endfacet
  facet normal -0 0 1
    outer loop
      vertex -2.53647 3.11832 -3.9
      vertex 0 0 -3.9
      vertex -2.32341 3.53647 -3.9
    endloop
  endfacet
  facet normal -0 0 1
    outer loop
      vertex -2.86832 2.78647 -3.9
      vertex 0 0 -3.9
      vertex -2.53647 3.11832 -3.9
    endloop
  endfacet
  facet normal -0 0 1
    outer loop
      vertex -3.28647 2.57341 -3.9
      vertex 0 0 -3.9
      vertex -2.86832 2.78647 -3.9
    endloop
  endfacet
  facet normal -0 0 1
    outer loop
      vertex -3.75 2.5 -3.9
      vertex 0 0 -3.9
      vertex -3.28647 2.57341 -3.9
    endloop
  endfacet
  facet normal 0 0 1
    outer loop
      vertex -7.71 0 -3.9
      vertex -3.75 2.5 -3.9
      vertex -4.21352 2.57341 -3.9
    endloop
  endfacet
  facet normal 0 0 1
    outer loop
      vertex -7.71 0 -3.9
      vertex -4.21352 2.57341 -3.9
      vertex -4.63168 2.78647 -3.9
    endloop
  endfacet
  facet normal 0 0 1
    outer loop
      vertex -7.71 0 -3.9
      vertex -5.25 4 -3.9
      vertex -7.71 10 -3.9
    endloop
  endfacet
  facet normal 0 0 1
    outer loop
      vertex -3.75 2.5 -3.9
      vertex -7.71 0 -3.9
      vertex 0 0 -3.9
    endloop
  endfacet
  facet normal 0 0 1
    outer loop
      vertex -4.96352 3.11832 -3.9
      vertex -7.71 0 -3.9
      vertex -4.63168 2.78647 -3.9
    endloop
  endfacet
  facet normal 0 0 1
    outer loop
      vertex -5.17658 3.53647 -3.9
      vertex -7.71 0 -3.9
      vertex -4.96352 3.11832 -3.9
    endloop
  endfacet
  facet normal 0 0 1
    outer loop
      vertex -5.25 4 -3.9
      vertex -7.71 0 -3.9
      vertex -5.17658 3.53647 -3.9
    endloop
  endfacet
  facet normal 0 0 1
    outer loop
      vertex -2.03647 32.3266 -3.9
      vertex -2.25 36 -3.9
      vertex -2.25 32.3604 -3.9
    endloop
  endfacet
  facet normal 0 0 1
    outer loop
      vertex -25.15 46 -3.9
      vertex -25.55 36 -3.9
      vertex -25.15 36 -3.9
    endloop
  endfacet
  facet normal 0 0 1
    outer loop
      vertex -25.55 36 -3.9
      vertex -25.7635 32.3266 -3.9
      vertex -25.55 32.3604 -3.9
    endloop
  endfacet
  facet normal -0 0 1
    outer loop
      vertex -27.8 46 -3.9
      vertex -25.55 36 -3.9
      vertex -25.15 46 -3.9
    endloop
  endfacet
  facet normal 0 -0 1
    outer loop
      vertex -26.7266 31.3635 -3.9
      vertex -25.55 36 -3.9
      vertex -27.8 46 -3.9
    endloop
  endfacet
  facet normal 0 0 1
    outer loop
      vertex -25.55 36 -3.9
      vertex -26.1817 32.1135 -3.9
      vertex -25.7635 32.3266 -3.9
    endloop
  endfacet
  facet normal 0 0 1
    outer loop
      vertex -25.55 36 -3.9
      vertex -26.5135 31.7817 -3.9
      vertex -26.1817 32.1135 -3.9
    endloop
  endfacet
  facet normal 0 0 1
    outer loop
      vertex -25.55 36 -3.9
      vertex -26.7266 31.3635 -3.9
      vertex -26.5135 31.7817 -3.9
    endloop
  endfacet
  facet normal 0 0 1
    outer loop
      vertex -26.7266 31.3635 -3.9
      vertex -27.8 46 -3.9
      vertex -26.8 30.9 -3.9
    endloop
  endfacet
  facet normal 0 0 1
    outer loop
      vertex -25.7635 29.4734 -3.9
      vertex -25.55 10 -3.9
      vertex -25.55 29.4396 -3.9
    endloop
  endfacet
  facet normal 0 0 1
    outer loop
      vertex -26.1817 29.6865 -3.9
      vertex -25.55 10 -3.9
      vertex -25.7635 29.4734 -3.9
    endloop
  endfacet
  facet normal 0 0 1
    outer loop
      vertex -19.87 10 -3.9
      vertex -22.55 4 -3.9
      vertex -19.87 0 -3.9
    endloop
  endfacet
  facet normal 0 0 1
    outer loop
      vertex -19.87 10 -3.9
      vertex -22.6234 4.46352 -3.9
      vertex -22.55 4 -3.9
    endloop
  endfacet
  facet normal 0 0 1
    outer loop
      vertex -19.87 10 -3.9
      vertex -22.8365 4.88168 -3.9
      vertex -22.6234 4.46352 -3.9
    endloop
  endfacet
  facet normal 0 0 1
    outer loop
      vertex -19.87 10 -3.9
      vertex -23.1683 5.21352 -3.9
      vertex -22.8365 4.88168 -3.9
    endloop
  endfacet
  facet normal 0 0 1
    outer loop
      vertex -19.87 10 -3.9
      vertex -23.5865 5.42658 -3.9
      vertex -23.1683 5.21352 -3.9
    endloop
  endfacet
  facet normal -0 0 1
    outer loop
      vertex -25.55 10 -3.9
      vertex -23.5865 5.42658 -3.9
      vertex -19.87 10 -3.9
    endloop
  endfacet
  facet normal 0 0 1
    outer loop
      vertex -23.5865 5.42658 -3.9
      vertex -25.55 10 -3.9
      vertex -24.05 5.5 -3.9
    endloop
  endfacet
  facet normal 0 0 1
    outer loop
      vertex -24.05 5.5 -3.9
      vertex -25.55 10 -3.9
      vertex -24.5135 5.42658 -3.9
    endloop
  endfacet
  facet normal 0 0 1
    outer loop
      vertex -24.5135 5.42658 -3.9
      vertex -25.55 10 -3.9
      vertex -24.9317 5.21352 -3.9
    endloop
  endfacet
  facet normal 0 0 1
    outer loop
      vertex -25.55 10 -3.9
      vertex -25.2635 4.88168 -3.9
      vertex -24.9317 5.21352 -3.9
    endloop
  endfacet
  facet normal 0 0 1
    outer loop
      vertex -25.55 10 -3.9
      vertex -25.4766 4.46352 -3.9
      vertex -25.2635 4.88168 -3.9
    endloop
  endfacet
  facet normal 0 0 1
    outer loop
      vertex -25.4766 4.46352 -3.9
      vertex -25.55 10 -3.9
      vertex -25.55 4 -3.9
    endloop
  endfacet
  facet normal -0 0 1
    outer loop
      vertex -22.6234 3.53647 -3.9
      vertex -19.87 0 -3.9
      vertex -22.55 4 -3.9
    endloop
  endfacet
  facet normal -0 0 1
    outer loop
      vertex -22.8365 3.11832 -3.9
      vertex -19.87 0 -3.9
      vertex -22.6234 3.53647 -3.9
    endloop
  endfacet
  facet normal -0 0 1
    outer loop
      vertex -23.1683 2.78647 -3.9
      vertex -19.87 0 -3.9
      vertex -22.8365 3.11832 -3.9
    endloop
  endfacet
  facet normal -0 0 1
    outer loop
      vertex -23.5865 2.57341 -3.9
      vertex -19.87 0 -3.9
      vertex -23.1683 2.78647 -3.9
    endloop
  endfacet
  facet normal -0 0 1
    outer loop
      vertex -24.05 2.5 -3.9
      vertex -19.87 0 -3.9
      vertex -23.5865 2.57341 -3.9
    endloop
  endfacet
  facet normal 0 0 1
    outer loop
      vertex -27.8 0 -3.9
      vertex -24.05 2.5 -3.9
      vertex -24.5135 2.57341 -3.9
    endloop
  endfacet
  facet normal 0 0 1
    outer loop
      vertex -27.8 0 -3.9
      vertex -24.5135 2.57341 -3.9
      vertex -24.9317 2.78647 -3.9
    endloop
  endfacet
  facet normal 0 0 1
    outer loop
      vertex -26.5135 30.0183 -3.9
      vertex -25.55 10 -3.9
      vertex -26.1817 29.6865 -3.9
    endloop
  endfacet
  facet normal 0 0 1
    outer loop
      vertex -26.7266 30.4365 -3.9
      vertex -25.55 10 -3.9
      vertex -26.5135 30.0183 -3.9
    endloop
  endfacet
  facet normal 0 0 1
    outer loop
      vertex -25.55 10 -3.9
      vertex -26.7266 30.4365 -3.9
      vertex -27.8 0 -3.9
    endloop
  endfacet
  facet normal 0 0 1
    outer loop
      vertex -27.8 0 -3.9
      vertex -26.7266 30.4365 -3.9
      vertex -26.8 30.9 -3.9
    endloop
  endfacet
  facet normal 0 0 1
    outer loop
      vertex -27.8 0 -3.9
      vertex -26.8 30.9 -3.9
      vertex -27.8 46 -3.9
    endloop
  endfacet
  facet normal 0 0 1
    outer loop
      vertex -24.05 2.5 -3.9
      vertex -27.8 0 -3.9
      vertex -19.87 0 -3.9
    endloop
  endfacet
  facet normal 0 0 1
    outer loop
      vertex -25.2635 3.11832 -3.9
      vertex -27.8 0 -3.9
      vertex -24.9317 2.78647 -3.9
    endloop
  endfacet
  facet normal 0 0 1
    outer loop
      vertex -25.4766 3.53647 -3.9
      vertex -27.8 0 -3.9
      vertex -25.2635 3.11832 -3.9
    endloop
  endfacet
  facet normal 0 0 1
    outer loop
      vertex -25.55 4 -3.9
      vertex -27.8 0 -3.9
      vertex -25.4766 3.53647 -3.9
    endloop
  endfacet
  facet normal 0 0 1
    outer loop
      vertex -25.55 10 -3.9
      vertex -27.8 0 -3.9
      vertex -25.55 4 -3.9
    endloop
  endfacet
  facet normal -0 0 1
    outer loop
      vertex -9.71 2 -6.9
      vertex -7.71 0 -6.9
      vertex -7.71 2 -6.9
    endloop
  endfacet
  facet normal 0 0 1
    outer loop
      vertex -12.3185 0 -6.9
      vertex -9.71 2 -6.9
      vertex -12.3185 2 -6.9
    endloop
  endfacet
  facet normal 0 0 1
    outer loop
      vertex -9.71 2 -6.9
      vertex -12.3185 0 -6.9
      vertex -7.71 0 -6.9
    endloop
  endfacet
  facet normal -0 0 1
    outer loop
      vertex -17.87 2 -6.9
      vertex -15.2615 0 -6.9
      vertex -15.2615 2 -6.9
    endloop
  endfacet
  facet normal 0 0 1
    outer loop
      vertex -19.87 0 -6.9
      vertex -17.87 2 -6.9
      vertex -19.87 2 -6.9
    endloop
  endfacet
  facet normal 0 0 1
    outer loop
      vertex -17.87 2 -6.9
      vertex -19.87 0 -6.9
      vertex -15.2615 0 -6.9
    endloop
  endfacet
  facet normal -1 0 0
    outer loop
      vertex -9.71 2 -6.9
      vertex -9.71 5 -10.61
      vertex -9.71 2 -10.61
    endloop
  endfacet
  facet normal -1 0 0
    outer loop
      vertex -9.71 5 -10.61
      vertex -9.71 2 -6.9
      vertex -9.71 5 -4.61
    endloop
  endfacet
  facet normal -1 -0 0
    outer loop
      vertex -9.71 5 -4.61
      vertex -9.71 2 -6.9
      vertex -9.71 2 -4.61
    endloop
  endfacet
  facet normal 0 0 -1
    outer loop
      vertex -9.71 2 -10.61
      vertex -7.71 5 -10.61
      vertex -7.71 2 -10.61
    endloop
  endfacet
  facet normal -0 0 -1
    outer loop
      vertex -7.71 5 -10.61
      vertex -9.71 2 -10.61
      vertex -9.71 5 -10.61
    endloop
  endfacet
  facet normal -0 0 1
    outer loop
      vertex -9.71 5 -4.61
      vertex -7.71 2 -4.61
      vertex -7.71 5 -4.61
    endloop
  endfacet
  facet normal 0 0 1
    outer loop
      vertex -7.71 2 -4.61
      vertex -9.71 5 -4.61
      vertex -9.71 2 -4.61
    endloop
  endfacet
  facet normal 0 1 -0
    outer loop
      vertex -7.71 5 -10.61
      vertex -9.71 5 -4.61
      vertex -7.71 5 -4.61
    endloop
  endfacet
  facet normal 0 1 0
    outer loop
      vertex -9.71 5 -4.61
      vertex -7.71 5 -10.61
      vertex -9.71 5 -10.61
    endloop
  endfacet
  facet normal 0 0 -1
    outer loop
      vertex -19.87 2 -10.61
      vertex -17.87 5 -10.61
      vertex -17.87 2 -10.61
    endloop
  endfacet
  facet normal -0 0 -1
    outer loop
      vertex -17.87 5 -10.61
      vertex -19.87 2 -10.61
      vertex -19.87 5 -10.61
    endloop
  endfacet
  facet normal -0 0 1
    outer loop
      vertex -19.87 5 -4.61
      vertex -17.87 2 -4.61
      vertex -17.87 5 -4.61
    endloop
  endfacet
  facet normal 0 0 1
    outer loop
      vertex -17.87 2 -4.61
      vertex -19.87 5 -4.61
      vertex -19.87 2 -4.61
    endloop
  endfacet
  facet normal 1 0 0
    outer loop
      vertex -17.87 2 -6.9
      vertex -17.87 5 -4.61
      vertex -17.87 2 -4.61
    endloop
  endfacet
  facet normal 1 0 0
    outer loop
      vertex -17.87 5 -4.61
      vertex -17.87 2 -6.9
      vertex -17.87 5 -10.61
    endloop
  endfacet
  facet normal 1 0 0
    outer loop
      vertex -17.87 5 -10.61
      vertex -17.87 2 -6.9
      vertex -17.87 2 -10.61
    endloop
  endfacet
  facet normal 0 1 -0
    outer loop
      vertex -17.87 5 -10.61
      vertex -19.87 5 -4.61
      vertex -17.87 5 -4.61
    endloop
  endfacet
  facet normal 0 1 0
    outer loop
      vertex -19.87 5 -4.61
      vertex -17.87 5 -10.61
      vertex -19.87 5 -10.61
    endloop
  endfacet
  facet normal 0.453951 0 0.891027
    outer loop
      vertex -14.6717 2 -8.29352
      vertex -14.2535 0 -8.50658
      vertex -14.2535 2 -8.50658
    endloop
  endfacet
  facet normal 0.453951 0 0.891027
    outer loop
      vertex -14.2535 0 -8.50658
      vertex -14.6717 2 -8.29352
      vertex -14.6717 0 -8.29352
    endloop
  endfacet
  facet normal 0.890975 -0 0.454053
    outer loop
      vertex -15.2166 0 -7.54352
      vertex -15.0035 2 -7.96168
      vertex -15.2166 2 -7.54352
    endloop
  endfacet
  facet normal 0.890975 0 0.454053
    outer loop
      vertex -15.0035 2 -7.96168
      vertex -15.2166 0 -7.54352
      vertex -15.0035 0 -7.96168
    endloop
  endfacet
  facet normal 0.987693 -0 0.156405
    outer loop
      vertex -15.29 0 -7.08
      vertex -15.2166 2 -7.54352
      vertex -15.29 2 -7.08
    endloop
  endfacet
  facet normal 0.987693 0 0.156405
    outer loop
      vertex -15.2166 2 -7.54352
      vertex -15.29 0 -7.08
      vertex -15.2166 0 -7.54352
    endloop
  endfacet
  facet normal -0.156453 0 0.987685
    outer loop
      vertex -13.79 2 -8.58
      vertex -13.3265 0 -8.50658
      vertex -13.3265 2 -8.50658
    endloop
  endfacet
  facet normal -0.156453 0 0.987685
    outer loop
      vertex -13.3265 0 -8.50658
      vertex -13.79 2 -8.58
      vertex -13.79 0 -8.58
    endloop
  endfacet
  facet normal -0.707149 0 0.707064
    outer loop
      vertex -12.9083 0 -8.29352
      vertex -12.5765 2 -7.96168
      vertex -12.9083 2 -8.29352
    endloop
  endfacet
  facet normal -0.707149 0 0.707064
    outer loop
      vertex -12.5765 2 -7.96168
      vertex -12.9083 0 -8.29352
      vertex -12.5765 0 -7.96168
    endloop
  endfacet
  facet normal 0.707149 -0 0.707064
    outer loop
      vertex -15.0035 0 -7.96168
      vertex -14.6717 2 -8.29352
      vertex -15.0035 2 -7.96168
    endloop
  endfacet
  facet normal 0.707149 0 0.707064
    outer loop
      vertex -14.6717 2 -8.29352
      vertex -15.0035 0 -7.96168
      vertex -14.6717 0 -8.29352
    endloop
  endfacet
  facet normal 0.156453 0 0.987685
    outer loop
      vertex -14.2535 2 -8.50658
      vertex -13.79 0 -8.58
      vertex -13.79 2 -8.58
    endloop
  endfacet
  facet normal 0.156453 0 0.987685
    outer loop
      vertex -13.79 0 -8.58
      vertex -14.2535 2 -8.50658
      vertex -14.2535 0 -8.50658
    endloop
  endfacet
  facet normal 0.987696 0 -0.156385
    outer loop
      vertex -15.2615 0 -6.9
      vertex -15.29 2 -7.08
      vertex -15.2615 2 -6.9
    endloop
  endfacet
  facet normal 0.987696 0 -0.156385
    outer loop
      vertex -15.29 2 -7.08
      vertex -15.2615 0 -6.9
      vertex -15.29 0 -7.08
    endloop
  endfacet
  facet normal -0.890975 0 0.454053
    outer loop
      vertex -12.5765 0 -7.96168
      vertex -12.3634 2 -7.54352
      vertex -12.5765 2 -7.96168
    endloop
  endfacet
  facet normal -0.890975 0 0.454053
    outer loop
      vertex -12.3634 2 -7.54352
      vertex -12.5765 0 -7.96168
      vertex -12.3634 0 -7.54352
    endloop
  endfacet
  facet normal -0.453951 0 0.891027
    outer loop
      vertex -13.3265 2 -8.50658
      vertex -12.9083 0 -8.29352
      vertex -12.9083 2 -8.29352
    endloop
  endfacet
  facet normal -0.453951 0 0.891027
    outer loop
      vertex -12.9083 0 -8.29352
      vertex -13.3265 2 -8.50658
      vertex -13.3265 0 -8.50658
    endloop
  endfacet
  facet normal -0.987693 0 0.156405
    outer loop
      vertex -12.3634 0 -7.54352
      vertex -12.29 2 -7.08
      vertex -12.3634 2 -7.54352
    endloop
  endfacet
  facet normal -0.987693 0 0.156405
    outer loop
      vertex -12.29 2 -7.08
      vertex -12.3634 0 -7.54352
      vertex -12.29 0 -7.08
    endloop
  endfacet
  facet normal -0.987696 0 -0.156385
    outer loop
      vertex -12.29 0 -7.08
      vertex -12.3185 2 -6.9
      vertex -12.29 2 -7.08
    endloop
  endfacet
  facet normal -0.987696 -0 -0.156385
    outer loop
      vertex -12.3185 2 -6.9
      vertex -12.29 0 -7.08
      vertex -12.3185 0 -6.9
    endloop
  endfacet
endsolid OpenSCAD_Model
