solid OpenSCAD_Model
  facet normal -1 0 0
    outer loop
      vertex 25.55 32.3604 3
      vertex 25.55 36 3.9
      vertex 25.55 36 3
    endloop
  endfacet
  facet normal -1 -0 0
    outer loop
      vertex 25.55 36 3.9
      vertex 25.55 32.3604 3
      vertex 25.55 32.3604 3.9
    endloop
  endfacet
  facet normal -1 0 0
    outer loop
      vertex 25.55 10 3
      vertex 25.55 29.4396 3.9
      vertex 25.55 29.4396 3
    endloop
  endfacet
  facet normal -1 -0 0
    outer loop
      vertex 25.55 29.4396 3.9
      vertex 25.55 10 3
      vertex 25.55 10 3.9
    endloop
  endfacet
  facet normal 0 0 1
    outer loop
      vertex 25.55 36 3
      vertex 25.3 32.4 3
      vertex 25.55 32.3604 3
    endloop
  endfacet
  facet normal 0 0 1
    outer loop
      vertex 25.55 36 3
      vertex 24.8365 32.3266 3
      vertex 25.3 32.4 3
    endloop
  endfacet
  facet normal 0 0 1
    outer loop
      vertex 25.55 36 3
      vertex 24.4183 32.1135 3
      vertex 24.8365 32.3266 3
    endloop
  endfacet
  facet normal 0 0 1
    outer loop
      vertex 25.55 36 3
      vertex 24.0865 31.7817 3
      vertex 24.4183 32.1135 3
    endloop
  endfacet
  facet normal 0 0 1
    outer loop
      vertex 3.71352 31.7817 3
      vertex 24.0865 31.7817 3
      vertex 25.55 36 3
    endloop
  endfacet
  facet normal 0 0 1
    outer loop
      vertex 4 30.9 3
      vertex 23.8 30.9 3
      vertex 23.8734 31.3635 3
    endloop
  endfacet
  facet normal 0 0 1
    outer loop
      vertex 23.8 30.9 3
      vertex 3.92658 30.4365 3
      vertex 19.05 16.8 3
    endloop
  endfacet
  facet normal 0 0 1
    outer loop
      vertex 24.0865 31.7817 3
      vertex 3.71352 31.7817 3
      vertex 23.8734 31.3635 3
    endloop
  endfacet
  facet normal 0 0 1
    outer loop
      vertex 19.05 16.8 3
      vertex 3.92658 30.4365 3
      vertex 8.25 16.8 3
    endloop
  endfacet
  facet normal 0 0 1
    outer loop
      vertex 23.8 30.9 3
      vertex 4 30.9 3
      vertex 3.92658 30.4365 3
    endloop
  endfacet
  facet normal 0 0 1
    outer loop
      vertex 23.8734 31.3635 3
      vertex 3.92658 31.3635 3
      vertex 4 30.9 3
    endloop
  endfacet
  facet normal 0 0 1
    outer loop
      vertex 23.8734 31.3635 3
      vertex 3.71352 31.7817 3
      vertex 3.92658 31.3635 3
    endloop
  endfacet
  facet normal -0 0 1
    outer loop
      vertex 2.25 36 3
      vertex 3.71352 31.7817 3
      vertex 25.55 36 3
    endloop
  endfacet
  facet normal 0 0 1
    outer loop
      vertex 3.71352 31.7817 3
      vertex 2.25 36 3
      vertex 3.38168 32.1135 3
    endloop
  endfacet
  facet normal 0 0 1
    outer loop
      vertex 3.38168 32.1135 3
      vertex 2.25 36 3
      vertex 2.96352 32.3266 3
    endloop
  endfacet
  facet normal 0 0 1
    outer loop
      vertex 2.96352 32.3266 3
      vertex 2.25 36 3
      vertex 2.5 32.4 3
    endloop
  endfacet
  facet normal 0 0 1
    outer loop
      vertex 2.5 32.4 3
      vertex 2.25 36 3
      vertex 2.25 32.3604 3
    endloop
  endfacet
  facet normal 0 0 1
    outer loop
      vertex 19.05 16.8 3
      vertex 25.55 29.4396 3
      vertex 25.3 29.4 3
    endloop
  endfacet
  facet normal 0 0 1
    outer loop
      vertex 19.05 16.8 3
      vertex 25.3 29.4 3
      vertex 24.8365 29.4734 3
    endloop
  endfacet
  facet normal 0 0 1
    outer loop
      vertex 19.05 16.8 3
      vertex 24.8365 29.4734 3
      vertex 24.4183 29.6865 3
    endloop
  endfacet
  facet normal 0 0 1
    outer loop
      vertex 19.05 16.8 3
      vertex 24.4183 29.6865 3
      vertex 24.0865 30.0183 3
    endloop
  endfacet
  facet normal 0 0 1
    outer loop
      vertex 19.05 16.8 3
      vertex 24.0865 30.0183 3
      vertex 23.8734 30.4365 3
    endloop
  endfacet
  facet normal 0 0 1
    outer loop
      vertex 19.05 16.8 3
      vertex 23.8734 30.4365 3
      vertex 23.8 30.9 3
    endloop
  endfacet
  facet normal 0 0 1
    outer loop
      vertex 25.55 29.4396 3
      vertex 19.05 16.8 3
      vertex 25.55 10 3
    endloop
  endfacet
  facet normal -0 0 1
    outer loop
      vertex 19.05 14 3
      vertex 25.55 10 3
      vertex 19.05 16.8 3
    endloop
  endfacet
  facet normal 0 0 1
    outer loop
      vertex 2.25 10 3
      vertex 19.05 14 3
      vertex 8.25 14 3
    endloop
  endfacet
  facet normal -0 0 1
    outer loop
      vertex 3.71352 30.0183 3
      vertex 8.25 16.8 3
      vertex 3.92658 30.4365 3
    endloop
  endfacet
  facet normal -0 0 1
    outer loop
      vertex 3.38168 29.6865 3
      vertex 8.25 16.8 3
      vertex 3.71352 30.0183 3
    endloop
  endfacet
  facet normal -0 0 1
    outer loop
      vertex 2.96352 29.4734 3
      vertex 8.25 16.8 3
      vertex 3.38168 29.6865 3
    endloop
  endfacet
  facet normal -0 0 1
    outer loop
      vertex 2.5 29.4 3
      vertex 8.25 16.8 3
      vertex 2.96352 29.4734 3
    endloop
  endfacet
  facet normal 0 0 1
    outer loop
      vertex 2.25 29.4396 3
      vertex 8.25 16.8 3
      vertex 2.5 29.4 3
    endloop
  endfacet
  facet normal 0 0 1
    outer loop
      vertex 2.25 10 3
      vertex 8.25 16.8 3
      vertex 2.25 29.4396 3
    endloop
  endfacet
  facet normal 0 0 1
    outer loop
      vertex 19.05 14 3
      vertex 2.25 10 3
      vertex 25.55 10 3
    endloop
  endfacet
  facet normal 0 0 1
    outer loop
      vertex 8.25 16.8 3
      vertex 2.25 10 3
      vertex 8.25 14 3
    endloop
  endfacet
  facet normal 1 -0 0
    outer loop
      vertex 2.25 10 3.9
      vertex 2.25 29.4396 3
      vertex 2.25 29.4396 3.9
    endloop
  endfacet
  facet normal 1 0 0
    outer loop
      vertex 2.25 29.4396 3
      vertex 2.25 10 3.9
      vertex 2.25 10 3
    endloop
  endfacet
  facet normal 1 -0 0
    outer loop
      vertex 2.25 32.3604 3.9
      vertex 2.25 36 3
      vertex 2.25 36 3.9
    endloop
  endfacet
  facet normal 1 0 0
    outer loop
      vertex 2.25 36 3
      vertex 2.25 32.3604 3.9
      vertex 2.25 32.3604 3
    endloop
  endfacet
  facet normal 0 -1 0
    outer loop
      vertex 2.25 36 3.9
      vertex 2.65 36 3.4
      vertex 2.65 36 3.9
    endloop
  endfacet
  facet normal 0 -1 -0
    outer loop
      vertex 2.65 36 3.4
      vertex 2.25 36 3
      vertex 25.15 36 3.4
    endloop
  endfacet
  facet normal 0 -1 0
    outer loop
      vertex 2.25 36 3
      vertex 2.65 36 3.4
      vertex 2.25 36 3.9
    endloop
  endfacet
  facet normal 0 -1 0
    outer loop
      vertex 25.15 36 3.4
      vertex 25.55 36 3.9
      vertex 25.15 36 3.9
    endloop
  endfacet
  facet normal 0 -1 0
    outer loop
      vertex 25.15 36 3.4
      vertex 25.55 36 3
      vertex 25.55 36 3.9
    endloop
  endfacet
  facet normal 0 -1 0
    outer loop
      vertex 25.55 36 3
      vertex 25.15 36 3.4
      vertex 2.25 36 3
    endloop
  endfacet
  facet normal 0 1 0
    outer loop
      vertex 25.55 10 3.9
      vertex 19.87 10 3.54
      vertex 19.87 10 3.9
    endloop
  endfacet
  facet normal 0 1 0
    outer loop
      vertex 19.87 10 3.54
      vertex 25.55 10 3
      vertex 7.71 10 3.54
    endloop
  endfacet
  facet normal 0 1 -0
    outer loop
      vertex 25.55 10 3
      vertex 19.87 10 3.54
      vertex 25.55 10 3.9
    endloop
  endfacet
  facet normal 0 1 -0
    outer loop
      vertex 7.71 10 3.54
      vertex 2.25 10 3.9
      vertex 7.71 10 3.9
    endloop
  endfacet
  facet normal 0 1 0
    outer loop
      vertex 7.71 10 3.54
      vertex 2.25 10 3
      vertex 2.25 10 3.9
    endloop
  endfacet
  facet normal 0 1 0
    outer loop
      vertex 2.25 10 3
      vertex 7.71 10 3.54
      vertex 25.55 10 3
    endloop
  endfacet
  facet normal -1 0 0
    outer loop
      vertex 25.15 36 3.4
      vertex 25.15 46 3.9
      vertex 25.15 46 3.4
    endloop
  endfacet
  facet normal -1 -0 0
    outer loop
      vertex 25.15 46 3.9
      vertex 25.15 36 3.4
      vertex 25.15 36 3.9
    endloop
  endfacet
  facet normal -0 0 1
    outer loop
      vertex 2.65 46 3.4
      vertex 25.15 36 3.4
      vertex 25.15 46 3.4
    endloop
  endfacet
  facet normal 0 0 1
    outer loop
      vertex 25.15 36 3.4
      vertex 2.65 46 3.4
      vertex 2.65 36 3.4
    endloop
  endfacet
  facet normal 1 -0 0
    outer loop
      vertex 2.65 36 3.9
      vertex 2.65 46 3.4
      vertex 2.65 46 3.9
    endloop
  endfacet
  facet normal 1 0 0
    outer loop
      vertex 2.65 46 3.4
      vertex 2.65 36 3.9
      vertex 2.65 36 3.4
    endloop
  endfacet
  facet normal -1 0 0
    outer loop
      vertex 19.05 14 1.01
      vertex 19.05 16.8 3
      vertex 19.05 16.8 1.01
    endloop
  endfacet
  facet normal -1 -0 0
    outer loop
      vertex 19.05 16.8 3
      vertex 19.05 14 1.01
      vertex 19.05 14 3
    endloop
  endfacet
  facet normal -0 0 1
    outer loop
      vertex 8.25 16.8 1.01
      vertex 19.05 14 1.01
      vertex 19.05 16.8 1.01
    endloop
  endfacet
  facet normal 0 0 1
    outer loop
      vertex 19.05 14 1.01
      vertex 8.25 16.8 1.01
      vertex 8.25 14 1.01
    endloop
  endfacet
  facet normal 1 -0 0
    outer loop
      vertex 8.25 14 3
      vertex 8.25 16.8 1.01
      vertex 8.25 16.8 3
    endloop
  endfacet
  facet normal 1 0 0
    outer loop
      vertex 8.25 16.8 1.01
      vertex 8.25 14 3
      vertex 8.25 14 1.01
    endloop
  endfacet
  facet normal 0 -1 0
    outer loop
      vertex 8.25 16.8 1.01
      vertex 19.05 16.8 3
      vertex 8.25 16.8 3
    endloop
  endfacet
  facet normal 0 -1 -0
    outer loop
      vertex 19.05 16.8 3
      vertex 8.25 16.8 1.01
      vertex 19.05 16.8 1.01
    endloop
  endfacet
  facet normal 0 1 -0
    outer loop
      vertex 19.05 14 1.01
      vertex 8.25 14 3
      vertex 19.05 14 3
    endloop
  endfacet
  facet normal 0 1 0
    outer loop
      vertex 8.25 14 3
      vertex 19.05 14 1.01
      vertex 8.25 14 1.01
    endloop
  endfacet
  facet normal 1 -0 0
    outer loop
      vertex 27.8 0 3.9
      vertex 27.8 46 0
      vertex 27.8 46 3.9
    endloop
  endfacet
  facet normal 1 0 0
    outer loop
      vertex 27.8 46 0
      vertex 27.8 0 3.9
      vertex 27.8 0 0
    endloop
  endfacet
  facet normal 0 0 -1
    outer loop
      vertex 23.8734 30.4365 0
      vertex 3.92658 30.4365 0
      vertex 4 30.9 0
    endloop
  endfacet
  facet normal 0 0 -1
    outer loop
      vertex 2.96352 29.4734 0
      vertex 4.21352 5.42658 0
      vertex 3.75 5.5 0
    endloop
  endfacet
  facet normal 0 0 -1
    outer loop
      vertex 4.63168 5.21352 0
      vertex 3.71352 30.0183 0
      vertex 3.92658 30.4365 0
    endloop
  endfacet
  facet normal 0 0 -1
    outer loop
      vertex 4.63168 5.21352 0
      vertex 3.38168 29.6865 0
      vertex 3.71352 30.0183 0
    endloop
  endfacet
  facet normal 0 0 -1
    outer loop
      vertex 2.5 29.4 0
      vertex 3.75 5.5 0
      vertex 3.28647 5.42658 0
    endloop
  endfacet
  facet normal 0 0 -1
    outer loop
      vertex 4.21352 5.42658 0
      vertex 2.96352 29.4734 0
      vertex 3.38168 29.6865 0
    endloop
  endfacet
  facet normal 0 0 -1
    outer loop
      vertex 2.03647 29.4734 0
      vertex 3.28647 5.42658 0
      vertex 2.86832 5.21352 0
    endloop
  endfacet
  facet normal 0 0 -1
    outer loop
      vertex 1.61832 29.6865 0
      vertex 2.86832 5.21352 0
      vertex 2.53647 4.88168 0
    endloop
  endfacet
  facet normal 0 0 -1
    outer loop
      vertex 3.75 5.5 0
      vertex 2.5 29.4 0
      vertex 2.96352 29.4734 0
    endloop
  endfacet
  facet normal 0 0 -1
    outer loop
      vertex 1.28647 30.0183 0
      vertex 2.53647 4.88168 0
      vertex 2.32341 4.46352 0
    endloop
  endfacet
  facet normal 0 0 -1
    outer loop
      vertex 0 0 0
      vertex 2.32341 4.46352 0
      vertex 2.25 4 0
    endloop
  endfacet
  facet normal 0 0 -1
    outer loop
      vertex 3.28647 5.42658 0
      vertex 2.03647 29.4734 0
      vertex 2.5 29.4 0
    endloop
  endfacet
  facet normal 0 0 -1
    outer loop
      vertex 27.8 0 0
      vertex 26.8 30.9 0
      vertex 27.8 46 0
    endloop
  endfacet
  facet normal 0 0 -1
    outer loop
      vertex 27.8 0 0
      vertex 26.7266 30.4365 0
      vertex 26.8 30.9 0
    endloop
  endfacet
  facet normal 0 0 -1
    outer loop
      vertex 27.8 0 0
      vertex 26.5135 30.0183 0
      vertex 26.7266 30.4365 0
    endloop
  endfacet
  facet normal 0 0 -1
    outer loop
      vertex 25.4766 4.46352 0
      vertex 26.5135 30.0183 0
      vertex 27.8 0 0
    endloop
  endfacet
  facet normal 0 0 -1
    outer loop
      vertex 25.2635 4.88168 0
      vertex 26.5135 30.0183 0
      vertex 25.4766 4.46352 0
    endloop
  endfacet
  facet normal 0 0 -1
    outer loop
      vertex 25.4766 4.46352 0
      vertex 27.8 0 0
      vertex 25.55 4 0
    endloop
  endfacet
  facet normal 0 0 -1
    outer loop
      vertex 27.8 0 0
      vertex 25.4766 3.53647 0
      vertex 25.55 4 0
    endloop
  endfacet
  facet normal 0 0 -1
    outer loop
      vertex 27.8 0 0
      vertex 25.2635 3.11832 0
      vertex 25.4766 3.53647 0
    endloop
  endfacet
  facet normal 0 0 -1
    outer loop
      vertex 27.8 0 0
      vertex 24.9317 2.78647 0
      vertex 25.2635 3.11832 0
    endloop
  endfacet
  facet normal 0 0 -1
    outer loop
      vertex 27.8 0 0
      vertex 24.5135 2.57341 0
      vertex 24.9317 2.78647 0
    endloop
  endfacet
  facet normal 0 0 -1
    outer loop
      vertex 27.8 0 0
      vertex 24.05 2.5 0
      vertex 24.5135 2.57341 0
    endloop
  endfacet
  facet normal 0 0 -1
    outer loop
      vertex 27.8 0 0
      vertex 23.5865 2.57341 0
      vertex 24.05 2.5 0
    endloop
  endfacet
  facet normal 0 0 -1
    outer loop
      vertex 4.21352 2.57341 0
      vertex 23.5865 2.57341 0
      vertex 27.8 0 0
    endloop
  endfacet
  facet normal 0 0 -1
    outer loop
      vertex 22.6234 3.53647 0
      vertex 5.25 4 0
      vertex 22.55 4 0
    endloop
  endfacet
  facet normal 0 0 -1
    outer loop
      vertex 5.17658 3.53647 0
      vertex 22.6234 3.53647 0
      vertex 22.8365 3.11832 0
    endloop
  endfacet
  facet normal 0 0 -1
    outer loop
      vertex 4.96352 3.11832 0
      vertex 22.8365 3.11832 0
      vertex 23.1683 2.78647 0
    endloop
  endfacet
  facet normal 0 0 -1
    outer loop
      vertex 23.5865 2.57341 0
      vertex 4.21352 2.57341 0
      vertex 23.1683 2.78647 0
    endloop
  endfacet
  facet normal 0 0 -1
    outer loop
      vertex 22.6234 3.53647 0
      vertex 5.17658 3.53647 0
      vertex 5.25 4 0
    endloop
  endfacet
  facet normal 0 0 -1
    outer loop
      vertex 22.8365 3.11832 0
      vertex 4.96352 3.11832 0
      vertex 5.17658 3.53647 0
    endloop
  endfacet
  facet normal 0 0 -1
    outer loop
      vertex 23.1683 2.78647 0
      vertex 4.63168 2.78647 0
      vertex 4.96352 3.11832 0
    endloop
  endfacet
  facet normal -0 0 -1
    outer loop
      vertex 23.1683 2.78647 0
      vertex 4.21352 2.57341 0
      vertex 4.63168 2.78647 0
    endloop
  endfacet
  facet normal 0 0 -1
    outer loop
      vertex 0 0 0
      vertex 4.21352 2.57341 0
      vertex 27.8 0 0
    endloop
  endfacet
  facet normal 0 0 -1
    outer loop
      vertex 2.86832 5.21352 0
      vertex 1.61832 29.6865 0
      vertex 2.03647 29.4734 0
    endloop
  endfacet
  facet normal 0 0 -1
    outer loop
      vertex 2.53647 4.88168 0
      vertex 1.28647 30.0183 0
      vertex 1.61832 29.6865 0
    endloop
  endfacet
  facet normal -0 0 -1
    outer loop
      vertex 2.32341 4.46352 0
      vertex 0 0 0
      vertex 1.28647 30.0183 0
    endloop
  endfacet
  facet normal -0 0 -1
    outer loop
      vertex 1.28647 30.0183 0
      vertex 0 0 0
      vertex 1.07341 30.4365 0
    endloop
  endfacet
  facet normal -0 0 -1
    outer loop
      vertex 1.07341 30.4365 0
      vertex 0 0 0
      vertex 1 30.9 0
    endloop
  endfacet
  facet normal -0 0 -1
    outer loop
      vertex 2.32341 3.53647 0
      vertex 0 0 0
      vertex 2.25 4 0
    endloop
  endfacet
  facet normal -0 0 -1
    outer loop
      vertex 2.53647 3.11832 0
      vertex 0 0 0
      vertex 2.32341 3.53647 0
    endloop
  endfacet
  facet normal -0 0 -1
    outer loop
      vertex 2.86832 2.78647 0
      vertex 0 0 0
      vertex 2.53647 3.11832 0
    endloop
  endfacet
  facet normal -0 0 -1
    outer loop
      vertex 3.28647 2.57341 0
      vertex 0 0 0
      vertex 2.86832 2.78647 0
    endloop
  endfacet
  facet normal -0 0 -1
    outer loop
      vertex 3.75 2.5 0
      vertex 0 0 0
      vertex 3.28647 2.57341 0
    endloop
  endfacet
  facet normal 0 0 -1
    outer loop
      vertex 4.21352 2.57341 0
      vertex 0 0 0
      vertex 3.75 2.5 0
    endloop
  endfacet
  facet normal 0 0 -1
    outer loop
      vertex 26.7266 31.3635 0
      vertex 27.8 46 0
      vertex 26.8 30.9 0
    endloop
  endfacet
  facet normal 0 0 -1
    outer loop
      vertex 26.5135 31.7817 0
      vertex 27.8 46 0
      vertex 26.7266 31.3635 0
    endloop
  endfacet
  facet normal 0 0 -1
    outer loop
      vertex 26.1817 32.1135 0
      vertex 27.8 46 0
      vertex 26.5135 31.7817 0
    endloop
  endfacet
  facet normal 0 0 -1
    outer loop
      vertex 25.7635 32.3266 0
      vertex 27.8 46 0
      vertex 26.1817 32.1135 0
    endloop
  endfacet
  facet normal 0 0 -1
    outer loop
      vertex 25.3 32.4 0
      vertex 27.8 46 0
      vertex 25.7635 32.3266 0
    endloop
  endfacet
  facet normal 0 0 -1
    outer loop
      vertex 24.8365 32.3266 0
      vertex 27.8 46 0
      vertex 25.3 32.4 0
    endloop
  endfacet
  facet normal 0 0 -1
    outer loop
      vertex 24.4183 32.1135 0
      vertex 27.8 46 0
      vertex 24.8365 32.3266 0
    endloop
  endfacet
  facet normal 0 0 -1
    outer loop
      vertex 24.0865 31.7817 0
      vertex 27.8 46 0
      vertex 24.4183 32.1135 0
    endloop
  endfacet
  facet normal 0 0 -1
    outer loop
      vertex 3.71352 31.7817 0
      vertex 24.0865 31.7817 0
      vertex 23.8734 31.3635 0
    endloop
  endfacet
  facet normal 0 0 -1
    outer loop
      vertex 3.92658 30.4365 0
      vertex 24.0865 30.0183 0
      vertex 24.4183 29.6865 0
    endloop
  endfacet
  facet normal 0 0 -1
    outer loop
      vertex 4.63168 5.21352 0
      vertex 23.1683 5.21352 0
      vertex 22.8365 4.88168 0
    endloop
  endfacet
  facet normal 0 0 -1
    outer loop
      vertex 4.96352 4.88168 0
      vertex 22.8365 4.88168 0
      vertex 22.6234 4.46352 0
    endloop
  endfacet
  facet normal 0 0 -1
    outer loop
      vertex 5.17658 4.46352 0
      vertex 22.6234 4.46352 0
      vertex 22.55 4 0
    endloop
  endfacet
  facet normal 0 0 -1
    outer loop
      vertex 5.17658 4.46352 0
      vertex 22.55 4 0
      vertex 5.25 4 0
    endloop
  endfacet
  facet normal 0 0 -1
    outer loop
      vertex 22.6234 4.46352 0
      vertex 5.17658 4.46352 0
      vertex 4.96352 4.88168 0
    endloop
  endfacet
  facet normal 0 0 -1
    outer loop
      vertex 22.8365 4.88168 0
      vertex 4.96352 4.88168 0
      vertex 4.63168 5.21352 0
    endloop
  endfacet
  facet normal 0 0 -1
    outer loop
      vertex 3.92658 30.4365 0
      vertex 23.8734 30.4365 0
      vertex 24.0865 30.0183 0
    endloop
  endfacet
  facet normal 0 0 -1
    outer loop
      vertex 23.8734 30.4365 0
      vertex 4 30.9 0
      vertex 23.8 30.9 0
    endloop
  endfacet
  facet normal 0 0 -1
    outer loop
      vertex 23.8 30.9 0
      vertex 4 30.9 0
      vertex 23.8734 31.3635 0
    endloop
  endfacet
  facet normal 0 0 -1
    outer loop
      vertex 3.38168 29.6865 0
      vertex 4.63168 5.21352 0
      vertex 4.21352 5.42658 0
    endloop
  endfacet
  facet normal 0 0 -1
    outer loop
      vertex 3.92658 31.3635 0
      vertex 23.8734 31.3635 0
      vertex 4 30.9 0
    endloop
  endfacet
  facet normal 0 0 -1
    outer loop
      vertex 3.71352 31.7817 0
      vertex 23.8734 31.3635 0
      vertex 3.92658 31.3635 0
    endloop
  endfacet
  facet normal 0 0 -1
    outer loop
      vertex 24.0865 31.7817 0
      vertex 3.71352 31.7817 0
      vertex 27.8 46 0
    endloop
  endfacet
  facet normal 0 0 -1
    outer loop
      vertex 0 46 0
      vertex 3.71352 31.7817 0
      vertex 3.38168 32.1135 0
    endloop
  endfacet
  facet normal 0 0 -1
    outer loop
      vertex 0 46 0
      vertex 3.38168 32.1135 0
      vertex 2.96352 32.3266 0
    endloop
  endfacet
  facet normal 0 0 -1
    outer loop
      vertex 0 46 0
      vertex 2.96352 32.3266 0
      vertex 2.5 32.4 0
    endloop
  endfacet
  facet normal 0 0 -1
    outer loop
      vertex 0 46 0
      vertex 2.5 32.4 0
      vertex 2.03647 32.3266 0
    endloop
  endfacet
  facet normal 0 0 -1
    outer loop
      vertex 0 46 0
      vertex 2.03647 32.3266 0
      vertex 1.61832 32.1135 0
    endloop
  endfacet
  facet normal 0 0 -1
    outer loop
      vertex 3.71352 31.7817 0
      vertex 0 46 0
      vertex 27.8 46 0
    endloop
  endfacet
  facet normal 0 0 -1
    outer loop
      vertex 1.28647 31.7817 0
      vertex 0 46 0
      vertex 1.61832 32.1135 0
    endloop
  endfacet
  facet normal 0 0 -1
    outer loop
      vertex 1.07341 31.3635 0
      vertex 0 46 0
      vertex 1.28647 31.7817 0
    endloop
  endfacet
  facet normal 0 0 -1
    outer loop
      vertex 1 30.9 0
      vertex 0 46 0
      vertex 1.07341 31.3635 0
    endloop
  endfacet
  facet normal 0 0 -1
    outer loop
      vertex 0 46 0
      vertex 1 30.9 0
      vertex 0 0 0
    endloop
  endfacet
  facet normal 0 0 -1
    outer loop
      vertex 26.5135 30.0183 0
      vertex 25.2635 4.88168 0
      vertex 26.1817 29.6865 0
    endloop
  endfacet
  facet normal 0 0 -1
    outer loop
      vertex 24.9317 5.21352 0
      vertex 26.1817 29.6865 0
      vertex 25.2635 4.88168 0
    endloop
  endfacet
  facet normal 0 0 -1
    outer loop
      vertex 26.1817 29.6865 0
      vertex 24.9317 5.21352 0
      vertex 25.7635 29.4734 0
    endloop
  endfacet
  facet normal 0 0 -1
    outer loop
      vertex 24.5135 5.42658 0
      vertex 25.7635 29.4734 0
      vertex 24.9317 5.21352 0
    endloop
  endfacet
  facet normal 0 0 -1
    outer loop
      vertex 25.7635 29.4734 0
      vertex 24.5135 5.42658 0
      vertex 25.3 29.4 0
    endloop
  endfacet
  facet normal 0 0 -1
    outer loop
      vertex 24.05 5.5 0
      vertex 25.3 29.4 0
      vertex 24.5135 5.42658 0
    endloop
  endfacet
  facet normal -0 0 -1
    outer loop
      vertex 25.3 29.4 0
      vertex 24.05 5.5 0
      vertex 24.8365 29.4734 0
    endloop
  endfacet
  facet normal 0 0 -1
    outer loop
      vertex 23.5865 5.42658 0
      vertex 24.8365 29.4734 0
      vertex 24.05 5.5 0
    endloop
  endfacet
  facet normal -0 0 -1
    outer loop
      vertex 24.8365 29.4734 0
      vertex 23.5865 5.42658 0
      vertex 24.4183 29.6865 0
    endloop
  endfacet
  facet normal 0 0 -1
    outer loop
      vertex 23.1683 5.21352 0
      vertex 24.4183 29.6865 0
      vertex 23.5865 5.42658 0
    endloop
  endfacet
  facet normal 0 0 -1
    outer loop
      vertex 4.63168 5.21352 0
      vertex 24.4183 29.6865 0
      vertex 23.1683 5.21352 0
    endloop
  endfacet
  facet normal 0 0 -1
    outer loop
      vertex 3.92658 30.4365 0
      vertex 24.4183 29.6865 0
      vertex 4.63168 5.21352 0
    endloop
  endfacet
  facet normal -1 0 0
    outer loop
      vertex 0 0 0
      vertex 0 46 3.9
      vertex 0 46 0
    endloop
  endfacet
  facet normal -1 -0 0
    outer loop
      vertex 0 46 3.9
      vertex 0 0 0
      vertex 0 0 3.9
    endloop
  endfacet
  facet normal 0 1 0
    outer loop
      vertex 27.8 46 3.9
      vertex 25.15 46 3.4
      vertex 25.15 46 3.9
    endloop
  endfacet
  facet normal 0 1 0
    outer loop
      vertex 25.15 46 3.4
      vertex 27.8 46 0
      vertex 2.65 46 3.4
    endloop
  endfacet
  facet normal 0 1 -0
    outer loop
      vertex 27.8 46 0
      vertex 25.15 46 3.4
      vertex 27.8 46 3.9
    endloop
  endfacet
  facet normal 0 1 -0
    outer loop
      vertex 2.65 46 3.4
      vertex 0 46 3.9
      vertex 2.65 46 3.9
    endloop
  endfacet
  facet normal 0 1 0
    outer loop
      vertex 2.65 46 3.4
      vertex 0 46 0
      vertex 0 46 3.9
    endloop
  endfacet
  facet normal 0 1 0
    outer loop
      vertex 0 46 0
      vertex 2.65 46 3.4
      vertex 27.8 46 0
    endloop
  endfacet
  facet normal 0 -1 0
    outer loop
      vertex 0 0 3.9
      vertex 7.71 0 2.9
      vertex 7.71 0 3.9
    endloop
  endfacet
  facet normal 0 -1 -0
    outer loop
      vertex 7.71 0 2.9
      vertex 0 0 0
      vertex 19.87 0 2.9
    endloop
  endfacet
  facet normal 0 -1 0
    outer loop
      vertex 0 0 0
      vertex 7.71 0 2.9
      vertex 0 0 3.9
    endloop
  endfacet
  facet normal 0 -1 0
    outer loop
      vertex 19.87 0 2.9
      vertex 27.8 0 3.9
      vertex 19.87 0 3.9
    endloop
  endfacet
  facet normal 0 -1 0
    outer loop
      vertex 27.8 0 0
      vertex 19.87 0 2.9
      vertex 0 0 0
    endloop
  endfacet
  facet normal 0 -1 0
    outer loop
      vertex 19.87 0 2.9
      vertex 27.8 0 0
      vertex 27.8 0 3.9
    endloop
  endfacet
  facet normal -0.891027 -0.453951 0
    outer loop
      vertex 3.92658 31.3635 0
      vertex 3.71352 31.7817 3
      vertex 3.71352 31.7817 0
    endloop
  endfacet
  facet normal -0.891027 -0.453951 0
    outer loop
      vertex 3.71352 31.7817 3
      vertex 3.92658 31.3635 0
      vertex 3.92658 31.3635 3
    endloop
  endfacet
  facet normal -0.987685 -0.156453 0
    outer loop
      vertex 4 30.9 0
      vertex 3.92658 31.3635 3
      vertex 3.92658 31.3635 0
    endloop
  endfacet
  facet normal -0.987685 -0.156453 0
    outer loop
      vertex 3.92658 31.3635 3
      vertex 4 30.9 0
      vertex 4 30.9 3
    endloop
  endfacet
  facet normal -0.707064 -0.707149 0
    outer loop
      vertex 3.71352 31.7817 0
      vertex 3.38168 32.1135 3
      vertex 3.38168 32.1135 0
    endloop
  endfacet
  facet normal -0.707064 -0.707149 0
    outer loop
      vertex 3.38168 32.1135 3
      vertex 3.71352 31.7817 0
      vertex 3.71352 31.7817 3
    endloop
  endfacet
  facet normal 0.987689 0.156432 0
    outer loop
      vertex 1.07341 30.4365 3.9
      vertex 1 30.9 0
      vertex 1 30.9 3.9
    endloop
  endfacet
  facet normal 0.987689 0.156432 0
    outer loop
      vertex 1 30.9 0
      vertex 1.07341 30.4365 3.9
      vertex 1.07341 30.4365 0
    endloop
  endfacet
  facet normal -0.454053 0.890975 0
    outer loop
      vertex 3.38168 29.6865 0
      vertex 2.96352 29.4734 3
      vertex 3.38168 29.6865 3
    endloop
  endfacet
  facet normal -0.454053 0.890975 0
    outer loop
      vertex 2.96352 29.4734 3
      vertex 3.38168 29.6865 0
      vertex 2.96352 29.4734 0
    endloop
  endfacet
  facet normal -0.891027 0.453951 0
    outer loop
      vertex 3.71352 30.0183 0
      vertex 3.92658 30.4365 3
      vertex 3.92658 30.4365 0
    endloop
  endfacet
  facet normal -0.891027 0.453951 0
    outer loop
      vertex 3.92658 30.4365 3
      vertex 3.71352 30.0183 0
      vertex 3.71352 30.0183 3
    endloop
  endfacet
  facet normal -0.454053 -0.890975 0
    outer loop
      vertex 2.96352 32.3266 0
      vertex 3.38168 32.1135 3
      vertex 2.96352 32.3266 3
    endloop
  endfacet
  facet normal -0.454053 -0.890975 -0
    outer loop
      vertex 3.38168 32.1135 3
      vertex 2.96352 32.3266 0
      vertex 3.38168 32.1135 0
    endloop
  endfacet
  facet normal 0.707054 -0.70716 0
    outer loop
      vertex 1.28647 31.7817 3.9
      vertex 1.61832 32.1135 0
      vertex 1.61832 32.1135 3.9
    endloop
  endfacet
  facet normal 0.707054 -0.70716 0
    outer loop
      vertex 1.61832 32.1135 0
      vertex 1.28647 31.7817 3.9
      vertex 1.28647 31.7817 0
    endloop
  endfacet
  facet normal 0.156345 -0.987703 0
    outer loop
      vertex 2.03647 32.3266 3.9
      vertex 2.25 32.3604 3
      vertex 2.25 32.3604 3.9
    endloop
  endfacet
  facet normal 0.156345 -0.987703 0
    outer loop
      vertex 2.03647 32.3266 0
      vertex 2.25 32.3604 3
      vertex 2.03647 32.3266 3.9
    endloop
  endfacet
  facet normal 0.156401 -0.987694 -4.11104e-06
    outer loop
      vertex 2.5 32.4 0
      vertex 2.25 32.3604 3
      vertex 2.03647 32.3266 0
    endloop
  endfacet
  facet normal 0.156449 -0.987686 0
    outer loop
      vertex 2.25 32.3604 3
      vertex 2.5 32.4 0
      vertex 2.5 32.4 3
    endloop
  endfacet
  facet normal 0.454061 -0.89097 0
    outer loop
      vertex 1.61832 32.1135 0
      vertex 2.03647 32.3266 3.9
      vertex 1.61832 32.1135 3.9
    endloop
  endfacet
  facet normal 0.454061 -0.89097 0
    outer loop
      vertex 2.03647 32.3266 3.9
      vertex 1.61832 32.1135 0
      vertex 2.03647 32.3266 0
    endloop
  endfacet
  facet normal 0.156449 0.987686 0
    outer loop
      vertex 2.5 29.4 3
      vertex 2.5 29.4 0
      vertex 2.25 29.4396 3
    endloop
  endfacet
  facet normal 0.156345 0.987703 -0
    outer loop
      vertex 2.25 29.4396 3
      vertex 2.03647 29.4734 3.9
      vertex 2.25 29.4396 3.9
    endloop
  endfacet
  facet normal 0.156401 0.987694 -4.11104e-06
    outer loop
      vertex 2.03647 29.4734 0
      vertex 2.25 29.4396 3
      vertex 2.5 29.4 0
    endloop
  endfacet
  facet normal 0.156345 0.987703 0
    outer loop
      vertex 2.25 29.4396 3
      vertex 2.03647 29.4734 0
      vertex 2.03647 29.4734 3.9
    endloop
  endfacet
  facet normal 0.454061 0.89097 -0
    outer loop
      vertex 2.03647 29.4734 0
      vertex 1.61832 29.6865 3.9
      vertex 2.03647 29.4734 3.9
    endloop
  endfacet
  facet normal 0.454061 0.89097 0
    outer loop
      vertex 1.61832 29.6865 3.9
      vertex 2.03647 29.4734 0
      vertex 1.61832 29.6865 0
    endloop
  endfacet
  facet normal -0.987685 0.156453 0
    outer loop
      vertex 3.92658 30.4365 0
      vertex 4 30.9 3
      vertex 4 30.9 0
    endloop
  endfacet
  facet normal -0.987685 0.156453 0
    outer loop
      vertex 4 30.9 3
      vertex 3.92658 30.4365 0
      vertex 3.92658 30.4365 3
    endloop
  endfacet
  facet normal 0.891027 0.453951 0
    outer loop
      vertex 1.28647 30.0183 3.9
      vertex 1.07341 30.4365 0
      vertex 1.07341 30.4365 3.9
    endloop
  endfacet
  facet normal 0.891027 0.453951 0
    outer loop
      vertex 1.07341 30.4365 0
      vertex 1.28647 30.0183 3.9
      vertex 1.28647 30.0183 0
    endloop
  endfacet
  facet normal 0.891027 -0.453951 0
    outer loop
      vertex 1.07341 31.3635 3.9
      vertex 1.28647 31.7817 0
      vertex 1.28647 31.7817 3.9
    endloop
  endfacet
  facet normal 0.891027 -0.453951 0
    outer loop
      vertex 1.28647 31.7817 0
      vertex 1.07341 31.3635 3.9
      vertex 1.07341 31.3635 0
    endloop
  endfacet
  facet normal -0.156405 0.987693 0
    outer loop
      vertex 2.96352 29.4734 0
      vertex 2.5 29.4 3
      vertex 2.96352 29.4734 3
    endloop
  endfacet
  facet normal -0.156405 0.987693 0
    outer loop
      vertex 2.5 29.4 3
      vertex 2.96352 29.4734 0
      vertex 2.5 29.4 0
    endloop
  endfacet
  facet normal 0.987689 -0.156432 0
    outer loop
      vertex 1 30.9 3.9
      vertex 1.07341 31.3635 0
      vertex 1.07341 31.3635 3.9
    endloop
  endfacet
  facet normal 0.987689 -0.156432 0
    outer loop
      vertex 1.07341 31.3635 0
      vertex 1 30.9 3.9
      vertex 1 30.9 0
    endloop
  endfacet
  facet normal 0.707054 0.70716 0
    outer loop
      vertex 1.61832 29.6865 3.9
      vertex 1.28647 30.0183 0
      vertex 1.28647 30.0183 3.9
    endloop
  endfacet
  facet normal 0.707054 0.70716 0
    outer loop
      vertex 1.28647 30.0183 0
      vertex 1.61832 29.6865 3.9
      vertex 1.61832 29.6865 0
    endloop
  endfacet
  facet normal -0.156405 -0.987693 0
    outer loop
      vertex 2.5 32.4 0
      vertex 2.96352 32.3266 3
      vertex 2.5 32.4 3
    endloop
  endfacet
  facet normal -0.156405 -0.987693 -0
    outer loop
      vertex 2.96352 32.3266 3
      vertex 2.5 32.4 0
      vertex 2.96352 32.3266 0
    endloop
  endfacet
  facet normal -0.707064 0.707149 0
    outer loop
      vertex 3.38168 29.6865 0
      vertex 3.71352 30.0183 3
      vertex 3.71352 30.0183 0
    endloop
  endfacet
  facet normal -0.707064 0.707149 0
    outer loop
      vertex 3.71352 30.0183 3
      vertex 3.38168 29.6865 0
      vertex 3.38168 29.6865 3
    endloop
  endfacet
  facet normal -0.890992 -0.454018 0
    outer loop
      vertex 26.7266 31.3635 0
      vertex 26.5135 31.7817 3.9
      vertex 26.5135 31.7817 0
    endloop
  endfacet
  facet normal -0.890992 -0.454018 0
    outer loop
      vertex 26.5135 31.7817 3.9
      vertex 26.7266 31.3635 0
      vertex 26.7266 31.3635 3.9
    endloop
  endfacet
  facet normal -0.987692 -0.156411 0
    outer loop
      vertex 26.8 30.9 0
      vertex 26.7266 31.3635 3.9
      vertex 26.7266 31.3635 0
    endloop
  endfacet
  facet normal -0.987692 -0.156411 0
    outer loop
      vertex 26.7266 31.3635 3.9
      vertex 26.8 30.9 0
      vertex 26.8 30.9 3.9
    endloop
  endfacet
  facet normal -0.707107 -0.707107 0
    outer loop
      vertex 26.5135 31.7817 0
      vertex 26.1817 32.1135 3.9
      vertex 26.1817 32.1135 0
    endloop
  endfacet
  facet normal -0.707107 -0.707107 0
    outer loop
      vertex 26.1817 32.1135 3.9
      vertex 26.5135 31.7817 0
      vertex 26.5135 31.7817 3.9
    endloop
  endfacet
  facet normal -0.454018 0.890992 0
    outer loop
      vertex 26.1817 29.6865 0
      vertex 25.7635 29.4734 3.9
      vertex 26.1817 29.6865 3.9
    endloop
  endfacet
  facet normal -0.454018 0.890992 0
    outer loop
      vertex 25.7635 29.4734 3.9
      vertex 26.1817 29.6865 0
      vertex 25.7635 29.4734 0
    endloop
  endfacet
  facet normal 0.454018 -0.890992 0
    outer loop
      vertex 24.4183 32.1135 0
      vertex 24.8365 32.3266 3
      vertex 24.4183 32.1135 3
    endloop
  endfacet
  facet normal 0.454018 -0.890992 0
    outer loop
      vertex 24.8365 32.3266 3
      vertex 24.4183 32.1135 0
      vertex 24.8365 32.3266 0
    endloop
  endfacet
  facet normal 0.707107 -0.707107 0
    outer loop
      vertex 24.0865 31.7817 3
      vertex 24.4183 32.1135 0
      vertex 24.4183 32.1135 3
    endloop
  endfacet
  facet normal 0.707107 -0.707107 0
    outer loop
      vertex 24.4183 32.1135 0
      vertex 24.0865 31.7817 3
      vertex 24.0865 31.7817 0
    endloop
  endfacet
  facet normal -0.987692 0.156411 0
    outer loop
      vertex 26.7266 30.4365 0
      vertex 26.8 30.9 3.9
      vertex 26.8 30.9 0
    endloop
  endfacet
  facet normal -0.987692 0.156411 0
    outer loop
      vertex 26.8 30.9 3.9
      vertex 26.7266 30.4365 0
      vertex 26.7266 30.4365 3.9
    endloop
  endfacet
  facet normal 0.156411 0.987692 -0
    outer loop
      vertex 25.3 29.4 0
      vertex 24.8365 29.4734 3
      vertex 25.3 29.4 3
    endloop
  endfacet
  facet normal 0.156411 0.987692 0
    outer loop
      vertex 24.8365 29.4734 3
      vertex 25.3 29.4 0
      vertex 24.8365 29.4734 0
    endloop
  endfacet
  facet normal -0.156449 -0.987686 -0
    outer loop
      vertex 25.3 32.4 3
      vertex 25.3 32.4 0
      vertex 25.55 32.3604 3
    endloop
  endfacet
  facet normal -0.156366 -0.987699 0
    outer loop
      vertex 25.55 32.3604 3
      vertex 25.7635 32.3266 3.9
      vertex 25.55 32.3604 3.9
    endloop
  endfacet
  facet normal -0.156411 -0.987692 -3.26745e-06
    outer loop
      vertex 25.7635 32.3266 0
      vertex 25.55 32.3604 3
      vertex 25.3 32.4 0
    endloop
  endfacet
  facet normal -0.156366 -0.987699 0
    outer loop
      vertex 25.55 32.3604 3
      vertex 25.7635 32.3266 0
      vertex 25.7635 32.3266 3.9
    endloop
  endfacet
  facet normal 0.156411 -0.987692 0
    outer loop
      vertex 24.8365 32.3266 0
      vertex 25.3 32.4 3
      vertex 24.8365 32.3266 3
    endloop
  endfacet
  facet normal 0.156411 -0.987692 0
    outer loop
      vertex 25.3 32.4 3
      vertex 24.8365 32.3266 0
      vertex 25.3 32.4 0
    endloop
  endfacet
  facet normal 0.707107 0.707107 0
    outer loop
      vertex 24.4183 29.6865 3
      vertex 24.0865 30.0183 0
      vertex 24.0865 30.0183 3
    endloop
  endfacet
  facet normal 0.707107 0.707107 0
    outer loop
      vertex 24.0865 30.0183 0
      vertex 24.4183 29.6865 3
      vertex 24.4183 29.6865 0
    endloop
  endfacet
  facet normal -0.454018 -0.890992 0
    outer loop
      vertex 25.7635 32.3266 0
      vertex 26.1817 32.1135 3.9
      vertex 25.7635 32.3266 3.9
    endloop
  endfacet
  facet normal -0.454018 -0.890992 -0
    outer loop
      vertex 26.1817 32.1135 3.9
      vertex 25.7635 32.3266 0
      vertex 26.1817 32.1135 0
    endloop
  endfacet
  facet normal 0.987692 0.156411 0
    outer loop
      vertex 23.8734 30.4365 3
      vertex 23.8 30.9 0
      vertex 23.8 30.9 3
    endloop
  endfacet
  facet normal 0.987692 0.156411 0
    outer loop
      vertex 23.8 30.9 0
      vertex 23.8734 30.4365 3
      vertex 23.8734 30.4365 0
    endloop
  endfacet
  facet normal -0.156366 0.987699 0
    outer loop
      vertex 25.7635 29.4734 3.9
      vertex 25.55 29.4396 3
      vertex 25.55 29.4396 3.9
    endloop
  endfacet
  facet normal -0.156366 0.987699 0
    outer loop
      vertex 25.7635 29.4734 0
      vertex 25.55 29.4396 3
      vertex 25.7635 29.4734 3.9
    endloop
  endfacet
  facet normal -0.156411 0.987692 -3.26745e-06
    outer loop
      vertex 25.3 29.4 0
      vertex 25.55 29.4396 3
      vertex 25.7635 29.4734 0
    endloop
  endfacet
  facet normal -0.156449 0.987686 0
    outer loop
      vertex 25.55 29.4396 3
      vertex 25.3 29.4 0
      vertex 25.3 29.4 3
    endloop
  endfacet
  facet normal -0.707107 0.707107 0
    outer loop
      vertex 26.1817 29.6865 0
      vertex 26.5135 30.0183 3.9
      vertex 26.5135 30.0183 0
    endloop
  endfacet
  facet normal -0.707107 0.707107 0
    outer loop
      vertex 26.5135 30.0183 3.9
      vertex 26.1817 29.6865 0
      vertex 26.1817 29.6865 3.9
    endloop
  endfacet
  facet normal 0.890992 0.454018 0
    outer loop
      vertex 24.0865 30.0183 3
      vertex 23.8734 30.4365 0
      vertex 23.8734 30.4365 3
    endloop
  endfacet
  facet normal 0.890992 0.454018 0
    outer loop
      vertex 23.8734 30.4365 0
      vertex 24.0865 30.0183 3
      vertex 24.0865 30.0183 0
    endloop
  endfacet
  facet normal 0.987692 -0.156411 0
    outer loop
      vertex 23.8 30.9 3
      vertex 23.8734 31.3635 0
      vertex 23.8734 31.3635 3
    endloop
  endfacet
  facet normal 0.987692 -0.156411 0
    outer loop
      vertex 23.8734 31.3635 0
      vertex 23.8 30.9 3
      vertex 23.8 30.9 0
    endloop
  endfacet
  facet normal -0.890992 0.454018 0
    outer loop
      vertex 26.5135 30.0183 0
      vertex 26.7266 30.4365 3.9
      vertex 26.7266 30.4365 0
    endloop
  endfacet
  facet normal -0.890992 0.454018 0
    outer loop
      vertex 26.7266 30.4365 3.9
      vertex 26.5135 30.0183 0
      vertex 26.5135 30.0183 3.9
    endloop
  endfacet
  facet normal 0.454018 0.890992 -0
    outer loop
      vertex 24.8365 29.4734 0
      vertex 24.4183 29.6865 3
      vertex 24.8365 29.4734 3
    endloop
  endfacet
  facet normal 0.454018 0.890992 0
    outer loop
      vertex 24.4183 29.6865 3
      vertex 24.8365 29.4734 0
      vertex 24.4183 29.6865 0
    endloop
  endfacet
  facet normal 0.890992 -0.454018 0
    outer loop
      vertex 23.8734 31.3635 3
      vertex 24.0865 31.7817 0
      vertex 24.0865 31.7817 3
    endloop
  endfacet
  facet normal 0.890992 -0.454018 0
    outer loop
      vertex 24.0865 31.7817 0
      vertex 23.8734 31.3635 3
      vertex 23.8734 31.3635 0
    endloop
  endfacet
  facet normal -0.891009 -0.453985 0
    outer loop
      vertex 5.17658 4.46352 0
      vertex 4.96352 4.88168 3.9
      vertex 4.96352 4.88168 0
    endloop
  endfacet
  facet normal -0.891009 -0.453985 0
    outer loop
      vertex 4.96352 4.88168 3.9
      vertex 5.17658 4.46352 0
      vertex 5.17658 4.46352 3.9
    endloop
  endfacet
  facet normal -0.987686 -0.156446 0
    outer loop
      vertex 5.25 4 0
      vertex 5.17658 4.46352 3.9
      vertex 5.17658 4.46352 0
    endloop
  endfacet
  facet normal -0.987686 -0.156446 0
    outer loop
      vertex 5.17658 4.46352 3.9
      vertex 5.25 4 0
      vertex 5.25 4 3.9
    endloop
  endfacet
  facet normal -0.707107 -0.707107 0
    outer loop
      vertex 4.96352 4.88168 0
      vertex 4.63168 5.21352 3.9
      vertex 4.63168 5.21352 0
    endloop
  endfacet
  facet normal -0.707107 -0.707107 0
    outer loop
      vertex 4.63168 5.21352 3.9
      vertex 4.96352 4.88168 0
      vertex 4.96352 4.88168 3.9
    endloop
  endfacet
  facet normal 0.156443 -0.987687 0
    outer loop
      vertex 3.28647 5.42658 0
      vertex 3.75 5.5 3.9
      vertex 3.28647 5.42658 3.9
    endloop
  endfacet
  facet normal 0.156443 -0.987687 0
    outer loop
      vertex 3.75 5.5 3.9
      vertex 3.28647 5.42658 0
      vertex 3.75 5.5 0
    endloop
  endfacet
  facet normal 0.707096 -0.707117 0
    outer loop
      vertex 2.53647 4.88168 3.9
      vertex 2.86832 5.21352 0
      vertex 2.86832 5.21352 3.9
    endloop
  endfacet
  facet normal 0.707096 -0.707117 0
    outer loop
      vertex 2.86832 5.21352 0
      vertex 2.53647 4.88168 3.9
      vertex 2.53647 4.88168 0
    endloop
  endfacet
  facet normal -0.453985 -0.891009 0
    outer loop
      vertex 4.21352 5.42658 0
      vertex 4.63168 5.21352 3.9
      vertex 4.21352 5.42658 3.9
    endloop
  endfacet
  facet normal -0.453985 -0.891009 -0
    outer loop
      vertex 4.63168 5.21352 3.9
      vertex 4.21352 5.42658 0
      vertex 4.63168 5.21352 0
    endloop
  endfacet
  facet normal -0.891005 0.453994 0
    outer loop
      vertex 4.96352 3.11832 0
      vertex 5.17658 3.53647 3.9
      vertex 5.17658 3.53647 0
    endloop
  endfacet
  facet normal -0.891005 0.453994 0
    outer loop
      vertex 5.17658 3.53647 3.9
      vertex 4.96352 3.11832 0
      vertex 4.96352 3.11832 3.9
    endloop
  endfacet
  facet normal -0.156446 -0.987686 0
    outer loop
      vertex 3.75 5.5 0
      vertex 4.21352 5.42658 3.9
      vertex 3.75 5.5 3.9
    endloop
  endfacet
  facet normal -0.156446 -0.987686 -0
    outer loop
      vertex 4.21352 5.42658 3.9
      vertex 3.75 5.5 0
      vertex 4.21352 5.42658 0
    endloop
  endfacet
  facet normal 0.453994 0.891005 -0
    outer loop
      vertex 3.28647 2.57341 0
      vertex 2.86832 2.78647 3.9
      vertex 3.28647 2.57341 3.9
    endloop
  endfacet
  facet normal 0.453994 0.891005 0
    outer loop
      vertex 2.86832 2.78647 3.9
      vertex 3.28647 2.57341 0
      vertex 2.86832 2.78647 0
    endloop
  endfacet
  facet normal -0.453985 0.891009 0
    outer loop
      vertex 4.63168 2.78647 0
      vertex 4.21352 2.57341 3.9
      vertex 4.63168 2.78647 3.9
    endloop
  endfacet
  facet normal -0.453985 0.891009 0
    outer loop
      vertex 4.21352 2.57341 3.9
      vertex 4.63168 2.78647 0
      vertex 4.21352 2.57341 0
    endloop
  endfacet
  facet normal -0.987687 0.156443 0
    outer loop
      vertex 5.17658 3.53647 0
      vertex 5.25 4 3.9
      vertex 5.25 4 0
    endloop
  endfacet
  facet normal -0.987687 0.156443 0
    outer loop
      vertex 5.25 4 3.9
      vertex 5.17658 3.53647 0
      vertex 5.17658 3.53647 3.9
    endloop
  endfacet
  facet normal -0.707117 0.707096 0
    outer loop
      vertex 4.63168 2.78647 0
      vertex 4.96352 3.11832 3.9
      vertex 4.96352 3.11832 0
    endloop
  endfacet
  facet normal -0.707117 0.707096 0
    outer loop
      vertex 4.96352 3.11832 3.9
      vertex 4.63168 2.78647 0
      vertex 4.63168 2.78647 3.9
    endloop
  endfacet
  facet normal 0.891005 0.453994 0
    outer loop
      vertex 2.53647 3.11832 3.9
      vertex 2.32341 3.53647 0
      vertex 2.32341 3.53647 3.9
    endloop
  endfacet
  facet normal 0.891005 0.453994 0
    outer loop
      vertex 2.32341 3.53647 0
      vertex 2.53647 3.11832 3.9
      vertex 2.53647 3.11832 0
    endloop
  endfacet
  facet normal 0.453994 -0.891005 0
    outer loop
      vertex 2.86832 5.21352 0
      vertex 3.28647 5.42658 3.9
      vertex 2.86832 5.21352 3.9
    endloop
  endfacet
  facet normal 0.453994 -0.891005 0
    outer loop
      vertex 3.28647 5.42658 3.9
      vertex 2.86832 5.21352 0
      vertex 3.28647 5.42658 0
    endloop
  endfacet
  facet normal 0.891009 -0.453985 0
    outer loop
      vertex 2.32341 4.46352 3.9
      vertex 2.53647 4.88168 0
      vertex 2.53647 4.88168 3.9
    endloop
  endfacet
  facet normal 0.891009 -0.453985 0
    outer loop
      vertex 2.53647 4.88168 0
      vertex 2.32341 4.46352 3.9
      vertex 2.32341 4.46352 0
    endloop
  endfacet
  facet normal 0.156422 0.98769 -0
    outer loop
      vertex 3.75 2.5 0
      vertex 3.28647 2.57341 3.9
      vertex 3.75 2.5 3.9
    endloop
  endfacet
  facet normal 0.156422 0.98769 0
    outer loop
      vertex 3.28647 2.57341 3.9
      vertex 3.75 2.5 0
      vertex 3.28647 2.57341 0
    endloop
  endfacet
  facet normal 0.98769 0.156422 0
    outer loop
      vertex 2.32341 3.53647 3.9
      vertex 2.25 4 0
      vertex 2.25 4 3.9
    endloop
  endfacet
  facet normal 0.98769 0.156422 0
    outer loop
      vertex 2.25 4 0
      vertex 2.32341 3.53647 3.9
      vertex 2.32341 3.53647 0
    endloop
  endfacet
  facet normal 0.98769 -0.156425 0
    outer loop
      vertex 2.25 4 3.9
      vertex 2.32341 4.46352 0
      vertex 2.32341 4.46352 3.9
    endloop
  endfacet
  facet normal 0.98769 -0.156425 0
    outer loop
      vertex 2.32341 4.46352 0
      vertex 2.25 4 3.9
      vertex 2.25 4 0
    endloop
  endfacet
  facet normal 0.707107 0.707107 0
    outer loop
      vertex 2.86832 2.78647 3.9
      vertex 2.53647 3.11832 0
      vertex 2.53647 3.11832 3.9
    endloop
  endfacet
  facet normal 0.707107 0.707107 0
    outer loop
      vertex 2.53647 3.11832 0
      vertex 2.86832 2.78647 3.9
      vertex 2.86832 2.78647 0
    endloop
  endfacet
  facet normal -0.156425 0.98769 0
    outer loop
      vertex 4.21352 2.57341 0
      vertex 3.75 2.5 3.9
      vertex 4.21352 2.57341 3.9
    endloop
  endfacet
  facet normal -0.156425 0.98769 0
    outer loop
      vertex 3.75 2.5 3.9
      vertex 4.21352 2.57341 0
      vertex 3.75 2.5 0
    endloop
  endfacet
  facet normal 0.453951 0.891027 -0
    outer loop
      vertex 23.5865 2.57341 0
      vertex 23.1683 2.78647 3.9
      vertex 23.5865 2.57341 3.9
    endloop
  endfacet
  facet normal 0.453951 0.891027 0
    outer loop
      vertex 23.1683 2.78647 3.9
      vertex 23.5865 2.57341 0
      vertex 23.1683 2.78647 0
    endloop
  endfacet
  facet normal -0.890975 -0.454053 0
    outer loop
      vertex 25.4766 4.46352 0
      vertex 25.2635 4.88168 3.9
      vertex 25.2635 4.88168 0
    endloop
  endfacet
  facet normal -0.890975 -0.454053 0
    outer loop
      vertex 25.2635 4.88168 3.9
      vertex 25.4766 4.46352 0
      vertex 25.4766 4.46352 3.9
    endloop
  endfacet
  facet normal -0.987693 -0.156405 0
    outer loop
      vertex 25.55 4 0
      vertex 25.4766 4.46352 3.9
      vertex 25.4766 4.46352 0
    endloop
  endfacet
  facet normal -0.987693 -0.156405 0
    outer loop
      vertex 25.4766 4.46352 3.9
      vertex 25.55 4 0
      vertex 25.55 4 3.9
    endloop
  endfacet
  facet normal -0.707149 -0.707064 0
    outer loop
      vertex 25.2635 4.88168 0
      vertex 24.9317 5.21352 3.9
      vertex 24.9317 5.21352 0
    endloop
  endfacet
  facet normal -0.707149 -0.707064 0
    outer loop
      vertex 24.9317 5.21352 3.9
      vertex 25.2635 4.88168 0
      vertex 25.2635 4.88168 3.9
    endloop
  endfacet
  facet normal -0.70716 0.707054 0
    outer loop
      vertex 24.9317 2.78647 0
      vertex 25.2635 3.11832 3.9
      vertex 25.2635 3.11832 0
    endloop
  endfacet
  facet normal -0.70716 0.707054 0
    outer loop
      vertex 25.2635 3.11832 3.9
      vertex 24.9317 2.78647 0
      vertex 24.9317 2.78647 3.9
    endloop
  endfacet
  facet normal -0.453951 0.891027 0
    outer loop
      vertex 24.9317 2.78647 0
      vertex 24.5135 2.57341 3.9
      vertex 24.9317 2.78647 3.9
    endloop
  endfacet
  facet normal -0.453951 0.891027 0
    outer loop
      vertex 24.5135 2.57341 3.9
      vertex 24.9317 2.78647 0
      vertex 24.5135 2.57341 0
    endloop
  endfacet
  facet normal 0.453951 -0.891027 0
    outer loop
      vertex 23.1683 5.21352 0
      vertex 23.5865 5.42658 3.9
      vertex 23.1683 5.21352 3.9
    endloop
  endfacet
  facet normal 0.453951 -0.891027 0
    outer loop
      vertex 23.5865 5.42658 3.9
      vertex 23.1683 5.21352 0
      vertex 23.5865 5.42658 0
    endloop
  endfacet
  facet normal -0.156432 0.987689 0
    outer loop
      vertex 24.5135 2.57341 0
      vertex 24.05 2.5 3.9
      vertex 24.5135 2.57341 3.9
    endloop
  endfacet
  facet normal -0.156432 0.987689 0
    outer loop
      vertex 24.05 2.5 3.9
      vertex 24.5135 2.57341 0
      vertex 24.05 2.5 0
    endloop
  endfacet
  facet normal 0.156432 0.987689 -0
    outer loop
      vertex 24.05 2.5 0
      vertex 23.5865 2.57341 3.9
      vertex 24.05 2.5 3.9
    endloop
  endfacet
  facet normal 0.156432 0.987689 0
    outer loop
      vertex 23.5865 2.57341 3.9
      vertex 24.05 2.5 0
      vertex 23.5865 2.57341 0
    endloop
  endfacet
  facet normal 0.707149 -0.707064 0
    outer loop
      vertex 22.8365 4.88168 3.9
      vertex 23.1683 5.21352 0
      vertex 23.1683 5.21352 3.9
    endloop
  endfacet
  facet normal 0.707149 -0.707064 0
    outer loop
      vertex 23.1683 5.21352 0
      vertex 22.8365 4.88168 3.9
      vertex 22.8365 4.88168 0
    endloop
  endfacet
  facet normal 0.987694 0.156401 0
    outer loop
      vertex 22.6234 3.53647 3.9
      vertex 22.55 4 0
      vertex 22.55 4 3.9
    endloop
  endfacet
  facet normal 0.987694 0.156401 0
    outer loop
      vertex 22.55 4 0
      vertex 22.6234 3.53647 3.9
      vertex 22.6234 3.53647 0
    endloop
  endfacet
  facet normal -0.987694 0.156401 0
    outer loop
      vertex 25.4766 3.53647 0
      vertex 25.55 4 3.9
      vertex 25.55 4 0
    endloop
  endfacet
  facet normal -0.987694 0.156401 0
    outer loop
      vertex 25.55 4 3.9
      vertex 25.4766 3.53647 0
      vertex 25.4766 3.53647 3.9
    endloop
  endfacet
  facet normal -0.453951 -0.891027 0
    outer loop
      vertex 24.5135 5.42658 0
      vertex 24.9317 5.21352 3.9
      vertex 24.5135 5.42658 3.9
    endloop
  endfacet
  facet normal -0.453951 -0.891027 -0
    outer loop
      vertex 24.9317 5.21352 3.9
      vertex 24.5135 5.42658 0
      vertex 24.9317 5.21352 0
    endloop
  endfacet
  facet normal 0.89097 0.454061 0
    outer loop
      vertex 22.8365 3.11832 3.9
      vertex 22.6234 3.53647 0
      vertex 22.6234 3.53647 3.9
    endloop
  endfacet
  facet normal 0.89097 0.454061 0
    outer loop
      vertex 22.6234 3.53647 0
      vertex 22.8365 3.11832 3.9
      vertex 22.8365 3.11832 0
    endloop
  endfacet
  facet normal -0.89097 0.454061 0
    outer loop
      vertex 25.2635 3.11832 0
      vertex 25.4766 3.53647 3.9
      vertex 25.4766 3.53647 0
    endloop
  endfacet
  facet normal -0.89097 0.454061 0
    outer loop
      vertex 25.4766 3.53647 3.9
      vertex 25.2635 3.11832 0
      vertex 25.2635 3.11832 3.9
    endloop
  endfacet
  facet normal -0.156453 -0.987685 0
    outer loop
      vertex 24.05 5.5 0
      vertex 24.5135 5.42658 3.9
      vertex 24.05 5.5 3.9
    endloop
  endfacet
  facet normal -0.156453 -0.987685 -0
    outer loop
      vertex 24.5135 5.42658 3.9
      vertex 24.05 5.5 0
      vertex 24.5135 5.42658 0
    endloop
  endfacet
  facet normal 0.156453 -0.987685 0
    outer loop
      vertex 23.5865 5.42658 0
      vertex 24.05 5.5 3.9
      vertex 23.5865 5.42658 3.9
    endloop
  endfacet
  facet normal 0.156453 -0.987685 0
    outer loop
      vertex 24.05 5.5 3.9
      vertex 23.5865 5.42658 0
      vertex 24.05 5.5 0
    endloop
  endfacet
  facet normal 0.890975 -0.454053 0
    outer loop
      vertex 22.6234 4.46352 3.9
      vertex 22.8365 4.88168 0
      vertex 22.8365 4.88168 3.9
    endloop
  endfacet
  facet normal 0.890975 -0.454053 0
    outer loop
      vertex 22.8365 4.88168 0
      vertex 22.6234 4.46352 3.9
      vertex 22.6234 4.46352 0
    endloop
  endfacet
  facet normal 0.987693 -0.156405 0
    outer loop
      vertex 22.55 4 3.9
      vertex 22.6234 4.46352 0
      vertex 22.6234 4.46352 3.9
    endloop
  endfacet
  facet normal 0.987693 -0.156405 0
    outer loop
      vertex 22.6234 4.46352 0
      vertex 22.55 4 3.9
      vertex 22.55 4 0
    endloop
  endfacet
  facet normal 0.70716 0.707054 0
    outer loop
      vertex 23.1683 2.78647 3.9
      vertex 22.8365 3.11832 0
      vertex 22.8365 3.11832 3.9
    endloop
  endfacet
  facet normal 0.70716 0.707054 0
    outer loop
      vertex 22.8365 3.11832 0
      vertex 23.1683 2.78647 3.9
      vertex 23.1683 2.78647 0
    endloop
  endfacet
  facet normal -1 0 0
    outer loop
      vertex 19.87 2 3.54
      vertex 19.87 10 3.9
      vertex 19.87 10 3.54
    endloop
  endfacet
  facet normal -1 -0 0
    outer loop
      vertex 19.87 10 3.9
      vertex 19.87 2 3.54
      vertex 19.87 2 3.9
    endloop
  endfacet
  facet normal -0 0 1
    outer loop
      vertex 7.71 10 3.54
      vertex 19.87 2 3.54
      vertex 19.87 10 3.54
    endloop
  endfacet
  facet normal 0 0 1
    outer loop
      vertex 19.87 2 3.54
      vertex 7.71 10 3.54
      vertex 7.71 2 3.54
    endloop
  endfacet
  facet normal 1 -0 0
    outer loop
      vertex 7.71 2 3.9
      vertex 7.71 10 3.54
      vertex 7.71 10 3.9
    endloop
  endfacet
  facet normal 1 0 0
    outer loop
      vertex 7.71 10 3.54
      vertex 7.71 2 3.9
      vertex 7.71 2 3.54
    endloop
  endfacet
  facet normal 0 1 -0
    outer loop
      vertex 19.87 2 3.54
      vertex 7.71 2 3.9
      vertex 19.87 2 3.9
    endloop
  endfacet
  facet normal 0 1 0
    outer loop
      vertex 7.71 2 3.9
      vertex 19.87 2 3.54
      vertex 7.71 2 3.54
    endloop
  endfacet
  facet normal 0 0 1
    outer loop
      vertex 2.65 46 3.9
      vertex 2.25 36 3.9
      vertex 2.65 36 3.9
    endloop
  endfacet
  facet normal 0 0 1
    outer loop
      vertex 2.25 36 3.9
      vertex 2.03647 32.3266 3.9
      vertex 2.25 32.3604 3.9
    endloop
  endfacet
  facet normal -0 0 1
    outer loop
      vertex 0 46 3.9
      vertex 2.25 36 3.9
      vertex 2.65 46 3.9
    endloop
  endfacet
  facet normal 0 -0 1
    outer loop
      vertex 1.07341 31.3635 3.9
      vertex 2.25 36 3.9
      vertex 0 46 3.9
    endloop
  endfacet
  facet normal 0 0 1
    outer loop
      vertex 2.25 36 3.9
      vertex 1.61832 32.1135 3.9
      vertex 2.03647 32.3266 3.9
    endloop
  endfacet
  facet normal 0 0 1
    outer loop
      vertex 2.25 36 3.9
      vertex 1.28647 31.7817 3.9
      vertex 1.61832 32.1135 3.9
    endloop
  endfacet
  facet normal 0 0 1
    outer loop
      vertex 2.25 36 3.9
      vertex 1.07341 31.3635 3.9
      vertex 1.28647 31.7817 3.9
    endloop
  endfacet
  facet normal 0 0 1
    outer loop
      vertex 1.07341 31.3635 3.9
      vertex 0 46 3.9
      vertex 1 30.9 3.9
    endloop
  endfacet
  facet normal 0 0 1
    outer loop
      vertex 2.03647 29.4734 3.9
      vertex 2.25 10 3.9
      vertex 2.25 29.4396 3.9
    endloop
  endfacet
  facet normal 0 0 1
    outer loop
      vertex 1.61832 29.6865 3.9
      vertex 2.25 10 3.9
      vertex 2.03647 29.4734 3.9
    endloop
  endfacet
  facet normal -0 0 1
    outer loop
      vertex 5.17658 4.46352 3.9
      vertex 7.71 2 3.9
      vertex 7.71 10 3.9
    endloop
  endfacet
  facet normal -0 -0 1
    outer loop
      vertex 5.25 4 3.9
      vertex 7.71 2 3.9
      vertex 5.17658 4.46352 3.9
    endloop
  endfacet
  facet normal -0 0 1
    outer loop
      vertex 4.96352 3.11832 3.9
      vertex 7.71 2 3.9
      vertex 5.17658 3.53647 3.9
    endloop
  endfacet
  facet normal -0 0 1
    outer loop
      vertex 5.17658 3.53647 3.9
      vertex 7.71 2 3.9
      vertex 5.25 4 3.9
    endloop
  endfacet
  facet normal 0 0 1
    outer loop
      vertex 7.71 10 3.9
      vertex 4.96352 4.88168 3.9
      vertex 5.17658 4.46352 3.9
    endloop
  endfacet
  facet normal 0 0 1
    outer loop
      vertex 7.71 10 3.9
      vertex 4.63168 5.21352 3.9
      vertex 4.96352 4.88168 3.9
    endloop
  endfacet
  facet normal 0 0 1
    outer loop
      vertex 7.71 10 3.9
      vertex 4.21352 5.42658 3.9
      vertex 4.63168 5.21352 3.9
    endloop
  endfacet
  facet normal -0 0 1
    outer loop
      vertex 2.25 10 3.9
      vertex 4.21352 5.42658 3.9
      vertex 7.71 10 3.9
    endloop
  endfacet
  facet normal 0 0 1
    outer loop
      vertex 4.21352 5.42658 3.9
      vertex 2.25 10 3.9
      vertex 3.75 5.5 3.9
    endloop
  endfacet
  facet normal 0 0 1
    outer loop
      vertex 3.75 5.5 3.9
      vertex 2.25 10 3.9
      vertex 3.28647 5.42658 3.9
    endloop
  endfacet
  facet normal 0 0 1
    outer loop
      vertex 3.28647 5.42658 3.9
      vertex 2.25 10 3.9
      vertex 2.86832 5.21352 3.9
    endloop
  endfacet
  facet normal 0 0 1
    outer loop
      vertex 2.25 10 3.9
      vertex 2.53647 4.88168 3.9
      vertex 2.86832 5.21352 3.9
    endloop
  endfacet
  facet normal 0 0 1
    outer loop
      vertex 2.25 10 3.9
      vertex 2.32341 4.46352 3.9
      vertex 2.53647 4.88168 3.9
    endloop
  endfacet
  facet normal 0 0 1
    outer loop
      vertex 2.32341 4.46352 3.9
      vertex 2.25 10 3.9
      vertex 2.25 4 3.9
    endloop
  endfacet
  facet normal -0 0 1
    outer loop
      vertex 7.71 2 3.9
      vertex 19.87 1.99 3.9
      vertex 19.87 2 3.9
    endloop
  endfacet
  facet normal 0 0 1
    outer loop
      vertex 19.87 1.99 3.9
      vertex 7.71 2 3.9
      vertex 7.71 1.99 3.9
    endloop
  endfacet
  facet normal 0 0 1
    outer loop
      vertex 7.71 2 3.9
      vertex 4.96352 3.11832 3.9
      vertex 7.71 1.99 3.9
    endloop
  endfacet
  facet normal -0 0 1
    outer loop
      vertex 4.63168 2.78647 3.9
      vertex 7.71 1.99 3.9
      vertex 4.96352 3.11832 3.9
    endloop
  endfacet
  facet normal 0 0 1
    outer loop
      vertex 7.71 1.99 3.9
      vertex 4.63168 2.78647 3.9
      vertex 7.71 0 3.9
    endloop
  endfacet
  facet normal -0 0 1
    outer loop
      vertex 4.21352 2.57341 3.9
      vertex 7.71 0 3.9
      vertex 4.63168 2.78647 3.9
    endloop
  endfacet
  facet normal -0 0 1
    outer loop
      vertex 3.75 2.5 3.9
      vertex 7.71 0 3.9
      vertex 4.21352 2.57341 3.9
    endloop
  endfacet
  facet normal 0 0 1
    outer loop
      vertex 0 0 3.9
      vertex 3.75 2.5 3.9
      vertex 3.28647 2.57341 3.9
    endloop
  endfacet
  facet normal 0 0 1
    outer loop
      vertex 0 0 3.9
      vertex 3.28647 2.57341 3.9
      vertex 2.86832 2.78647 3.9
    endloop
  endfacet
  facet normal 0 0 1
    outer loop
      vertex 1.28647 30.0183 3.9
      vertex 2.25 10 3.9
      vertex 1.61832 29.6865 3.9
    endloop
  endfacet
  facet normal 0 0 1
    outer loop
      vertex 1.07341 30.4365 3.9
      vertex 2.25 10 3.9
      vertex 1.28647 30.0183 3.9
    endloop
  endfacet
  facet normal 0 0 1
    outer loop
      vertex 2.25 10 3.9
      vertex 1.07341 30.4365 3.9
      vertex 0 0 3.9
    endloop
  endfacet
  facet normal 0 0 1
    outer loop
      vertex 0 0 3.9
      vertex 1.07341 30.4365 3.9
      vertex 1 30.9 3.9
    endloop
  endfacet
  facet normal 0 0 1
    outer loop
      vertex 0 0 3.9
      vertex 1 30.9 3.9
      vertex 0 46 3.9
    endloop
  endfacet
  facet normal 0 0 1
    outer loop
      vertex 3.75 2.5 3.9
      vertex 0 0 3.9
      vertex 7.71 0 3.9
    endloop
  endfacet
  facet normal 0 0 1
    outer loop
      vertex 2.53647 3.11832 3.9
      vertex 0 0 3.9
      vertex 2.86832 2.78647 3.9
    endloop
  endfacet
  facet normal 0 0 1
    outer loop
      vertex 2.32341 3.53647 3.9
      vertex 0 0 3.9
      vertex 2.53647 3.11832 3.9
    endloop
  endfacet
  facet normal 0 0 1
    outer loop
      vertex 2.25 4 3.9
      vertex 0 0 3.9
      vertex 2.32341 3.53647 3.9
    endloop
  endfacet
  facet normal 0 0 1
    outer loop
      vertex 2.25 10 3.9
      vertex 0 0 3.9
      vertex 2.25 4 3.9
    endloop
  endfacet
  facet normal 0 0 1
    outer loop
      vertex 27.8 0 3.9
      vertex 25.4766 4.46352 3.9
      vertex 25.55 4 3.9
    endloop
  endfacet
  facet normal 0 0 1
    outer loop
      vertex 25.55 10 3.9
      vertex 25.2635 4.88168 3.9
      vertex 25.4766 4.46352 3.9
    endloop
  endfacet
  facet normal 0 0 1
    outer loop
      vertex 25.55 10 3.9
      vertex 24.9317 5.21352 3.9
      vertex 25.2635 4.88168 3.9
    endloop
  endfacet
  facet normal 0 0 1
    outer loop
      vertex 25.55 10 3.9
      vertex 24.5135 5.42658 3.9
      vertex 24.9317 5.21352 3.9
    endloop
  endfacet
  facet normal 0 0 1
    outer loop
      vertex 25.55 10 3.9
      vertex 24.05 5.5 3.9
      vertex 24.5135 5.42658 3.9
    endloop
  endfacet
  facet normal 0 0 1
    outer loop
      vertex 25.55 10 3.9
      vertex 23.5865 5.42658 3.9
      vertex 24.05 5.5 3.9
    endloop
  endfacet
  facet normal -0 0 1
    outer loop
      vertex 19.87 10 3.9
      vertex 23.5865 5.42658 3.9
      vertex 25.55 10 3.9
    endloop
  endfacet
  facet normal 0 0 1
    outer loop
      vertex 23.5865 5.42658 3.9
      vertex 19.87 10 3.9
      vertex 23.1683 5.21352 3.9
    endloop
  endfacet
  facet normal 0 0 1
    outer loop
      vertex 19.87 2 3.9
      vertex 22.6234 4.46352 3.9
      vertex 19.87 10 3.9
    endloop
  endfacet
  facet normal 0 0 1
    outer loop
      vertex 22.8365 4.88168 3.9
      vertex 19.87 10 3.9
      vertex 22.6234 4.46352 3.9
    endloop
  endfacet
  facet normal 0 0 1
    outer loop
      vertex 23.1683 5.21352 3.9
      vertex 19.87 10 3.9
      vertex 22.8365 4.88168 3.9
    endloop
  endfacet
  facet normal 0 0 1
    outer loop
      vertex 27.8 46 3.9
      vertex 26.8 30.9 3.9
      vertex 27.8 0 3.9
    endloop
  endfacet
  facet normal 0 0 1
    outer loop
      vertex 27.8 46 3.9
      vertex 26.7266 31.3635 3.9
      vertex 26.8 30.9 3.9
    endloop
  endfacet
  facet normal -0 0 1
    outer loop
      vertex 25.55 36 3.9
      vertex 26.7266 31.3635 3.9
      vertex 27.8 46 3.9
    endloop
  endfacet
  facet normal 0 0 1
    outer loop
      vertex 26.7266 31.3635 3.9
      vertex 25.55 36 3.9
      vertex 26.5135 31.7817 3.9
    endloop
  endfacet
  facet normal 0 0 1
    outer loop
      vertex 26.5135 31.7817 3.9
      vertex 25.55 36 3.9
      vertex 26.1817 32.1135 3.9
    endloop
  endfacet
  facet normal 0 0 1
    outer loop
      vertex 26.1817 32.1135 3.9
      vertex 25.55 36 3.9
      vertex 25.7635 32.3266 3.9
    endloop
  endfacet
  facet normal -0 0 1
    outer loop
      vertex 25.15 46 3.9
      vertex 25.55 36 3.9
      vertex 27.8 46 3.9
    endloop
  endfacet
  facet normal 0 0 1
    outer loop
      vertex 25.55 36 3.9
      vertex 25.15 46 3.9
      vertex 25.15 36 3.9
    endloop
  endfacet
  facet normal -0 0 1
    outer loop
      vertex 26.7266 30.4365 3.9
      vertex 27.8 0 3.9
      vertex 26.8 30.9 3.9
    endloop
  endfacet
  facet normal 0 0 1
    outer loop
      vertex 25.55 10 3.9
      vertex 26.7266 30.4365 3.9
      vertex 26.5135 30.0183 3.9
    endloop
  endfacet
  facet normal 0 0 1
    outer loop
      vertex 25.55 10 3.9
      vertex 26.5135 30.0183 3.9
      vertex 26.1817 29.6865 3.9
    endloop
  endfacet
  facet normal 0 0 1
    outer loop
      vertex 25.55 10 3.9
      vertex 26.1817 29.6865 3.9
      vertex 25.7635 29.4734 3.9
    endloop
  endfacet
  facet normal 0 0 1
    outer loop
      vertex 25.55 10 3.9
      vertex 25.7635 29.4734 3.9
      vertex 25.55 29.4396 3.9
    endloop
  endfacet
  facet normal 0 0 1
    outer loop
      vertex 26.7266 30.4365 3.9
      vertex 25.55 10 3.9
      vertex 27.8 0 3.9
    endloop
  endfacet
  facet normal -0 0 1
    outer loop
      vertex 25.4766 4.46352 3.9
      vertex 27.8 0 3.9
      vertex 25.55 10 3.9
    endloop
  endfacet
  facet normal -0 0 1
    outer loop
      vertex 25.4766 3.53647 3.9
      vertex 27.8 0 3.9
      vertex 25.55 4 3.9
    endloop
  endfacet
  facet normal -0 0 1
    outer loop
      vertex 25.2635 3.11832 3.9
      vertex 27.8 0 3.9
      vertex 25.4766 3.53647 3.9
    endloop
  endfacet
  facet normal -0 0 1
    outer loop
      vertex 24.9317 2.78647 3.9
      vertex 27.8 0 3.9
      vertex 25.2635 3.11832 3.9
    endloop
  endfacet
  facet normal -0 0 1
    outer loop
      vertex 24.5135 2.57341 3.9
      vertex 27.8 0 3.9
      vertex 24.9317 2.78647 3.9
    endloop
  endfacet
  facet normal -0 0 1
    outer loop
      vertex 24.05 2.5 3.9
      vertex 27.8 0 3.9
      vertex 24.5135 2.57341 3.9
    endloop
  endfacet
  facet normal 0 0 1
    outer loop
      vertex 19.87 0 3.9
      vertex 24.05 2.5 3.9
      vertex 23.5865 2.57341 3.9
    endloop
  endfacet
  facet normal 0 0 1
    outer loop
      vertex 19.87 0 3.9
      vertex 23.5865 2.57341 3.9
      vertex 23.1683 2.78647 3.9
    endloop
  endfacet
  facet normal 0 0 1
    outer loop
      vertex 22.6234 4.46352 3.9
      vertex 19.87 2 3.9
      vertex 22.55 4 3.9
    endloop
  endfacet
  facet normal 0 0 1
    outer loop
      vertex 22.55 4 3.9
      vertex 19.87 2 3.9
      vertex 22.6234 3.53647 3.9
    endloop
  endfacet
  facet normal 0 0 1
    outer loop
      vertex 19.87 2 3.9
      vertex 22.8365 3.11832 3.9
      vertex 22.6234 3.53647 3.9
    endloop
  endfacet
  facet normal 0 0 1
    outer loop
      vertex 19.87 1.99 3.9
      vertex 22.8365 3.11832 3.9
      vertex 19.87 2 3.9
    endloop
  endfacet
  facet normal 0 0 1
    outer loop
      vertex 22.8365 3.11832 3.9
      vertex 19.87 1.99 3.9
      vertex 23.1683 2.78647 3.9
    endloop
  endfacet
  facet normal 0 0 1
    outer loop
      vertex 19.87 0 3.9
      vertex 23.1683 2.78647 3.9
      vertex 19.87 1.99 3.9
    endloop
  endfacet
  facet normal 0 0 1
    outer loop
      vertex 24.05 2.5 3.9
      vertex 19.87 0 3.9
      vertex 27.8 0 3.9
    endloop
  endfacet
  facet normal 0 0 1
    outer loop
      vertex 25.7635 32.3266 3.9
      vertex 25.55 36 3.9
      vertex 25.55 32.3604 3.9
    endloop
  endfacet
  facet normal 1 0 0
    outer loop
      vertex 19.87 1.99 6.9
      vertex 19.87 0 3.9
      vertex 19.87 1.99 3.9
    endloop
  endfacet
  facet normal 1 -0 0
    outer loop
      vertex 19.87 -0.00999928 6.9
      vertex 19.87 0 3.9
      vertex 19.87 1.99 6.9
    endloop
  endfacet
  facet normal 1 0 0
    outer loop
      vertex 19.87 -0.00999928 2.9
      vertex 19.87 0 3.9
      vertex 19.87 -0.00999928 6.9
    endloop
  endfacet
  facet normal 1 0 0
    outer loop
      vertex 19.87 0 3.9
      vertex 19.87 -0.00999928 2.9
      vertex 19.87 0 2.9
    endloop
  endfacet
  facet normal -0 0 1
    outer loop
      vertex 7.71 1.99 6.9
      vertex 12.3185 -0.00999928 6.9
      vertex 12.3185 1.99 6.9
    endloop
  endfacet
  facet normal 0 0 1
    outer loop
      vertex 12.3185 -0.00999928 6.9
      vertex 7.71 1.99 6.9
      vertex 7.71 -0.00999928 6.9
    endloop
  endfacet
  facet normal -0 0 1
    outer loop
      vertex 15.2615 1.99 6.9
      vertex 19.87 -0.00999928 6.9
      vertex 19.87 1.99 6.9
    endloop
  endfacet
  facet normal 0 0 1
    outer loop
      vertex 19.87 -0.00999928 6.9
      vertex 15.2615 1.99 6.9
      vertex 15.2615 -0.00999928 6.9
    endloop
  endfacet
  facet normal 0 0 -1
    outer loop
      vertex 7.71 -0.00999928 2.9
      vertex 19.87 0 2.9
      vertex 19.87 -0.00999928 2.9
    endloop
  endfacet
  facet normal -0 0 -1
    outer loop
      vertex 19.87 0 2.9
      vertex 7.71 -0.00999928 2.9
      vertex 7.71 0 2.9
    endloop
  endfacet
  facet normal -1 0 0
    outer loop
      vertex 7.71 0 2.9
      vertex 7.71 -0.00999928 2.9
      vertex 7.71 0 3.9
    endloop
  endfacet
  facet normal -1 0 0
    outer loop
      vertex 7.71 0 3.9
      vertex 7.71 1.99 6.9
      vertex 7.71 1.99 3.9
    endloop
  endfacet
  facet normal -1 0 0
    outer loop
      vertex 7.71 0 3.9
      vertex 7.71 -0.00999928 6.9
      vertex 7.71 1.99 6.9
    endloop
  endfacet
  facet normal -1 0 0
    outer loop
      vertex 7.71 -0.00999928 6.9
      vertex 7.71 0 3.9
      vertex 7.71 -0.00999928 2.9
    endloop
  endfacet
  facet normal 0 1 0
    outer loop
      vertex 19.87 1.99 6.9
      vertex 15.2166 1.99 6.61647
      vertex 15.2615 1.99 6.9
    endloop
  endfacet
  facet normal 0 1 -0
    outer loop
      vertex 19.87 1.99 3.9
      vertex 15.2166 1.99 6.61647
      vertex 19.87 1.99 6.9
    endloop
  endfacet
  facet normal 0 1 0
    outer loop
      vertex 15.2166 1.99 6.61647
      vertex 19.87 1.99 3.9
      vertex 15.0035 1.99 6.19832
    endloop
  endfacet
  facet normal 0 1 0
    outer loop
      vertex 15.0035 1.99 6.19832
      vertex 19.87 1.99 3.9
      vertex 14.6717 1.99 5.86647
    endloop
  endfacet
  facet normal 0 1 0
    outer loop
      vertex 14.2535 1.99 5.65341
      vertex 19.87 1.99 3.9
      vertex 13.79 1.99 5.58
    endloop
  endfacet
  facet normal 0 1 0
    outer loop
      vertex 14.6717 1.99 5.86647
      vertex 19.87 1.99 3.9
      vertex 14.2535 1.99 5.65341
    endloop
  endfacet
  facet normal 0 1 0
    outer loop
      vertex 12.3634 1.99 6.61647
      vertex 7.71 1.99 6.9
      vertex 12.3185 1.99 6.9
    endloop
  endfacet
  facet normal 0 1 0
    outer loop
      vertex 7.71 1.99 3.9
      vertex 12.3634 1.99 6.61647
      vertex 12.5765 1.99 6.19832
    endloop
  endfacet
  facet normal 0 1 0
    outer loop
      vertex 7.71 1.99 3.9
      vertex 12.5765 1.99 6.19832
      vertex 12.9083 1.99 5.86647
    endloop
  endfacet
  facet normal 0 1 0
    outer loop
      vertex 7.71 1.99 3.9
      vertex 12.9083 1.99 5.86647
      vertex 13.3265 1.99 5.65341
    endloop
  endfacet
  facet normal 0 1 0
    outer loop
      vertex 7.71 1.99 3.9
      vertex 13.79 1.99 5.58
      vertex 19.87 1.99 3.9
    endloop
  endfacet
  facet normal 0 1 0
    outer loop
      vertex 13.79 1.99 5.58
      vertex 7.71 1.99 3.9
      vertex 13.3265 1.99 5.65341
    endloop
  endfacet
  facet normal 0 1 0
    outer loop
      vertex 12.3634 1.99 6.61647
      vertex 7.71 1.99 3.9
      vertex 7.71 1.99 6.9
    endloop
  endfacet
  facet normal 0 -1 0
    outer loop
      vertex 7.71 -0.00999928 6.9
      vertex 12.3634 -0.00999928 6.61647
      vertex 12.3185 -0.00999928 6.9
    endloop
  endfacet
  facet normal 0 -1 0
    outer loop
      vertex 7.71 -0.00999928 6.9
      vertex 12.5765 -0.00999928 6.19832
      vertex 12.3634 -0.00999928 6.61647
    endloop
  endfacet
  facet normal 0 -1 0
    outer loop
      vertex 7.71 -0.00999928 2.9
      vertex 12.5765 -0.00999928 6.19832
      vertex 7.71 -0.00999928 6.9
    endloop
  endfacet
  facet normal 0 -1 -0
    outer loop
      vertex 12.5765 -0.00999928 6.19832
      vertex 7.71 -0.00999928 2.9
      vertex 12.9083 -0.00999928 5.86647
    endloop
  endfacet
  facet normal 0 -1 -0
    outer loop
      vertex 13.3265 -0.00999928 5.65341
      vertex 7.71 -0.00999928 2.9
      vertex 13.79 -0.00999928 5.58
    endloop
  endfacet
  facet normal 0 -1 -0
    outer loop
      vertex 12.9083 -0.00999928 5.86647
      vertex 7.71 -0.00999928 2.9
      vertex 13.3265 -0.00999928 5.65341
    endloop
  endfacet
  facet normal 0 -1 0
    outer loop
      vertex 15.2166 -0.00999928 6.61647
      vertex 19.87 -0.00999928 6.9
      vertex 15.2615 -0.00999928 6.9
    endloop
  endfacet
  facet normal 0 -1 0
    outer loop
      vertex 15.0035 -0.00999928 6.19832
      vertex 19.87 -0.00999928 6.9
      vertex 15.2166 -0.00999928 6.61647
    endloop
  endfacet
  facet normal 0 -1 0
    outer loop
      vertex 19.87 -0.00999928 2.9
      vertex 15.0035 -0.00999928 6.19832
      vertex 14.6717 -0.00999928 5.86647
    endloop
  endfacet
  facet normal 0 -1 0
    outer loop
      vertex 19.87 -0.00999928 2.9
      vertex 14.6717 -0.00999928 5.86647
      vertex 14.2535 -0.00999928 5.65341
    endloop
  endfacet
  facet normal 0 -1 0
    outer loop
      vertex 19.87 -0.00999928 2.9
      vertex 13.79 -0.00999928 5.58
      vertex 7.71 -0.00999928 2.9
    endloop
  endfacet
  facet normal 0 -1 0
    outer loop
      vertex 13.79 -0.00999928 5.58
      vertex 19.87 -0.00999928 2.9
      vertex 14.2535 -0.00999928 5.65341
    endloop
  endfacet
  facet normal 0 -1 0
    outer loop
      vertex 15.0035 -0.00999928 6.19832
      vertex 19.87 -0.00999928 2.9
      vertex 19.87 -0.00999928 6.9
    endloop
  endfacet
  facet normal 0.453951 0 0.891027
    outer loop
      vertex 12.9083 1.99 5.86647
      vertex 13.3265 -0.00999928 5.65341
      vertex 13.3265 1.99 5.65341
    endloop
  endfacet
  facet normal 0.453951 0 0.891027
    outer loop
      vertex 13.3265 -0.00999928 5.65341
      vertex 12.9083 1.99 5.86647
      vertex 12.9083 -0.00999928 5.86647
    endloop
  endfacet
  facet normal -0.453951 0 0.891027
    outer loop
      vertex 14.2535 1.99 5.65341
      vertex 14.6717 -0.00999928 5.86647
      vertex 14.6717 1.99 5.86647
    endloop
  endfacet
  facet normal -0.453951 0 0.891027
    outer loop
      vertex 14.6717 -0.00999928 5.86647
      vertex 14.2535 1.99 5.65341
      vertex 14.2535 -0.00999928 5.65341
    endloop
  endfacet
  facet normal -0.987692 0 0.156412
    outer loop
      vertex 15.2166 -0.00999928 6.61647
      vertex 15.2615 1.99 6.9
      vertex 15.2166 1.99 6.61647
    endloop
  endfacet
  facet normal -0.987692 0 0.156412
    outer loop
      vertex 15.2615 1.99 6.9
      vertex 15.2166 -0.00999928 6.61647
      vertex 15.2615 -0.00999928 6.9
    endloop
  endfacet
  facet normal -0.70716 0 0.707054
    outer loop
      vertex 14.6717 -0.00999928 5.86647
      vertex 15.0035 1.99 6.19832
      vertex 14.6717 1.99 5.86647
    endloop
  endfacet
  facet normal -0.70716 0 0.707054
    outer loop
      vertex 15.0035 1.99 6.19832
      vertex 14.6717 -0.00999928 5.86647
      vertex 15.0035 -0.00999928 6.19832
    endloop
  endfacet
  facet normal 0.89097 -0 0.454061
    outer loop
      vertex 12.3634 -0.00999928 6.61647
      vertex 12.5765 1.99 6.19832
      vertex 12.3634 1.99 6.61647
    endloop
  endfacet
  facet normal 0.89097 0 0.454061
    outer loop
      vertex 12.5765 1.99 6.19832
      vertex 12.3634 -0.00999928 6.61647
      vertex 12.5765 -0.00999928 6.19832
    endloop
  endfacet
  facet normal 0.156432 0 0.987689
    outer loop
      vertex 13.3265 1.99 5.65341
      vertex 13.79 -0.00999928 5.58
      vertex 13.79 1.99 5.58
    endloop
  endfacet
  facet normal 0.156432 0 0.987689
    outer loop
      vertex 13.79 -0.00999928 5.58
      vertex 13.3265 1.99 5.65341
      vertex 13.3265 -0.00999928 5.65341
    endloop
  endfacet
  facet normal -0.89097 0 0.454061
    outer loop
      vertex 15.0035 -0.00999928 6.19832
      vertex 15.2166 1.99 6.61647
      vertex 15.0035 1.99 6.19832
    endloop
  endfacet
  facet normal -0.89097 0 0.454061
    outer loop
      vertex 15.2166 1.99 6.61647
      vertex 15.0035 -0.00999928 6.19832
      vertex 15.2166 -0.00999928 6.61647
    endloop
  endfacet
  facet normal 0.70716 -0 0.707054
    outer loop
      vertex 12.5765 -0.00999928 6.19832
      vertex 12.9083 1.99 5.86647
      vertex 12.5765 1.99 6.19832
    endloop
  endfacet
  facet normal 0.70716 0 0.707054
    outer loop
      vertex 12.9083 1.99 5.86647
      vertex 12.5765 -0.00999928 6.19832
      vertex 12.9083 -0.00999928 5.86647
    endloop
  endfacet
  facet normal 0.987692 -0 0.156412
    outer loop
      vertex 12.3185 -0.00999928 6.9
      vertex 12.3634 1.99 6.61647
      vertex 12.3185 1.99 6.9
    endloop
  endfacet
  facet normal 0.987692 0 0.156412
    outer loop
      vertex 12.3634 1.99 6.61647
      vertex 12.3185 -0.00999928 6.9
      vertex 12.3634 -0.00999928 6.61647
    endloop
  endfacet
  facet normal -0.156432 0 0.987689
    outer loop
      vertex 13.79 1.99 5.58
      vertex 14.2535 -0.00999928 5.65341
      vertex 14.2535 1.99 5.65341
    endloop
  endfacet
  facet normal -0.156432 0 0.987689
    outer loop
      vertex 14.2535 -0.00999928 5.65341
      vertex 13.79 1.99 5.58
      vertex 13.79 -0.00999928 5.58
    endloop
  endfacet
endsolid OpenSCAD_Model
